<svg xmlns:xlink="http://www.w3.org/1999/xlink" xmlns="http://www.w3.org/2000/svg" width="65" height="26" viewBox="0 0 65 26" fill="none">
<g clip-path="url(#clip0_2284_8365)">
<path d="M33.4833 8.81028H30.5177L29.9537 10.4527H28.1553L31.2113 2.48153H32.7787L35.8516 10.4527H34.0529L33.4833 8.81028ZM30.9744 7.47993H33.0269L31.995 4.49621L30.9744 7.47993ZM38.3606 3.07281V4.52907H39.4036V5.68969H38.3606V8.64603C38.3606 8.86504 38.4039 9.02197 38.4904 9.11687C38.5768 9.21175 38.742 9.2592 38.9864 9.2592C39.1669 9.2592 39.3266 9.24645 39.4657 9.22089V10.4198C39.1462 10.5147 38.8172 10.5622 38.4789 10.5622C37.3362 10.5622 36.7536 10.002 36.7311 8.88145V5.68969H35.8403V4.52907H36.7311V3.07281H38.3606ZM39.8887 7.43614C39.8887 6.84852 40.0049 6.32478 40.2381 5.86488C40.4712 5.40503 40.8058 5.04917 41.2418 4.79732C41.6815 4.54549 42.1909 4.41959 42.7699 4.41959C43.5931 4.41959 44.2641 4.66411 44.7826 5.15319C45.305 5.64226 45.5965 6.30652 45.6567 7.14597L45.6678 7.55111C45.6678 8.45991 45.4066 9.18986 44.8841 9.741C44.3615 10.2885 43.6606 10.5622 42.7809 10.5622C41.9015 10.5622 41.1985 10.2885 40.6724 9.741C40.1498 9.19351 39.8887 8.44896 39.8887 7.50731V7.43614ZM41.518 7.55111C41.518 8.11317 41.6271 8.54384 41.845 8.84312C42.0631 9.13875 42.3751 9.28659 42.7809 9.28659C43.1757 9.28659 43.4839 9.14058 43.7058 8.84861C43.9274 8.55298 44.0385 8.08216 44.0385 7.43614C44.0385 6.88502 43.9274 6.45799 43.7058 6.15505C43.4839 5.85213 43.1719 5.70066 42.7699 5.70066C42.3713 5.70066 42.0631 5.85213 41.845 6.15505C41.6271 6.45433 41.518 6.91969 41.518 7.55111ZM48.1995 4.52907L48.2503 5.1915C48.6823 4.67689 49.267 4.41959 50.0036 4.41959C50.7892 4.41959 51.3287 4.72068 51.6219 5.32289C52.0503 4.72068 52.6613 4.41959 53.4544 4.41959C54.116 4.41959 54.6084 4.60754 54.9317 4.98346C55.2547 5.35575 55.4166 5.91782 55.4166 6.66967V10.4527H53.7814V6.67515C53.7814 6.33938 53.7137 6.09482 53.5784 5.94154C53.4431 5.78459 53.2043 5.70612 52.8624 5.70612C52.3738 5.70612 52.0355 5.93242 51.8475 6.38498L51.8531 10.4527H50.2236V6.68063C50.2236 6.33754 50.154 6.08936 50.0149 5.93606C49.8759 5.78278 49.6392 5.70612 49.3046 5.70612C48.8423 5.70612 48.5077 5.89227 48.3009 6.26455V10.4527H46.6714V4.52907H48.1995ZM58.3935 10.4527H56.7584V4.52907H58.3935V10.4527ZM56.6626 2.99615C56.6626 2.75892 56.7433 2.56366 56.905 2.41036C57.0704 2.25706 57.2941 2.18042 57.576 2.18042C57.8543 2.18042 58.0759 2.25706 58.2413 2.41036C58.4067 2.56366 58.4895 2.75892 58.4895 2.99615C58.4895 3.23704 58.4048 3.43413 58.2357 3.58741C58.0703 3.7407 57.8503 3.81734 57.576 3.81734C57.3016 3.81734 57.0798 3.7407 56.9108 3.58741C56.7452 3.43413 56.6626 3.23704 56.6626 2.99615ZM62.2784 9.28659C62.5791 9.28659 62.8233 9.20629 63.0113 9.0457C63.1993 8.88511 63.2969 8.67158 63.3044 8.40514H64.8325C64.8288 8.80664 64.7159 9.17527 64.4942 9.51104C64.2726 9.84319 63.9679 10.1023 63.5807 10.2885C63.1974 10.4709 62.7725 10.5622 62.3066 10.5622C61.4345 10.5622 60.7465 10.2939 60.243 9.75741C59.7391 9.21724 59.4873 8.47268 59.4873 7.52372V7.4197C59.4873 6.50727 59.7374 5.77912 60.2372 5.2353C60.7371 4.69149 61.4232 4.41959 62.2953 4.41959C63.0583 4.41959 63.6691 4.63127 64.1277 5.05464C64.5902 5.47436 64.825 6.03461 64.8325 6.73538H63.3044C63.2969 6.42878 63.1993 6.1806 63.0113 5.99082C62.8233 5.79739 62.5753 5.70066 62.2671 5.70066C61.8874 5.70066 61.5999 5.83569 61.4044 6.10579C61.2128 6.37223 61.1168 6.80655 61.1168 7.40876V7.573C61.1168 8.18252 61.2128 8.62048 61.4044 8.88694C61.5961 9.15336 61.8874 9.28659 62.2784 9.28659ZM37.5599 21.1595L38.665 15.4877H40.3508L38.5297 23.4589H36.8268L35.4907 18.1265L34.1543 23.4589H32.4516L30.6304 15.4877H32.3161L33.4271 21.1485L34.7802 15.4877H36.2125L37.5599 21.1595ZM44.5062 23.4589C44.4311 23.3165 44.3766 23.1395 44.3429 22.9279C43.9481 23.3549 43.435 23.5683 42.8037 23.5683C42.2059 23.5683 41.7097 23.4004 41.3151 23.0646C40.9241 22.7288 40.7286 22.3055 40.7286 21.7945C40.7286 21.1668 40.9672 20.685 41.4448 20.3492C41.9259 20.0134 42.6193 19.8437 43.5253 19.84H44.2752V19.5006C44.2752 19.2269 44.202 19.0079 44.0554 18.8436C43.9124 18.6795 43.6851 18.5972 43.3729 18.5972C43.0986 18.5972 42.8826 18.6612 42.7247 18.7889C42.5706 18.9167 42.4934 19.0919 42.4934 19.3145H40.8639C40.8639 18.9714 40.9731 18.6539 41.1909 18.3619C41.409 18.07 41.7172 17.8418 42.1158 17.6775C42.5141 17.5096 42.9614 17.4258 43.4576 17.4258C44.2095 17.4258 44.8052 17.61 45.245 17.9786C45.6885 18.3437 45.9103 18.8582 45.9103 19.5225V22.0902C45.9141 22.652 45.9948 23.0774 46.1529 23.3656V23.4589H44.5062ZM43.1588 22.3583C43.3992 22.3583 43.6211 22.3073 43.8241 22.2052C44.027 22.0993 44.1775 21.9588 44.2752 21.7835V20.7652H43.6663C42.8506 20.7652 42.4165 21.039 42.3638 21.5865L42.3581 21.6795C42.3581 21.8767 42.4294 22.039 42.5725 22.1668C42.7153 22.2945 42.9106 22.3583 43.1588 22.3583ZM48.8816 23.4589H47.2465V15.0497H48.8816V23.4589ZM51.9489 23.4589H50.3137V15.0497H51.9489V23.4589ZM56.1043 23.5683C55.2098 23.5683 54.4805 23.3018 53.9167 22.769C53.3565 22.236 53.0766 21.5263 53.0766 20.6393V20.4861C53.0766 19.8911 53.1949 19.3601 53.4318 18.8929C53.6685 18.4222 54.0031 18.0608 54.4355 17.8089C54.8715 17.5534 55.3677 17.4258 55.9239 17.4258C56.7584 17.4258 57.4143 17.6813 57.8917 18.1922C58.3728 18.7031 58.6133 19.4277 58.6133 20.3657V21.0116H54.7287C54.7811 21.3986 54.939 21.7087 55.2023 21.9423C55.4691 22.1759 55.8055 22.2927 56.2116 22.2927C56.8393 22.2927 57.3299 22.0719 57.6832 21.6303L58.4837 22.5007C58.2394 22.8365 57.9086 23.0993 57.4915 23.289C57.0741 23.4753 56.6118 23.5683 56.1043 23.5683ZM55.9182 18.7068C55.5952 18.7068 55.3319 18.8126 55.1289 19.0243C54.9296 19.236 54.8018 19.5389 54.7456 19.9331H57.0122V19.8072C57.0047 19.4568 56.9068 19.1867 56.7191 18.997C56.5311 18.8035 56.2641 18.7068 55.9182 18.7068ZM61.4947 16.079V17.5352H62.5377V18.6959H61.4947V21.6523C61.4947 21.8712 61.5378 22.028 61.6243 22.1229C61.7107 22.2178 61.8763 22.2653 62.1205 22.2653C62.3008 22.2653 62.4607 22.2525 62.5998 22.2269V23.426C62.2803 23.5208 61.9514 23.5683 61.613 23.5683C60.4703 23.5683 59.8878 23.0081 59.8652 21.8877V18.6959H58.9742V17.5352H59.8652V16.079H61.4947Z" fill="white"/>
<path fill-rule="evenodd" clip-rule="evenodd" d="M0 26L8.24926 4.05527C9.29603 1.4931 11.2476 0.0427897 13.842 0.000932002V0C13.8613 0 13.8807 7.74837e-05 13.8999 0.000232302C13.9192 7.74837e-05 13.9385 0 13.9579 0V0.000932002C16.5523 0.0427897 18.5038 1.4931 19.5506 4.05527L27.7997 26L22.6917 24.2751L15.6448 5.52894C15.2159 4.49207 14.7208 4.11883 13.8999 4.10235C13.0791 4.11883 12.584 4.49207 12.1551 5.52894L5.10823 24.2751L0 26ZM17.4893 17.6439C17.4893 19.5608 15.904 21.1146 13.9483 21.1146C11.9927 21.1146 10.4074 19.5608 10.4074 17.6439C10.4074 15.7271 11.9927 14.1732 13.9483 14.1732C15.904 14.1732 17.4893 15.7271 17.4893 17.6439Z" fill="#888889"/>
<path fill-rule="evenodd" clip-rule="evenodd" d="M0 26L8.24926 4.05527C9.29603 1.4931 11.2476 0.0427897 13.842 0.000932002V0C13.8613 0 13.8807 7.74837e-05 13.8999 0.000232302C13.9192 7.74837e-05 13.9385 0 13.9579 0V0.000932002C16.5523 0.0427897 18.5038 1.4931 19.5506 4.05527L27.7997 26L22.6917 24.2751L15.6448 5.52894C15.2159 4.49207 14.7208 4.11883 13.8999 4.10235C13.0791 4.11883 12.584 4.49207 12.1551 5.52894L5.10823 24.2751L0 26ZM17.4893 17.6439C17.4893 19.5608 15.904 21.1146 13.9483 21.1146C11.9927 21.1146 10.4074 19.5608 10.4074 17.6439C10.4074 15.7271 11.9927 14.1732 13.9483 14.1732C15.904 14.1732 17.4893 15.7271 17.4893 17.6439Z" fill="url(#paint0_linear_2284_8365)"/>
<mask id="mask0_2284_8365" style="mask-type:alpha" maskUnits="userSpaceOnUse" x="0" y="0" width="28" height="26">
<path fill-rule="evenodd" clip-rule="evenodd" d="M0 26L8.24926 4.05527C9.29603 1.4931 11.2476 0.0427897 13.842 0.000932002V0C13.8613 0 13.8807 7.74837e-05 13.8999 0.000232302C13.9192 7.74837e-05 13.9385 0 13.9579 0V0.000932002C16.5523 0.0427897 18.5038 1.4931 19.5506 4.05527L27.7997 26L22.6917 24.2751L15.6448 5.52894C15.2159 4.49207 14.7208 4.11883 13.8999 4.10235C13.0791 4.11883 12.584 4.49207 12.1551 5.52894L5.10823 24.2751L0 26ZM17.4893 17.6439C17.4893 19.5608 15.904 21.1146 13.9483 21.1146C11.9927 21.1146 10.4074 19.5608 10.4074 17.6439C10.4074 15.7271 11.9927 14.1732 13.9483 14.1732C15.904 14.1732 17.4893 15.7271 17.4893 17.6439Z" fill="white"/>
</mask>
<g mask="url(#mask0_2284_8365)">
</g>
</g>
<defs>
<linearGradient id="paint0_linear_2284_8365" x1="0" y1="0" x2="0" y2="26" gradientUnits="userSpaceOnUse">
<stop stop-color="#42C1FD"/>
<stop offset="1" stop-color="#1F8EFA"/>
</linearGradient>
<clipPath id="clip0_2284_8365">
<rect width="65" height="26" fill="white"/>
</clipPath>
</defs>
</svg>