<svg xmlns:xlink="http://www.w3.org/1999/xlink" xmlns="http://www.w3.org/2000/svg" width="109" height="88" viewBox="0 0 109 88" fill="none">
<circle cx="54.4141" cy="44" r="44" fill="#3778F8"/>
<circle cx="54.4122" cy="43.9999" r="42.5333" fill="#1D3869"/>
<path d="M92.6314 44C92.6314 65.1084 75.5197 82.22 54.4114 82.22C33.3031 82.22 16.1914 65.1084 16.1914 44C16.1914 22.8917 33.3031 5.78003 54.4114 5.78003C75.5197 5.78003 92.6314 22.8917 92.6314 44Z" stroke="#274881"/>
<rect x="54.1914" y="3.22656" width="0.439999" height="0.44" fill="#3777F7"/>
<rect x="54.1914" y="84.3333" width="0.439999" height="0.440002" fill="#3777F7"/>
<rect width="0.440004" height="0.44" transform="matrix(0.99863 -0.0523354 0.0523365 0.99863 52.0586 3.29395)" fill="#3777F7"/>
<rect width="0.440001" height="0.440058" transform="matrix(0.998629 -0.0523428 0.0523291 0.99863 56.3047 84.2896)" fill="#3777F7"/>
<rect x="49.9297" y="3.4729" width="0.439999" height="0.44" transform="rotate(-5.99999 49.9297 3.4729)" fill="#3777F7"/>
<rect width="0.439999" height="0.439972" transform="matrix(0.994523 -0.104522 0.104535 0.994521 58.4102 84.1353)" fill="#3777F7"/>
<rect width="0.439997" height="0.439999" transform="matrix(0.987688 -0.156435 0.156434 0.987688 47.8164 3.76294)" fill="#3777F7"/>
<rect width="0.439974" height="0.440003" transform="matrix(0.987687 -0.156445 0.156424 0.98769 60.5039 83.8711)" fill="#3777F7"/>
<rect width="0.439984" height="0.439999" transform="matrix(0.978146 -0.207919 0.207904 0.978149 45.7188 4.16333)" fill="#3777F7"/>
<rect width="0.440009" height="0.440006" transform="matrix(0.978148 -0.20791 0.207913 0.978147 62.582 83.4976)" fill="#3777F7"/>
<rect width="0.440008" height="0.44" transform="matrix(0.965927 -0.258814 0.258824 0.965924 43.6484 4.67285)" fill="#3777F7"/>
<rect width="0.439987" height="0.439981" transform="matrix(0.965927 -0.258816 0.258822 0.965925 64.6406 83.0159)" fill="#3777F7"/>
<rect width="0.440005" height="0.440001" transform="matrix(0.951058 -0.309013 0.309021 0.951055 41.6055 5.29004)" fill="#3777F7"/>
<rect width="0.440003" height="0.440008" transform="matrix(0.951055 -0.309021 0.309013 0.951058 66.668 82.4272)" fill="#3777F7"/>
<rect width="0.440016" height="0.440003" transform="matrix(0.933585 -0.358355 0.358381 0.933576 39.5938 6.01367)" fill="#3777F7"/>
<rect width="0.440022" height="0.440039" transform="matrix(0.933574 -0.358385 0.358351 0.933587 68.6602 81.7332)" fill="#3777F7"/>
<rect width="0.440003" height="0.440003" transform="matrix(0.913546 -0.406736 0.406737 0.913545 37.6289 6.84106)" fill="#3777F7"/>
<rect x="70.6172" y="80.9358" width="0.440018" height="0.440018" transform="rotate(-24 70.6172 80.9358)" fill="#3777F7"/>
<rect width="0.439992" height="0.439997" transform="matrix(0.891003 -0.453997 0.453983 0.89101 35.707 7.77051)" fill="#3777F7"/>
<rect width="0.440015" height="0.440011" transform="matrix(0.891009 -0.453986 0.453995 0.891004 72.5273 80.0371)" fill="#3777F7"/>
<rect width="0.439996" height="0.439999" transform="matrix(0.866023 -0.500005 0.499995 0.866028 33.8359 8.79907)" fill="#3777F7"/>
<rect width="0.440013" height="0.440004" transform="matrix(0.866034 -0.499986 0.500014 0.866017 74.3906 79.0396)" fill="#3777F7"/>
<rect width="0.439998" height="0.439997" transform="matrix(0.838672 -0.544637 0.544641 0.838669 32.0195 9.92432)" fill="#3777F7"/>
<rect width="0.439975" height="0.439977" transform="matrix(0.838667 -0.544644 0.544634 0.838674 76.1953 77.946)" fill="#3777F7"/>
<rect width="0.440003" height="0.440001" transform="matrix(0.80902 -0.58778 0.58779 0.809013 30.2695 11.1428)" fill="#3777F7"/>
<rect width="0.440009" height="0.439997" transform="matrix(0.809041 -0.587752 0.587819 0.808993 77.9414 76.7595)" fill="#3777F7"/>
<rect width="0.439998" height="0.439999" transform="matrix(0.777143 -0.629324 0.629316 0.777149 28.582 12.4514)" fill="#3777F7"/>
<rect x="79.625" y="75.4832" width="0.439982" height="0.439982" transform="rotate(-39 79.625 75.4832)" fill="#3777F7"/>
<rect width="0.440004" height="0.440004" transform="matrix(0.743148 -0.669127 0.669134 0.743141 26.9648 13.8464)" fill="#3777F7"/>
<rect width="0.440007" height="0.440006" transform="matrix(0.743149 -0.669126 0.669135 0.743141 81.2383 74.1206)" fill="#3777F7"/>
<rect width="0.439999" height="0.439999" transform="matrix(0.707103 -0.707111 0.707103 0.707111 25.4258 15.3245)" fill="#3777F7"/>
<rect width="0.439989" height="0.439989" transform="matrix(0.707089 -0.707124 0.707089 0.707124 82.7773 72.6755)" fill="#3777F7"/>
<rect width="0.439999" height="0.439999" transform="matrix(0.669125 -0.74315 0.74314 0.669136 23.9648 16.8806)" fill="#3777F7"/>
<rect width="0.439995" height="0.439997" transform="matrix(0.669144 -0.743132 0.743157 0.669117 84.2383 71.1516)" fill="#3777F7"/>
<rect width="0.439998" height="0.439997" transform="matrix(0.629316 -0.77715 0.777142 0.629325 22.5859 18.5112)" fill="#3777F7"/>
<rect width="0.440011" height="0.440003" transform="matrix(0.629288 -0.777172 0.777119 0.629353 85.6211 69.5535)" fill="#3777F7"/>
<rect width="0.440005" height="0.440005" transform="matrix(0.587786 -0.809016 0.809018 0.587784 21.2969 20.2119)" fill="#3777F7"/>
<rect width="0.439999" height="0.440013" transform="matrix(0.587823 -0.808989 0.809045 0.587747 86.9141 67.8853)" fill="#3777F7"/>
<rect width="0.43999" height="0.439994" transform="matrix(0.544647 -0.838665 0.838676 0.544631 20.0977 21.9775)" fill="#3777F7"/>
<rect width="0.440006" height="0.440013" transform="matrix(0.544653 -0.838661 0.83868 0.544625 88.1211 66.1516)" fill="#3777F7"/>
<rect width="0.439997" height="0.440002" transform="matrix(0.500008 -0.866021 0.86603 0.499992 18.9922 23.8037)" fill="#3777F7"/>
<rect width="0.439992" height="0.439994" transform="matrix(0.500002 -0.866024 0.866027 0.499998 89.2305 64.3572)" fill="#3777F7"/>
<rect width="0.439991" height="0.439995" transform="matrix(0.453995 -0.891004 0.891009 0.453986 17.9844 25.6853)" fill="#3777F7"/>
<rect width="0.440003" height="0.439975" transform="matrix(0.453951 -0.891027 0.890986 0.45403 90.25 62.5068)" fill="#3777F7"/>
<rect x="17.0742" y="27.6169" width="0.440001" height="0.440001" transform="rotate(-66 17.0742 27.6169)" fill="#3777F7"/>
<rect width="0.440016" height="0.439985" transform="matrix(0.406701 -0.913561 0.91353 0.406772 91.168 60.606)" fill="#3777F7"/>
<rect width="0.440004" height="0.439999" transform="matrix(0.358363 -0.933582 0.933578 0.358373 16.2695 29.5935)" fill="#3777F7"/>
<rect width="0.440012" height="0.439993" transform="matrix(0.358349 -0.933588 0.933573 0.358387 91.9883 58.6594)" fill="#3777F7"/>
<rect width="0.439985" height="0.439998" transform="matrix(0.309028 -0.951053 0.95106 0.309006 15.5664 31.6094)" fill="#3777F7"/>
<rect width="0.439986" height="0.440001" transform="matrix(0.309029 -0.951053 0.95106 0.309005 92.7031 56.6729)" fill="#3777F7"/>
<rect width="0.439997" height="0.440006" transform="matrix(0.258825 -0.965924 0.965927 0.258813 14.9727 33.6594)" fill="#3777F7"/>
<rect width="0.439987" height="0.440027" transform="matrix(0.258845 -0.965919 0.965933 0.258793 93.3164 54.6514)" fill="#3777F7"/>
<rect width="0.439985" height="0.440002" transform="matrix(0.20792 -0.978146 0.978149 0.207903 14.4844 35.7378)" fill="#3777F7"/>
<rect width="0.440009" height="0.440006" transform="matrix(0.20791 -0.978148 0.978147 0.207913 93.8203 52.6008)" fill="#3777F7"/>
<rect width="0.44001" height="0.439997" transform="matrix(0.15643 -0.987689 0.987688 0.156439 14.1094 37.8389)" fill="#3777F7"/>
<rect width="0.44" height="0.43999" transform="matrix(0.156431 -0.987689 0.987688 0.156438 94.2148 50.5266)" fill="#3777F7"/>
<rect x="13.8398" y="39.9568" width="0.440003" height="0.440001" transform="rotate(-84 13.8398 39.9568)" fill="#3777F7"/>
<rect width="0.440003" height="0.440027" transform="matrix(0.104534 -0.994521 0.994522 0.104523 94.5039 48.4346)" fill="#3777F7"/>
<rect x="13.6836" y="42.0857" width="0.440004" height="0.440003" transform="rotate(-87 13.6836 42.0857)" fill="#3777F7"/>
<rect width="0.440008" height="0.44" transform="matrix(0.0523351 -0.99863 0.998629 0.0523368 94.6797 46.3306)" fill="#3777F7"/>
<rect x="13.6406" y="44.22" width="0.440002" height="0.439993" transform="rotate(-90 13.6406 44.22)" fill="#3777F7"/>
<rect x="94.7461" y="44.22" width="0.440002" height="0.440002" transform="rotate(-90 94.7461 44.22)" fill="#3777F7"/>
<rect width="0.439979" height="0.439997" transform="matrix(-0.0523381 -0.998629 0.99863 -0.0523338 13.707 46.3535)" fill="#3777F7"/>
<rect x="94.7031" y="42.1086" width="0.440004" height="0.44" transform="rotate(-93 94.7031 42.1086)" fill="#3777F7"/>
<rect x="13.8867" y="48.4807" width="0.439999" height="0.44" transform="rotate(-96 13.8867 48.4807)" fill="#3777F7"/>
<rect width="0.439999" height="0.439972" transform="matrix(-0.104522 -0.994523 0.994521 -0.104535 94.5508 40.0027)" fill="#3777F7"/>
<rect x="14.1758" y="50.5955" width="0.439997" height="0.439997" transform="rotate(-99 14.1758 50.5955)" fill="#3777F7"/>
<rect width="0.44001" height="0.440004" transform="matrix(-0.156432 -0.987689 0.987688 -0.156437 94.2852 37.9077)" fill="#3777F7"/>
<rect width="0.439985" height="0.440002" transform="matrix(-0.20792 -0.978146 0.978149 -0.207903 14.5781 52.6924)" fill="#3777F7"/>
<rect width="0.439997" height="0.440006" transform="matrix(-0.207916 -0.978147 0.978149 -0.207907 93.9102 35.8293)" fill="#3777F7"/>
<rect width="0.439968" height="0.439999" transform="matrix(-0.258839 -0.96592 0.965931 -0.258799 15.0859 54.7654)" fill="#3777F7"/>
<rect width="0.440004" height="0.439982" transform="matrix(-0.258805 -0.965929 0.965922 -0.258833 93.4297 33.7734)" fill="#3777F7"/>
<rect width="0.439983" height="0.439998" transform="matrix(-0.309029 -0.951053 0.95106 -0.309005 15.7031 56.8088)" fill="#3777F7"/>
<rect width="0.439995" height="0.440002" transform="matrix(-0.309023 -0.951055 0.951058 -0.309011 92.8398 31.7454)" fill="#3777F7"/>
<rect width="0.439996" height="0.439999" transform="matrix(-0.358371 -0.933579 0.933582 -0.358365 16.4258 58.8171)" fill="#3777F7"/>
<rect width="0.440004" height="0.439996" transform="matrix(-0.358361 -0.933583 0.933578 -0.358375 92.1445 29.7512)" fill="#3777F7"/>
<rect width="0.440002" height="0.440006" transform="matrix(-0.406741 -0.913543 0.913547 -0.406732 17.2539 60.7849)" fill="#3777F7"/>
<rect width="0.440012" height="0.440017" transform="matrix(-0.406742 -0.913543 0.913548 -0.406731 91.3477 27.7959)" fill="#3777F7"/>
<rect width="0.439994" height="0.439995" transform="matrix(-0.453993 -0.891005 0.891008 -0.453988 18.1836 62.7065)" fill="#3777F7"/>
<rect width="0.439994" height="0.439972" transform="matrix(-0.45396 -0.891022 0.890991 -0.454021 90.4492 25.8848)" fill="#3777F7"/>
<rect width="0.439995" height="0.440001" transform="matrix(-0.500011 -0.866019 0.866032 -0.499989 19.2109 64.5771)" fill="#3777F7"/>
<rect x="89.4531" y="24.0237" width="0.439995" height="0.439995" transform="rotate(-120 89.4531 24.0237)" fill="#3777F7"/>
<rect width="0.439995" height="0.440003" transform="matrix(-0.544655 -0.83866 0.838681 -0.544623 20.3359 66.3911)" fill="#3777F7"/>
<rect width="0.440004" height="0.440015" transform="matrix(-0.544663 -0.838655 0.838686 -0.544615 88.3594 22.2173)" fill="#3777F7"/>
<rect width="0.440005" height="0.440005" transform="matrix(-0.587784 -0.809018 0.809016 -0.587786 21.5547 68.1438)" fill="#3777F7"/>
<rect width="0.440012" height="0.440017" transform="matrix(-0.587799 -0.809006 0.809027 -0.587771 87.1719 20.4705)" fill="#3777F7"/>
<rect width="0.440004" height="0.440001" transform="matrix(-0.629309 -0.777155 0.777136 -0.629332 22.8633 69.8303)" fill="#3777F7"/>
<rect width="0.440008" height="0.440012" transform="matrix(-0.629338 -0.777132 0.77716 -0.629303 85.8945 18.7883)" fill="#3777F7"/>
<rect width="0.439984" height="0.439988" transform="matrix(-0.669165 -0.743114 0.743175 -0.669096 24.2578 71.446)" fill="#3777F7"/>
<rect width="0.440005" height="0.440006" transform="matrix(-0.669137 -0.743139 0.743151 -0.669124 84.5312 17.175)" fill="#3777F7"/>
<rect width="0.440009" height="0.440009" transform="matrix(-0.707105 -0.707109 0.707105 -0.707109 25.7344 72.9866)" fill="#3777F7"/>
<rect width="0.43999" height="0.43999" transform="matrix(-0.707088 -0.707126 0.707088 -0.707126 83.0859 15.6355)" fill="#3777F7"/>
<rect width="0.440005" height="0.440005" transform="matrix(-0.743147 -0.669128 0.669133 -0.743143 27.293 74.4478)" fill="#3777F7"/>
<rect width="0.440003" height="0.440002" transform="matrix(-0.743147 -0.669128 0.669133 -0.743143 81.5625 14.1736)" fill="#3777F7"/>
<rect width="0.43999" height="0.439987" transform="matrix(-0.777154 -0.62931 0.629331 -0.777137 28.9219 75.8252)" fill="#3777F7"/>
<rect width="0.440016" height="0.440011" transform="matrix(-0.777163 -0.629299 0.629342 -0.777128 79.9648 12.7935)" fill="#3777F7"/>
<rect width="0.439996" height="0.439988" transform="matrix(-0.809033 -0.587762 0.587808 -0.809 30.625 77.1155)" fill="#3777F7"/>
<rect width="0.439989" height="0.439994" transform="matrix(-0.809007 -0.587799 0.587771 -0.809027 78.2969 11.4988)" fill="#3777F7"/>
<rect width="0.44001" height="0.440014" transform="matrix(-0.838664 -0.544649 0.544629 -0.838677 32.3906 78.3152)" fill="#3777F7"/>
<rect width="0.440011" height="0.440003" transform="matrix(-0.838683 -0.54462 0.544658 -0.838658 76.5625 10.2935)" fill="#3777F7"/>
<rect width="0.439998" height="0.439999" transform="matrix(-0.866024 -0.500002 0.499998 -0.866027 34.2148 79.4207)" fill="#3777F7"/>
<rect width="0.440009" height="0.440003" transform="matrix(-0.866031 -0.49999 0.500009 -0.86602 74.7695 9.18042)" fill="#3777F7"/>
<rect width="0.439997" height="0.440006" transform="matrix(-0.890999 -0.454004 0.453977 -0.891014 36.0977 80.4292)" fill="#3777F7"/>
<rect width="0.439994" height="0.439998" transform="matrix(-0.891004 -0.453995 0.453986 -0.891009 72.918 8.1626)" fill="#3777F7"/>
<rect width="0.440004" height="0.44002" transform="matrix(-0.913538 -0.406754 0.406719 -0.913553 38.0273 81.3376)" fill="#3777F7"/>
<rect width="0.439981" height="0.439996" transform="matrix(-0.913538 -0.406754 0.406719 -0.913553 71.0195 7.24316)" fill="#3777F7"/>
<rect x="40.0039" y="82.144" width="0.439995" height="0.439995" transform="rotate(-159 40.0039 82.144)" fill="#3777F7"/>
<rect width="0.439996" height="0.44" transform="matrix(-0.933579 -0.358372 0.358364 -0.933582 69.0703 6.42432)" fill="#3777F7"/>
<rect width="0.440025" height="0.440005" transform="matrix(-0.951061 -0.309002 0.309032 -0.951051 42.0234 82.8457)" fill="#3777F7"/>
<rect width="0.439991" height="0.439997" transform="matrix(-0.951055 -0.309021 0.309013 -0.951058 67.0859 5.70874)" fill="#3777F7"/>
<rect width="0.439984" height="0.439981" transform="matrix(-0.965926 -0.258817 0.258821 -0.965925 44.0703 83.4409)" fill="#3777F7"/>
<rect width="0.439959" height="0.439997" transform="matrix(-0.965919 -0.258843 0.258795 -0.965932 65.0625 5.0979)" fill="#3777F7"/>
<rect width="0.440009" height="0.440006" transform="matrix(-0.978148 -0.20791 0.207913 -0.978147 46.1484 83.928)" fill="#3777F7"/>
<rect width="0.439984" height="0.439998" transform="matrix(-0.978146 -0.207918 0.207905 -0.978149 63.0117 4.59351)" fill="#3777F7"/>
<rect width="0.439993" height="0.43999" transform="matrix(-0.987688 -0.156433 0.156436 -0.987688 48.25 84.3057)" fill="#3777F7"/>
<rect width="0.439974" height="0.439999" transform="matrix(-0.987687 -0.156443 0.156425 -0.98769 60.9375 4.19751)" fill="#3777F7"/>
<rect width="0.440003" height="0.440027" transform="matrix(-0.994521 -0.104534 0.104523 -0.994522 50.3672 84.5728)" fill="#3777F7"/>
<rect width="0.440003" height="0.44" transform="matrix(-0.994522 -0.104528 0.104529 -0.994522 58.8477 3.9104)" fill="#3777F7"/>
<rect x="52.4961" y="84.7288" width="0.440004" height="0.44" transform="rotate(-177 52.4961 84.7288)" fill="#3777F7"/>
<rect width="0.440008" height="0.44" transform="matrix(-0.99863 -0.052335 0.0523369 -0.998629 56.7422 3.73315)" fill="#3777F7"/>
<path d="M35.9527 18.8466C36.1301 19.3911 36.3218 19.9852 36.3786 20.1667C36.4354 20.3482 36.5739 20.7855 36.6864 21.1385L36.8909 21.7805L36.9927 21.5052C37.0486 21.3538 37.1121 21.164 37.1336 21.0833C37.1551 21.0027 37.2189 20.8327 37.2754 20.7056C37.3319 20.5785 37.3781 20.4072 37.3781 20.3249C37.3781 20.2426 37.4083 20.1567 37.4451 20.1339C37.4819 20.1111 37.5343 19.9609 37.5615 19.8C37.5887 19.6391 37.6382 19.4906 37.6715 19.47C37.7048 19.4494 37.7543 19.3009 37.7815 19.14C37.8087 18.9791 37.861 18.8288 37.8978 18.806C37.9346 18.7833 37.965 18.6924 37.9652 18.604C37.9655 18.5156 38.015 18.3488 38.0752 18.2333C38.1355 18.1177 38.1848 17.9775 38.1848 17.9216C38.1848 17.841 38.356 17.82 39.0129 17.82H39.8411L39.9743 18.2416C40.0476 18.4736 40.149 18.7788 40.1998 18.92C40.2505 19.0611 40.3508 19.3746 40.4226 19.6167C40.731 20.6559 40.7748 20.7957 40.8258 20.9024C40.8553 20.9642 40.9044 21.1292 40.9349 21.2691C40.9965 21.5519 41.1926 21.887 41.1898 21.7047C41.1882 21.5919 42.0429 18.8936 42.1424 18.6976C42.1738 18.6357 42.2244 18.4718 42.2548 18.3333C42.3652 17.8304 42.3864 17.82 43.2991 17.82C43.7532 17.82 44.1248 17.8403 44.1248 17.8652C44.1248 17.9345 43.8917 18.635 43.7822 18.8944C43.7286 19.0215 43.6848 19.1928 43.6848 19.2751C43.6848 19.3573 43.6555 19.4428 43.6197 19.4648C43.584 19.4869 43.5323 19.6249 43.5048 19.7715C43.4773 19.9181 43.4258 20.0917 43.3903 20.1573C43.3549 20.223 43.2564 20.5242 43.1715 20.8267C43.0865 21.1292 42.9881 21.4303 42.9526 21.496C42.9171 21.5616 42.8657 21.7352 42.8382 21.8818C42.8107 22.0284 42.7589 22.1664 42.7232 22.1885C42.6874 22.2105 42.6581 22.2916 42.6581 22.3685C42.6581 22.4454 42.6117 22.6167 42.5549 22.7492C42.4982 22.8816 42.3753 23.2458 42.282 23.5583L42.1122 24.1267H41.1468H40.1813L40.0183 23.595C39.9287 23.3025 39.8302 23.0127 39.7994 22.9509C39.7686 22.8891 39.7189 22.7241 39.689 22.5842C39.659 22.4444 39.6097 22.297 39.5792 22.2567C39.5488 22.2163 39.5008 22.0555 39.4727 21.8993C39.4445 21.7431 39.3919 21.5616 39.3559 21.496C39.3198 21.4303 39.2328 21.1721 39.1624 20.9219C39.0211 20.4198 38.8992 20.4035 38.8108 20.875C38.7836 21.0197 38.7326 21.1917 38.6973 21.2573C38.6409 21.3624 38.4878 21.8187 38.0669 23.1367C38.0025 23.3383 37.8992 23.6436 37.8373 23.815L37.7248 24.1267H36.7992C35.7751 24.1267 35.7667 24.1229 35.6548 23.6133C35.6244 23.4748 35.5738 23.3109 35.5424 23.2491C35.5111 23.1873 35.2812 22.4932 35.0317 21.7067C34.7822 20.9202 34.5345 20.1612 34.4813 20.02C34.4281 19.8788 34.2798 19.4168 34.1517 18.9933C34.0236 18.5698 33.8908 18.1523 33.8567 18.0656C33.8226 17.9789 33.8154 17.8872 33.8407 17.8619C33.8661 17.8365 34.2791 17.8249 34.7585 17.8362L35.6301 17.8566L35.9527 18.8466Z" fill="#F3F8FE"/>
<path d="M50.3948 18.5166V19.1766L48.8365 19.1964L47.2781 19.2163V19.7648V20.3133H48.6743H50.0705L50.0493 20.955L50.0281 21.5967L48.6531 21.6166L47.2781 21.6365V22.1849V22.7333H48.8915H50.5048V23.43V24.1267H47.9748H45.4448V20.9724V17.818L47.9198 17.8374L50.3948 17.8566V18.5166Z" fill="#F3F8FE"/>
<path d="M59.9828 17.9048C60.53 18.0934 60.9522 18.3437 61.2371 18.6482L61.4459 18.8715L60.9206 19.3725C60.6317 19.6479 60.3774 19.8733 60.3556 19.8733C60.3338 19.8733 60.1956 19.7825 60.0487 19.6717C59.603 19.3353 59.4414 19.2689 58.9788 19.2322C58.3929 19.1857 57.9677 19.3095 57.6129 19.6301C57.1944 20.0082 57.0681 20.3196 57.0681 20.9733C57.0681 21.9531 57.4975 22.5145 58.3881 22.6994C58.7706 22.7789 59.4813 22.7064 59.6508 22.5707C59.7089 22.5242 59.7474 22.2136 59.7608 21.6813L59.7815 20.8633H60.5515H61.3215V22.1779V23.4925L60.9181 23.6921C59.5769 24.3557 58.4685 24.4394 57.1781 23.9746C56.6116 23.7705 56.0146 23.2483 55.622 22.6133C54.9223 21.482 55.1298 19.7186 56.0733 18.7775C56.8629 17.9899 57.4623 17.7554 58.6995 17.7502C59.3599 17.7474 59.6156 17.7782 59.9828 17.9048Z" fill="#F3F8FE"/>
<path fill-rule="evenodd" clip-rule="evenodd" d="M67.5548 17.8677C67.6355 17.9103 67.8335 18.0065 67.9948 18.0815C68.3016 18.2242 68.807 18.582 68.9702 18.7722C69.5324 19.4269 69.7915 20.134 69.7915 21.0139C69.7915 21.6125 69.6261 22.3628 69.4798 22.4277C69.4495 22.4412 69.4248 22.486 69.4248 22.5272C69.4248 22.6364 68.9992 23.1724 68.6961 23.445C68.1737 23.9149 67.1562 24.2733 66.3448 24.2733C65.7798 24.2733 64.6201 23.9713 64.4211 23.7723C64.374 23.7252 64.3072 23.6867 64.2725 23.6867C64.1523 23.6867 63.5526 23.0702 63.3139 22.7011C62.6864 21.7315 62.6572 20.4934 63.2348 19.36C63.5462 18.7489 64.3133 18.1543 65.1715 17.8588C65.5518 17.7279 67.3021 17.7345 67.5548 17.8677ZM64.6885 20.5867C64.7712 20.0351 65.2611 19.4484 65.7869 19.2713C65.8719 19.2427 66.1571 19.2294 66.4206 19.242C67.0035 19.2697 67.4182 19.5011 67.7174 19.9656C67.9995 20.4036 68.0471 21.2995 67.8151 21.8086C67.6658 22.1363 67.4288 22.44 67.3223 22.44C67.2952 22.44 67.2209 22.4856 67.1573 22.5414C67.0935 22.5972 66.86 22.6725 66.6381 22.7088C65.3582 22.9177 64.4819 21.9639 64.6885 20.5867Z" fill="#F3F8FE"/>
<path d="M76.3915 18.5533V19.2866H75.4381H74.4848V21.7067V24.1267H73.5681H72.6515V21.7089V19.291L71.7165 19.2705L70.7815 19.25L70.76 18.6328C70.7482 18.2934 70.7554 17.9716 70.776 17.9178C70.8064 17.8386 71.3458 17.82 73.6025 17.82H76.3915V18.5533Z" fill="#F3F8FE"/>
<path fill-rule="evenodd" clip-rule="evenodd" d="M30.9981 28.9519C31.7856 29.2054 32.2749 29.5989 32.548 30.1983C32.7556 30.654 32.7495 31.6191 32.5363 32.0874C32.3887 32.4115 31.7946 33.0733 31.6514 33.0733C31.5467 33.0733 31.5736 33.2716 31.6948 33.3928C31.7553 33.4533 31.8048 33.5252 31.8048 33.5526C31.8048 33.5798 31.9038 33.7272 32.0248 33.88C32.1458 34.0327 32.2448 34.1915 32.2448 34.2328C32.2448 34.274 32.2715 34.3187 32.304 34.3322C32.3708 34.3597 32.8315 35.019 32.8315 35.087C32.8315 35.1112 32.3978 35.1217 31.8676 35.1105C30.9914 35.0918 30.8965 35.0766 30.8226 34.9433C30.778 34.8627 30.725 34.7802 30.7048 34.76C30.5944 34.6496 30.3381 34.2417 30.3381 34.1763C30.3381 34.1343 30.3134 34.0999 30.2831 34.0998C30.2528 34.0998 30.1343 33.9513 30.0197 33.7698L29.8113 33.44H29.3414H28.8715V34.2856V35.1312L27.9731 35.1106L27.0748 35.09L27.0557 32.0467C27.0451 30.3729 27.0523 28.9621 27.0716 28.9117C27.0985 28.8418 27.522 28.8203 28.8509 28.8211C30.3164 28.822 30.6592 28.8429 30.9981 28.9519ZM28.8715 32.0655V31.176V30.2867H29.6362C30.2182 30.2867 30.4273 30.3129 30.511 30.3967C30.5715 30.4572 30.651 30.5067 30.6879 30.5067C30.805 30.5067 30.9461 31.0671 30.8959 31.3341C30.8696 31.4742 30.7625 31.6812 30.6577 31.7942C30.4763 31.9901 30.4298 32.0013 29.6694 32.0326L28.8715 32.0655Z" fill="#F3F8FE"/>
<path d="M39.3426 29.4983L39.3215 30.1767L37.7631 30.1965L36.2048 30.2163V30.7265V31.2368L37.5798 31.2567L38.9548 31.2767V31.9367V32.5967L37.5798 32.6166L36.2048 32.6366V33.1849V33.7333H37.8181H39.4315V34.4309V35.1286L36.9198 35.1093L34.4081 35.09L34.389 31.955L34.3699 28.82H36.8668H39.3636L39.3426 29.4983Z" fill="#F3F8FE"/>
<path d="M42.2915 28.8941C42.2915 28.9349 42.3547 29.1081 42.432 29.2791C42.7378 29.9553 42.8781 30.3098 42.8781 30.406C42.8781 30.4613 42.9034 30.5067 42.9342 30.5067C42.9651 30.5067 43.0513 30.6799 43.1256 30.8917C43.2001 31.1034 43.3251 31.4252 43.4036 31.6067C43.4819 31.7882 43.5726 32.0027 43.605 32.0833C43.7758 32.509 43.9762 32.8742 43.9771 32.7617C43.9777 32.6911 44.0075 32.6333 44.0435 32.6333C44.0795 32.6333 44.1314 32.5436 44.1589 32.434C44.1864 32.3244 44.2843 32.0687 44.3765 31.8657C44.4686 31.6628 44.7008 31.1172 44.8926 30.6533C45.2601 29.764 45.3973 29.4476 45.5839 29.0583L45.6982 28.82H46.5614C47.0363 28.82 47.4248 28.8415 47.4248 28.8679C47.4248 28.9194 47.0983 29.6537 46.9819 29.864C46.9431 29.934 46.9115 30.0247 46.9115 30.0655C46.9115 30.1063 46.8171 30.3459 46.7017 30.5981C46.5864 30.8503 46.4179 31.2382 46.3274 31.46C46.2369 31.6818 46.1333 31.8947 46.0972 31.933C46.061 31.9713 46.0315 32.0433 46.0315 32.0929C46.0315 32.1425 45.9303 32.4081 45.8068 32.6832C45.4813 33.4077 45.302 33.8226 45.0834 34.3567C45.0504 34.4373 44.9615 34.6432 44.8858 34.8142L44.7481 35.125L43.8954 35.1259L43.8288 35.1259C43.3238 35.1266 43.1191 35.1268 42.9958 35.0268C42.9118 34.9586 42.8656 34.8437 42.7878 34.6506L42.7728 34.6133C42.6311 34.2622 42.556 34.0888 42.2587 33.4262C42.1557 33.1967 42.0715 32.9859 42.0715 32.9575C42.0715 32.9292 42.001 32.754 41.9148 32.5681C41.8287 32.3821 41.7315 32.164 41.6989 32.0833C41.6033 31.8472 41.3359 31.2217 41.2285 30.9833C41.0343 30.552 40.3115 28.8645 40.3115 28.8424C40.3115 28.8301 40.757 28.82 41.3015 28.82C41.9197 28.82 42.2915 28.8479 42.2915 28.8941Z" fill="#F3F8FE"/>
<path d="M50.2848 31.9733V35.1267H49.4048H48.5248V31.9733V28.82H49.4048H50.2848V31.9733Z" fill="#F3F8FE"/>
<path d="M57.2359 29.4983L57.2148 30.1767L55.6565 30.1965L54.0981 30.2163V30.7264V31.2367L55.4365 31.2566L56.7748 31.2767V31.9367V32.5967L55.4365 32.6167L54.0981 32.6366V33.185V33.7333H55.7115H57.3248V34.43V35.1267H54.7948H52.2648V31.9733V28.82H54.7609H57.257L57.2359 29.4983Z" fill="#F3F8FE"/>
<path d="M60.3967 29.1867C60.4528 29.3682 60.5392 29.6322 60.5889 29.7733C60.6792 30.0301 60.7865 30.3772 61.0308 31.2033C61.1023 31.4453 61.2052 31.7473 61.2595 31.8744C61.3138 32.0015 61.3581 32.1545 61.3581 32.2144C61.3581 32.2742 61.4011 32.4061 61.4536 32.5073L61.5491 32.6913L61.6328 32.4974C61.6789 32.3906 61.7395 32.2043 61.7675 32.0833C61.7955 31.9623 61.8438 31.8303 61.875 31.79C61.9061 31.7497 61.9548 31.5926 61.9832 31.4409C62.0115 31.2891 62.064 31.1469 62.0997 31.1249C62.1355 31.1028 62.1648 31.0174 62.1648 30.9351C62.1648 30.8528 62.2092 30.6815 62.2635 30.5544C62.3178 30.4273 62.4714 29.985 62.6049 29.5717L62.8477 28.82H63.6681H64.4885L64.729 29.5717C64.8613 29.985 64.9943 30.3739 65.0245 30.4357C65.0547 30.4976 65.1021 30.6626 65.1297 30.8024C65.1574 30.9423 65.2078 31.1227 65.2416 31.2033C65.3622 31.4903 65.6115 32.3155 65.6115 32.4278C65.6115 32.4906 65.661 32.5831 65.7215 32.6333C65.8116 32.7081 65.8315 32.703 65.8315 32.6047C65.8315 32.5387 65.862 32.4273 65.8994 32.3573C65.9368 32.2873 66.121 31.735 66.3088 31.13C66.4966 30.525 66.697 29.9216 66.7541 29.7892C66.8113 29.6567 66.8581 29.5011 66.8581 29.4433C66.8581 29.3855 66.9137 29.2217 66.9817 29.0791L67.1053 28.82H67.935C68.3914 28.82 68.7649 28.8447 68.7651 28.875C68.7652 28.9053 68.6695 29.2105 68.5525 29.5533C68.4355 29.8962 68.1357 30.8202 67.8865 31.6067C67.6371 32.3932 67.4051 33.0903 67.3707 33.156C67.3363 33.2216 67.2857 33.3952 67.2582 33.5418C67.2307 33.6884 67.1789 33.8264 67.1432 33.8485C67.1074 33.8705 67.0781 33.956 67.0781 34.0382C67.0781 34.1205 67.0335 34.2918 66.9791 34.4189C66.9246 34.546 66.8495 34.749 66.8124 34.87L66.7448 35.09L65.7768 35.1105L64.8087 35.1309L64.7631 34.9271C64.7381 34.815 64.6713 34.6193 64.6146 34.4923C64.5579 34.3652 64.5115 34.1939 64.5115 34.1116C64.5115 34.0293 64.4813 33.9434 64.4445 33.9206C64.4077 33.8978 64.3541 33.7404 64.3254 33.5707C64.2968 33.4011 64.2467 33.2116 64.2142 33.1494C64.1818 33.0874 64.0832 32.7892 63.9953 32.4867C63.9073 32.1842 63.806 31.8794 63.7701 31.8094C63.7342 31.7393 63.7048 31.6082 63.7048 31.518C63.7048 31.3576 63.7026 31.3573 63.6042 31.4986C63.5488 31.5782 63.479 31.7588 63.449 31.9C63.4191 32.0412 63.3691 32.1897 63.3381 32.23C63.3071 32.2703 63.2576 32.4188 63.2281 32.56C63.1986 32.7012 63.1491 32.8497 63.1181 32.89C63.0871 32.9303 63.0372 33.0777 63.0072 33.2176C62.9773 33.3574 62.9258 33.5224 62.8927 33.5842C62.8596 33.6461 62.7784 33.8782 62.7122 34.1C62.6459 34.3218 62.5406 34.6436 62.4783 34.815L62.3648 35.1267H61.4276H60.4902L60.3767 34.815C60.3142 34.6436 60.1604 34.1733 60.0349 33.77C59.9093 33.3667 59.7804 32.9861 59.7483 32.9242C59.7163 32.8624 59.6652 32.6985 59.6348 32.56C59.6044 32.4215 59.5547 32.2576 59.5244 32.1957C59.4722 32.0892 58.8965 30.3034 58.6607 29.5167C58.6002 29.315 58.5225 29.0927 58.4878 29.0227C58.4532 28.9526 58.4248 28.8774 58.4248 28.8555C58.4248 28.8336 58.8455 28.8248 59.3598 28.8361L60.2948 28.8567L60.3967 29.1867Z" fill="#F3F8FE"/>
<path d="M75.0559 29.4983L75.0348 30.1767L73.4765 30.1965L71.9181 30.2163V30.7265V31.2368L73.2931 31.2567L74.6681 31.2767V31.9367V32.5967L73.2931 32.6166L71.9181 32.6366V33.1849V33.7333H73.5315H75.1448V34.4309V35.1286L72.6331 35.1093L70.1215 35.09L70.1023 31.955L70.0833 28.82H72.5801H75.077L75.0559 29.4983Z" fill="#F3F8FE"/>
<path fill-rule="evenodd" clip-rule="evenodd" d="M80.9317 28.9405C82.1634 29.3026 82.9341 30.0114 83.2275 31.0519C83.3355 31.4345 83.3361 32.5105 83.2285 32.89C83.0171 33.6362 82.421 34.3441 81.7207 34.6806C80.9075 35.0712 80.518 35.1267 78.5855 35.1267H76.8315V31.9733V28.82H78.6767C80.173 28.82 80.5994 28.8428 80.9317 28.9405ZM78.6648 33.66V31.9733V30.2867H79.5022C80.3931 30.2867 80.5787 30.3397 81.0255 30.7215C81.3241 30.9769 81.4599 31.2845 81.5052 31.8082C81.5706 32.5635 81.1538 33.3463 80.6143 33.4816C80.5093 33.508 80.4053 33.5589 80.3831 33.5948C80.3609 33.6307 79.9653 33.66 79.5038 33.66H78.6648Z" fill="#F3F8FE"/>
<path fill-rule="evenodd" clip-rule="evenodd" d="M52.9981 40.6204V41.2007L53.3682 41.0444C53.7331 40.8902 53.7436 40.8899 54.1143 41.0216C54.7204 41.2368 54.9769 41.5702 54.9776 42.1436C54.9783 42.7208 54.7801 43.0889 54.3475 43.3133C54.0798 43.4522 53.4027 43.4416 53.1789 43.2949C53.0125 43.1859 52.9981 43.1859 52.9981 43.2949C52.9981 43.3842 52.9259 43.4133 52.7048 43.4133H52.4115V41.7267V40.04H52.7048H52.9981V40.6204ZM53.0884 42.5333C52.9601 42.2862 53.0368 41.8106 53.2321 41.6412C53.4439 41.4575 53.9507 41.4618 54.1667 41.6491C54.5524 41.9837 54.3948 42.7335 53.9074 42.8831C53.6093 42.9746 53.2342 42.8144 53.0884 42.5333Z" fill="#F3F8FE"/>
<path d="M55.9135 41.085C55.9538 41.1354 56.0113 41.2592 56.0412 41.36C56.0712 41.4608 56.1689 41.7083 56.2585 41.91C56.3479 42.1117 56.4639 42.3757 56.5161 42.4967L56.611 42.7167L56.7662 42.3776C56.8516 42.1911 56.9666 41.9271 57.0217 41.7909L57.0247 41.7834C57.2444 41.241 57.3125 41.0728 57.4317 41.02C57.4852 40.9963 57.5491 40.9959 57.6417 40.9952L57.6443 40.9952C57.8862 40.9936 57.9192 41.0119 57.8718 41.1217C57.8414 41.1922 57.7803 41.3572 57.736 41.4883C57.6917 41.6195 57.6307 41.7267 57.6002 41.7267C57.5697 41.7267 57.5448 41.7615 57.5448 41.804C57.5448 41.8711 57.453 42.0996 57.1781 42.7167C57.1422 42.7973 57.043 43.0283 56.9577 43.23C56.6866 43.8706 56.5726 44.0529 56.3665 44.1746C56.0964 44.3342 55.5503 44.329 55.3541 44.165C55.2033 44.039 55.203 44.0334 55.3373 43.8592C55.4641 43.6948 55.4912 43.6888 55.7047 43.7772C55.9065 43.8607 55.953 43.8566 56.0781 43.7433C56.3043 43.5387 56.32 43.3649 56.146 42.9914C56.0569 42.8 55.9425 42.5443 55.8918 42.4233C55.8411 42.3023 55.7153 42.0218 55.6124 41.8C55.5094 41.5782 55.4035 41.3059 55.377 41.195C55.3315 41.0043 55.3429 40.9933 55.5845 40.9933C55.7251 40.9933 55.8732 41.0346 55.9135 41.085Z" fill="#F3F8FE"/>
<path d="M49.4815 71.4284C50.1903 71.79 50.5078 72.4522 50.3429 73.2251C50.2409 73.7036 50.1482 73.837 49.3759 74.6167L48.7222 75.2767L49.6135 75.2973L50.5048 75.3179V75.939V76.56H48.4881H46.4715V76.1257C46.4715 76.1019 46.4713 76.0795 46.4712 76.0581C46.4705 75.9509 46.4701 75.8725 46.4879 75.7984C46.5365 75.5968 46.7211 75.4279 47.4084 74.7989L47.4183 74.7899L47.5047 74.7108L47.5674 74.6533C47.9416 74.3105 48.3264 73.9576 48.4226 73.8689C49.0571 73.2838 49.1399 72.609 48.592 72.4887C48.207 72.4041 47.7675 72.5114 47.5005 72.7553L47.2555 72.979L46.9347 72.7528C46.7582 72.6285 46.5869 72.5267 46.554 72.5267C46.5211 72.5267 46.4369 72.4634 46.3669 72.386C46.2446 72.2509 46.2515 72.2333 46.5406 71.9442C46.8538 71.631 47.4487 71.3119 47.8281 71.2535C48.2746 71.1849 49.195 71.2822 49.4815 71.4284Z" fill="#F3F8FE"/>
<path fill-rule="evenodd" clip-rule="evenodd" d="M54.3779 71.4222C54.783 71.6326 55.0927 71.9516 55.3549 72.4285C55.5757 72.8302 55.5923 72.9121 55.623 73.7538C55.649 74.4654 55.63 74.731 55.5311 75.0372C55.3893 75.4768 54.9869 76.1153 54.8498 76.1181C54.7994 76.1191 54.7581 76.1469 54.7581 76.1799C54.7581 76.2128 54.6178 76.32 54.4465 76.4181C54.1753 76.5733 54.0442 76.5962 53.4381 76.5944C52.8054 76.5925 52.7052 76.5723 52.3461 76.3745C51.5508 75.9364 51.1648 75.1376 51.1648 73.93C51.1648 73.1946 51.2374 72.8641 51.5131 72.3433C51.765 71.8679 52.4442 71.3429 52.9248 71.2524C53.2821 71.1851 54.1069 71.2815 54.3779 71.4222ZM52.7734 72.8266C52.8666 72.6957 53.0131 72.5586 53.0989 72.5218C53.3384 72.4194 53.7712 72.4931 53.944 72.6659C54.0392 72.7611 54.146 73.0337 54.22 73.3706C54.3322 73.8813 54.3322 73.959 54.2191 74.4734C54.089 75.0659 53.9756 75.2344 53.6093 75.3803C53.4141 75.458 53.3378 75.4541 53.1306 75.3558C52.7126 75.1574 52.5964 74.835 52.6004 73.8851C52.6036 73.1485 52.6213 73.0403 52.7734 72.8266Z" fill="#F3F8FE"/>
<path d="M59.3309 71.4846C59.5284 71.5921 59.7427 71.7633 59.8073 71.8651C59.8719 71.9668 59.9585 72.0736 59.9998 72.1024C60.0418 72.1318 60.0748 72.4547 60.0748 72.8358C60.0748 73.6554 60.0566 73.6897 59.1316 74.6167L58.4729 75.2767L59.3444 75.2975C59.9286 75.3114 60.2345 75.3477 60.2725 75.4075C60.3037 75.4566 60.3297 75.736 60.3304 76.0283L60.3315 76.56H58.3148H56.2981L56.3043 76.065L56.3105 75.57L57.1541 74.8C58.3654 73.6943 58.503 73.5497 58.6493 73.2275C58.7652 72.9723 58.7685 72.9151 58.6773 72.7387C58.4817 72.3604 57.6816 72.3646 57.264 72.746L57.0293 72.9604L56.7554 72.8009C56.6047 72.7132 56.4705 72.6157 56.457 72.5841C56.4435 72.5525 56.4009 72.5267 56.3623 72.5267C56.3236 72.5267 56.2244 72.4637 56.1417 72.3867L55.9914 72.2467L56.2989 71.9393C56.837 71.4012 57.4874 71.191 58.4233 71.2529C58.8302 71.2798 59.0645 71.3396 59.3309 71.4846Z" fill="#F3F8FE"/>
<path d="M63.0448 73.92V76.56H62.3848H61.7248V74.5433V72.5267H61.2115H60.6981V71.9033V71.28H61.8715H63.0448V73.92Z" fill="#F3F8FE"/>
<path fill-rule="evenodd" clip-rule="evenodd" d="M9.16667 48.1066V60.6466V65.0466H99.66V60.72V48.1066H92.5467H16.3533H9.16667Z" fill="white"/>
<path d="M16.3546 43.6333L9.16797 48.1066H16.3546V43.6333Z" fill="#D0DCF0"/>
<path d="M99.6613 48.1066L92.548 43.6333V48.1066H99.6613Z" fill="#D0DCF0"/>
<path d="M92.5467 43.6333L99.66 48.1066V60.72H108.9L105.967 52.14L108.9 43.6333H92.5467Z" fill="#EDF2F8"/>
<path d="M16.3533 43.6333H0L2.93333 52.14L0 60.6466H9.16667V48.1066L16.3533 43.6333Z" fill="#EDF2F8"/>
<path fill-rule="evenodd" clip-rule="evenodd" d="M21.3601 52.2281C21.4517 52.383 21.934 52.979 22.0135 53.0358C22.0601 53.069 22.1003 54.5415 22.1235 57.0691L22.1602 61.0501H24.9102C27.3401 61.0501 27.7008 61.0353 28.0087 60.9226C28.8753 60.6055 29.3183 60.138 29.5953 59.2482C29.7639 58.7071 29.6379 58.0044 29.266 57.4104C29.0803 57.1137 28.5079 56.6147 28.3493 56.6111C28.293 56.6099 28.1828 56.5604 28.1045 56.5011C27.9777 56.4053 27.9761 56.3935 28.0888 56.3935C28.3278 56.3935 29.0902 55.7983 29.0902 55.6117C29.0902 55.5577 29.1206 55.5135 29.1576 55.5135C29.2286 55.5135 29.3707 55.012 29.4356 54.5323C29.5001 54.0557 29.2267 53.3193 28.8335 52.9108C28.5312 52.5966 28.1783 52.3601 28.0119 52.3601C27.9354 52.3601 27.8317 52.3189 27.7813 52.2685C27.6442 52.1313 21.2791 52.0913 21.3601 52.2281ZM27.5499 54.736C27.5503 54.4647 27.2872 54.0484 27.0347 53.9206C26.9087 53.8569 26.4232 53.8286 25.4397 53.8279L24.0258 53.8268L24.0463 54.7618L24.0669 55.6968L25.3682 55.7168C26.5609 55.7351 26.6942 55.7242 26.966 55.5855C27.3098 55.4101 27.5496 55.0614 27.5499 54.736ZM27.6276 58.0647C27.5168 57.6949 27.3291 57.5289 26.8585 57.3845C26.4862 57.2702 24.1827 57.2187 24.0791 57.3224C24.0522 57.3492 24.0302 57.8296 24.0302 58.3898V59.4083L25.5519 59.3859C26.9872 59.3647 27.0865 59.3542 27.3017 59.2007C27.6136 58.9782 27.7543 58.4876 27.6276 58.0647Z" fill="#1C293E"/>
<path d="M30.7769 56.5689C30.7769 60.5398 30.7889 61.0024 30.8929 61.0423C30.9567 61.0668 32.3922 61.0868 34.0829 61.0868H37.1569V60.2434V59.4001H34.9202H32.6835V58.4248C32.6835 57.764 32.7119 57.4211 32.7715 57.3615C32.8351 57.2979 33.3452 57.2735 34.6049 57.2735H36.3502V56.5047V55.736L34.5352 55.7164L32.7202 55.6968L32.6997 54.7618L32.6791 53.8268H34.918H37.1569V52.9835V52.1401H33.9669H30.7769V56.5689Z" fill="#1C293E"/>
<path d="M37.9048 52.2685C37.9656 52.339 38.1687 52.5878 38.3562 52.8213L38.6969 53.2459V57.1685V61.0912L39.6319 61.0706L40.5669 61.0501L40.5861 58.2085C40.5967 56.6456 40.621 55.3668 40.6402 55.3668C40.7221 55.3668 40.9702 55.6272 40.9702 55.7131C40.9702 55.7646 40.9961 55.8068 41.0277 55.8068C41.0594 55.8068 41.1431 55.9046 41.2136 56.0242C41.2842 56.1437 41.3844 56.2839 41.4362 56.3358C41.488 56.3877 41.657 56.6116 41.8118 56.8335C41.9666 57.0553 42.115 57.2533 42.1416 57.2735C42.1682 57.2936 42.3017 57.4751 42.4382 57.6768C42.5748 57.8785 42.7211 58.0806 42.7634 58.1261C42.8057 58.1716 42.8897 58.2827 42.9502 58.3729C43.0505 58.5226 43.2634 58.8121 43.4091 58.9968C43.4409 59.0371 43.7194 59.4166 44.0281 59.8401C44.3367 60.2636 44.6089 60.6266 44.6331 60.6468C44.6572 60.6669 44.7347 60.7742 44.8053 60.8851C44.9334 61.0866 44.9345 61.0868 45.8041 61.0868C46.5301 61.0868 46.6819 61.0676 46.719 60.9708C46.7435 60.907 46.7636 58.894 46.7636 56.4974V52.1401H45.779H44.7945L44.7921 54.8626C44.7909 56.3599 44.7765 57.5983 44.7602 57.6146C44.7233 57.6516 43.9036 56.5549 43.9036 56.4686C43.9036 56.434 43.8753 56.3947 43.8409 56.3812C43.8063 56.3678 43.2777 55.6803 42.6661 54.8535C42.0544 54.0266 41.5028 53.2841 41.4401 53.2035C41.3775 53.1228 41.1739 52.8506 40.9874 52.5985L40.6486 52.1401H39.2214C37.8689 52.1401 37.7999 52.1469 37.9048 52.2685Z" fill="#1C293E"/>
<path d="M47.8795 52.9651L47.9002 53.7901L49.9805 53.8268L52.0606 53.8635L51.1721 55.0561C50.6834 55.712 50.2836 56.2785 50.2836 56.3149C50.2836 56.3514 50.2528 56.3922 50.2154 56.4057C50.1778 56.4191 49.9307 56.7271 49.6661 57.0901C49.4015 57.4531 49.1105 57.8457 49.0193 57.9624C48.9281 58.0792 48.7711 58.2937 48.6702 58.4391C48.5694 58.5845 48.4622 58.7144 48.4319 58.7279C48.4016 58.7414 48.3769 58.7991 48.3769 58.8562C48.3769 58.9133 48.3453 58.9601 48.3066 58.9601C48.268 58.9601 48.1513 59.1054 48.0473 59.2829C47.8732 59.5798 47.8597 59.6636 47.8792 60.3279L47.9002 61.0501L51.2321 61.0692C53.8489 61.0842 54.5766 61.0684 54.6226 60.9958C54.6549 60.945 54.6818 60.5652 54.6825 60.1518L54.6836 59.4001H52.516H50.3486L50.4785 59.1801C50.55 59.0591 50.6344 58.9601 50.6661 58.9601C50.6977 58.9601 50.7236 58.9106 50.7236 58.8501C50.7236 58.7896 50.75 58.7401 50.7821 58.7401C50.8143 58.7401 50.9216 58.609 51.0205 58.4488C51.1193 58.2885 51.2195 58.1565 51.243 58.1554C51.2666 58.1543 51.4151 57.9637 51.573 57.7318C51.7309 57.4998 51.9173 57.2469 51.987 57.1696C52.0568 57.0923 52.2052 56.8943 52.3168 56.7296C52.4285 56.5649 52.5396 56.4136 52.5637 56.3935C52.5878 56.3733 53.0582 55.7482 53.6089 55.0044L54.6102 53.652V52.8961V52.1401H51.2345H47.8587L47.8795 52.9651Z" fill="#1C293E"/>
<path d="M56.2236 56.6135V61.0868H57.1769H58.1302V56.6135V52.1401H57.1769H56.2236V56.6135Z" fill="#1C293E"/>
<path d="M59.4605 52.4518C59.594 52.6232 59.7216 52.78 59.7442 52.8001C59.7668 52.8203 59.8584 52.932 59.9477 53.0484L60.1102 53.2599V57.1734V61.0868H61.0636H62.0169V58.2268C62.0169 56.6538 62.0349 55.3668 62.0571 55.3668C62.1278 55.3668 62.4682 55.7634 62.5761 55.9718C62.6336 56.0827 62.7128 56.1735 62.7521 56.1735C62.7914 56.1735 62.8236 56.2202 62.8236 56.2774C62.8236 56.3345 62.8483 56.3922 62.8786 56.4057C62.9088 56.4191 63.0161 56.5491 63.1169 56.6945C63.2177 56.8399 63.3748 57.0544 63.466 57.1712C63.5572 57.2879 63.8482 57.6805 64.1128 58.0435C64.3774 58.4065 64.6245 58.7144 64.662 58.7279C64.6995 58.7414 64.7302 58.784 64.7302 58.8227C64.7302 58.8613 64.7635 58.9328 64.8042 58.9815C64.8449 59.0302 65.1958 59.4991 65.584 60.0234C65.9721 60.5478 66.3266 61.001 66.3717 61.0307C66.513 61.1236 67.9915 61.0962 68.0889 60.9988C68.1554 60.9323 68.1769 59.8385 68.1769 56.5255V52.1401H67.2236H66.2702V54.8901C66.2702 56.4362 66.2418 57.6401 66.2053 57.6401C66.1696 57.6401 65.9147 57.3348 65.6388 56.9618C63.9903 54.7326 62.5731 52.8319 62.536 52.8001C62.5125 52.78 62.398 52.6232 62.2817 52.4518L62.0703 52.1401H60.6441H59.2179L59.4605 52.4518Z" fill="#1C293E"/>
<path d="M73.2369 52.189C72.5974 52.3205 71.8073 52.587 71.6799 52.7145C71.6328 52.7616 71.5643 52.8001 71.5278 52.8001C71.3776 52.8001 70.6555 53.4318 70.2614 53.9079C70.0605 54.1506 69.6576 54.9613 69.5545 55.3301C69.5095 55.4915 69.4594 56.0026 69.4434 56.466C69.41 57.427 69.5039 57.895 69.8849 58.6668C70.1139 59.1305 70.9992 60.1481 71.2511 60.2371C71.3148 60.2597 71.4803 60.3473 71.6189 60.4319C72.4654 60.9487 74.0487 61.186 75.0702 60.9492C75.6267 60.8202 76.4711 60.4934 76.6102 60.3533C76.6304 60.333 76.7789 60.2263 76.9402 60.1161C77.1016 60.0061 77.3409 59.8236 77.4719 59.7108L77.7102 59.5057V57.8396V56.1735H75.6874H73.6646L73.9072 56.4851C74.0406 56.6565 74.1693 56.8133 74.1932 56.8335C74.2171 56.8536 74.3777 57.0585 74.5499 57.2887L74.8632 57.7073L75.3884 57.7287L75.9136 57.7501V58.2921C75.9136 58.7582 75.893 58.8456 75.7669 58.9155C75.6862 58.9602 75.6037 59.0171 75.5836 59.0419C75.5634 59.0667 75.4644 59.1124 75.3636 59.1434C75.2627 59.1745 75.1618 59.2284 75.1393 59.2632C75.063 59.3813 74.2293 59.4891 73.7502 59.4428C72.7776 59.3488 71.8884 58.6892 71.5425 57.8053C71.2012 56.9326 71.2881 55.795 71.7539 55.0368C71.9841 54.6624 72.3577 54.2668 72.4813 54.2668C72.5339 54.2668 72.5769 54.24 72.5769 54.2072C72.5769 54.1744 72.7501 54.0706 72.9619 53.9765C73.2717 53.8388 73.4777 53.8048 74.0156 53.8027C74.5981 53.8005 74.7369 53.8259 75.0935 54.0004C75.3186 54.1105 75.6499 54.3499 75.8298 54.5323L76.1567 54.8639L76.6218 54.6047C76.8776 54.4622 77.1942 54.2911 77.3252 54.2245C77.4563 54.1579 77.5636 54.0658 77.5636 54.0198C77.5636 53.8885 77.0454 53.2893 76.721 53.0454C75.9047 52.4317 75.2312 52.1992 74.1902 52.1717C73.7667 52.1605 73.3377 52.1684 73.2369 52.189Z" fill="#1C293E"/>
<path fill-rule="evenodd" clip-rule="evenodd" d="M80.6538 52.4518C80.7873 52.6232 80.9154 52.78 80.9385 52.8001C80.9617 52.8203 81.0564 52.9452 81.1489 53.0776C81.3067 53.3034 81.3099 53.3297 81.2004 53.4967C81.1362 53.5948 81.0836 53.7139 81.0836 53.7613C81.0836 53.8336 80.7214 54.8123 80.503 55.3301C80.469 55.4108 80.3832 55.6253 80.3124 55.8068C80.2416 55.9883 80.1386 56.2408 80.0836 56.3679C80.0286 56.4949 79.9836 56.6517 79.9836 56.7162C79.9836 56.7807 79.9506 56.8335 79.9102 56.8335C79.8699 56.8335 79.8358 56.8912 79.8344 56.9618C79.833 57.0323 79.7682 57.2221 79.6902 57.3835C79.6123 57.5448 79.5475 57.7326 79.5461 57.8008C79.5447 57.869 79.5106 57.9452 79.4702 57.9701C79.4299 57.9951 79.3969 58.0648 79.3969 58.1251C79.3969 58.2302 79.1762 58.7835 79.0277 59.0508C78.9887 59.1208 78.9569 59.2148 78.9569 59.2597C78.9569 59.3046 78.9119 59.4453 78.8569 59.5724C78.8019 59.6995 78.6983 59.9519 78.6269 60.1334C78.5555 60.3149 78.4519 60.5674 78.3969 60.6945C78.3419 60.8216 78.2969 60.9619 78.2969 61.0062C78.2969 61.061 78.6349 61.0868 79.3544 61.0868H80.4119L80.4602 60.8668C80.4868 60.7458 80.5352 60.6468 80.5677 60.6468C80.6003 60.6468 80.6441 60.5561 80.665 60.4451C80.7169 60.1701 80.8964 59.7046 80.9845 59.6165C81.0293 59.5717 81.7795 59.5517 82.9561 59.5639L84.8554 59.5834L84.9948 59.9501C85.0715 60.1518 85.169 60.3828 85.2115 60.4634C85.254 60.5441 85.3092 60.7091 85.3341 60.8301L85.3794 61.0501L86.4601 61.0704L87.5407 61.0907L87.4934 60.8871C87.4674 60.7751 87.4006 60.6103 87.3448 60.521C87.2891 60.4317 87.2436 60.3106 87.2436 60.252C87.2436 60.1933 87.1967 60.0519 87.1394 59.9377C87.0821 59.8235 86.9786 59.5816 86.9095 59.4001C86.8402 59.2186 86.7386 58.9661 86.6836 58.839C86.6286 58.712 86.5836 58.5618 86.5836 58.5054C86.5836 58.4489 86.556 58.3714 86.5223 58.3331C86.4887 58.2948 86.402 58.0985 86.3298 57.8968C86.2575 57.6951 86.1541 57.4311 86.1002 57.3101C86.0462 57.1891 85.8848 56.7766 85.7416 56.3935C85.5983 56.0103 85.451 55.6308 85.4142 55.5501C85.3774 55.4695 85.242 55.123 85.1134 54.7801C84.9848 54.4373 84.8339 54.0528 84.7782 53.9257C84.7225 53.7986 84.6769 53.6419 84.6769 53.5774C84.6769 53.5129 84.6465 53.4601 84.6094 53.4601C84.5723 53.4601 84.5197 53.3589 84.4925 53.2352C84.4653 53.1115 84.3969 52.9217 84.3405 52.8136C84.284 52.7053 84.2365 52.5673 84.235 52.5068C84.2335 52.4463 84.1884 52.339 84.1348 52.2685C84.0467 52.1523 83.865 52.1401 82.2243 52.1401H80.4113L80.6538 52.4518ZM83.0579 54.5199C83.0207 54.497 82.9902 54.4141 82.9902 54.3358C82.9902 54.2575 82.9407 54.1935 82.8802 54.1935C82.8197 54.1935 82.7702 54.2392 82.7702 54.2951C82.7702 54.351 82.721 54.4912 82.6607 54.6068C82.6005 54.7223 82.551 54.8679 82.5507 54.9305C82.5505 54.993 82.5224 55.0755 82.4886 55.1138C82.4546 55.1521 82.353 55.4145 82.2628 55.6968C82.1726 55.9791 82.0547 56.3091 82.0009 56.4301C81.9471 56.5511 81.8459 56.8316 81.7761 57.0535C81.7062 57.2753 81.6208 57.4882 81.5863 57.5265C81.5518 57.5647 81.5236 57.6555 81.5236 57.7281C81.5236 57.8504 81.6227 57.8601 82.8802 57.8601C84.3226 57.8601 84.3498 57.8528 84.17 57.5108C84.0796 57.3392 83.6699 56.1872 83.6092 55.9345C83.5825 55.8231 83.5313 55.714 83.4954 55.6918C83.4596 55.6696 83.43 55.5957 83.4298 55.5275C83.4295 55.4593 83.3832 55.3149 83.3267 55.2067C83.2702 55.0985 83.2019 54.9092 83.1748 54.7859C83.1478 54.6626 83.0952 54.543 83.0579 54.5199Z" fill="#1C293E"/>
</svg>