<svg xmlns:xlink="http://www.w3.org/1999/xlink" xmlns="http://www.w3.org/2000/svg" width="121" height="24" viewBox="0 0 121 24" fill="none">
<g clip-path="url(#clip0)">
<path d="M8.09149 10.0846L12.7527 5.42529L17.4159 10.0884L20.1266 7.37584L12.7527 0.00012207L5.37891 7.37395L8.09149 10.0846Z" fill="#888889"/>
<path d="M0.75 12.0006L3.46159 9.28902L6.17318 12.0006L3.46159 14.7122L0.75 12.0006Z" fill="#888889"/>
<path d="M8.09137 13.9156L12.7526 18.5768L17.4158 13.9137L20.1283 16.6225L20.1264 16.6244L12.7526 24.0001L5.37879 16.6282L5.375 16.6244L8.09137 13.9156Z" fill="#888889"/>
<path d="M19.3281 12.0012L22.0397 9.28963L24.7513 12.0012L22.0397 14.7128L19.3281 12.0012Z" fill="#888889"/>
<path d="M15.5009 11.9993L12.7504 9.24695L10.7164 11.2809L10.4814 11.5141L9.99989 11.9955L9.99609 11.9993L9.99989 12.005L12.7504 14.7536L15.5009 12.0012L15.5028 11.9993H15.5009Z" fill="#888889"/>
<path d="M28.9805 5.8158H34.8795C36.3429 5.8158 37.4499 6.19491 38.2006 6.95315C38.4834 7.23323 38.7064 7.56786 38.8559 7.93672C39.0055 8.30559 39.0786 8.70099 39.0707 9.09895V9.13496C39.0758 9.46097 39.0304 9.7858 38.9361 10.0979C38.8521 10.3666 38.7302 10.6219 38.574 10.8562C38.4284 11.077 38.2523 11.2761 38.0508 11.4476C37.854 11.617 37.6384 11.7633 37.4082 11.8836C38.072 12.1148 38.6689 12.5053 39.1465 13.0209C39.5686 13.5011 39.7796 14.1646 39.7796 15.0113V15.0473C39.7916 15.5761 39.6766 16.1 39.4441 16.5751C39.2189 17.0129 38.8887 17.388 38.483 17.667C38.0245 17.9744 37.5138 18.196 36.976 18.321C36.3371 18.4725 35.6821 18.5457 35.0255 18.539H28.9805V5.8158ZM34.2881 10.9604C34.7985 10.9851 35.3064 10.8753 35.761 10.642C35.9383 10.5384 36.083 10.3873 36.1788 10.2057C36.2746 10.0241 36.3177 9.81934 36.3031 9.61455V9.57853C36.3125 9.38984 36.2742 9.20182 36.1917 9.03186C36.1092 8.86189 35.9852 8.71546 35.8311 8.6061C35.5164 8.38242 35.0621 8.27058 34.4682 8.27058H31.7082V10.9604H34.2881ZM35.0331 16.088C35.5416 16.1165 36.0477 16.0001 36.4927 15.7525C36.666 15.6411 36.8064 15.4853 36.899 15.3012C36.9917 15.1172 37.0334 14.9117 37.0196 14.7061V14.6701C37.0265 14.4747 36.9853 14.2805 36.8997 14.1047C36.8141 13.9289 36.6867 13.7768 36.5287 13.6616C36.2026 13.4089 35.6757 13.2825 34.9478 13.2825H31.7082V16.088H35.0331Z" fill="#888889"/>
<path d="M43.293 5.8158H46.0927V18.5428H43.293V5.8158Z" fill="#888889"/>
<path d="M50.332 5.8158H52.9138L58.8811 13.6484V5.8158H61.6449V18.5428H59.2621L53.0996 10.4524V18.5428H50.332V5.8158Z" fill="#888889"/>
<path d="M70.1195 5.72473H72.6975L78.1511 18.5427H75.2281L74.0642 15.6879H68.6827L67.5188 18.5427H64.6641L70.1195 5.72473ZM73.0653 13.2161L71.3706 9.0875L69.6836 13.2161H73.0653Z" fill="#888889"/>
<path d="M81.1797 5.8158H83.7615L89.725 13.6484V5.8158H92.4887V18.5428H90.106L83.9435 10.4524V18.5428H81.1797V5.8158Z" fill="#888889"/>
<path d="M102.564 18.7665C101.671 18.7741 100.787 18.6013 99.963 18.2585C99.1875 17.9382 98.4838 17.466 97.8936 16.8696C97.3034 16.2732 96.8385 15.5647 96.5263 14.7858C96.197 13.9711 96.0302 13.0998 96.0354 12.2211V12.185C96.0207 10.4529 96.6872 8.78435 97.8912 7.53896C98.4835 6.93062 99.1928 6.44832 99.9763 6.12106C100.829 5.76803 101.744 5.59197 102.666 5.60357C103.212 5.59949 103.756 5.64838 104.293 5.74953C104.751 5.83628 105.2 5.97032 105.631 6.14949C106.022 6.31415 106.394 6.52139 106.74 6.76745C107.077 7.00744 107.394 7.27501 107.688 7.56739L105.908 9.6222C105.453 9.20259 104.942 8.84734 104.391 8.56636C103.849 8.30736 103.255 8.17758 102.655 8.18725C102.155 8.18192 101.66 8.28294 101.203 8.48361C100.745 8.68428 100.335 8.98 100.001 9.35114C99.6693 9.72132 99.4096 10.1501 99.2351 10.6155C99.0525 11.1073 98.9607 11.6282 98.9641 12.1528V12.1888C98.9623 12.7127 99.0541 13.2327 99.2351 13.7243C99.4074 14.1913 99.6644 14.6225 99.9934 14.9962C100.325 15.3719 100.734 15.672 101.192 15.8761C101.65 16.0801 102.146 16.1835 102.647 16.179C103.285 16.1991 103.919 16.0618 104.492 15.7791C105.037 15.4819 105.541 15.1149 105.991 14.6872L107.773 16.488C107.458 16.8295 107.118 17.1463 106.755 17.4358C106.398 17.7178 106.011 17.9588 105.6 18.1542C105.163 18.3602 104.702 18.5123 104.228 18.6073C103.68 18.7171 103.123 18.7705 102.564 18.7665Z" fill="#888889"/>
<path d="M111.078 5.8158H120.657V8.30659H113.832V10.8884H119.841V13.3792H113.842V16.052H120.751V18.5428H111.084L111.078 5.8158Z" fill="#888889"/>
</g>
<defs>
<clipPath id="clip0">
<rect width="119.998" height="24" fill="white" transform="translate(0.75 0.00012207)"/>
</clipPath>
</defs>
</svg>