<svg xmlns:xlink="http://www.w3.org/1999/xlink" xmlns="http://www.w3.org/2000/svg" width="132" height="27" viewBox="0 0 132 27" fill="none">
<g clip-path="url(#clip0_2262_10996)">
<path d="M8.07569 11.3338L13.2031 6.2862L18.3327 11.3379L21.3145 8.3993L13.2031 0.408936L5.0918 8.39725L8.07569 11.3338Z" fill="#888889"/>
<path d="M0 13.4094L2.9828 10.4719L5.96559 13.4094L2.9828 16.347L0 13.4094Z" fill="#888889"/>
<path d="M8.07302 15.4841L13.2005 20.5338L18.33 15.4821L21.3139 18.4166L21.3118 18.4186L13.2005 26.409L5.08913 18.4227L5.08496 18.4186L8.07302 15.4841Z" fill="#888889"/>
<path d="M20.4355 13.4102L23.4183 10.4726L26.4011 13.4102L23.4183 16.3477L20.4355 13.4102Z" fill="#888889"/>
<path d="M16.2292 13.408L13.2036 10.4263L10.9662 12.6297L10.7076 12.8823L10.178 13.4039L10.1738 13.408L10.178 13.4142L13.2036 16.3918L16.2292 13.4101L16.2313 13.408H16.2292Z" fill="#888889"/>
<path d="M31.0537 6.70911H37.5428C39.1525 6.70911 40.3703 7.11982 41.196 7.94124C41.5071 8.24466 41.7524 8.60718 41.9169 9.00678C42.0814 9.40638 42.1618 9.83474 42.1531 10.2659V10.3049C42.1587 10.658 42.1088 11.0099 42.0051 11.3481C41.9127 11.6392 41.7786 11.9158 41.6068 12.1695C41.4467 12.4088 41.2529 12.6245 41.0313 12.8102C40.8148 12.9937 40.5776 13.1522 40.3244 13.2825C41.0545 13.533 41.7111 13.9561 42.2365 14.5147C42.7008 15.0349 42.933 15.7536 42.933 16.6709V16.7099C42.9462 17.2827 42.8196 17.8504 42.5639 18.3651C42.3161 18.8393 41.9529 19.2457 41.5067 19.5479C41.0023 19.881 40.4406 20.121 39.849 20.2564C39.1461 20.4205 38.4256 20.4998 37.7033 20.4925H31.0537V6.70911ZM36.8922 12.2824C37.4536 12.3092 38.0123 12.1902 38.5124 11.9374C38.7074 11.8253 38.8666 11.6615 38.972 11.4648C39.0774 11.2681 39.1248 11.0463 39.1088 10.8244V10.7854C39.1191 10.581 39.0769 10.3773 38.9862 10.1932C38.8954 10.009 38.759 9.85041 38.5895 9.73193C38.2434 9.48961 37.7437 9.36845 37.0903 9.36845H34.0543V12.2824H36.8922ZM37.7117 17.8373C38.271 17.8682 38.8278 17.7421 39.3173 17.4738C39.508 17.3532 39.6623 17.1844 39.7643 16.985C39.8662 16.7856 39.912 16.563 39.8969 16.3403V16.3012C39.9045 16.0895 39.8592 15.8792 39.765 15.6888C39.6709 15.4983 39.5307 15.3335 39.3569 15.2087C38.9982 14.9349 38.4186 14.798 37.6179 14.798H34.0543V17.8373H37.7117Z" fill="#888889"/>
<path d="M46.7998 6.70911H49.8796V20.4966H46.7998V6.70911Z" fill="#888889"/>
<path d="M54.5371 6.70911H57.3771L63.9413 15.1944V6.70911H66.9814V20.4966H64.3604L57.5815 11.7321V20.4966H54.5371V6.70911Z" fill="#888889"/>
<path d="M76.3078 6.61047H79.1436L85.1426 20.4966H81.9273L80.647 17.4039H74.7272L73.4469 20.4966H70.3066L76.3078 6.61047ZM79.5481 14.7261L77.684 10.2535L75.8282 14.7261H79.5481Z" fill="#888889"/>
<path d="M88.4736 6.70911H91.3136L97.8736 15.1944V6.70911H100.914V20.4966H98.2927L91.5138 11.7321V20.4966H88.4736V6.70911Z" fill="#888889"/>
<path d="M111.997 20.7391C111.015 20.7473 110.042 20.5601 109.136 20.1887C108.283 19.8418 107.509 19.3302 106.86 18.6841C106.21 18.038 105.699 17.2704 105.356 16.4266C104.993 15.544 104.81 14.6001 104.816 13.6482V13.6091C104.8 11.7327 105.533 9.92507 106.857 8.5759C107.509 7.91686 108.289 7.39437 109.151 7.03984C110.088 6.65739 111.095 6.46665 112.11 6.47922C112.71 6.47481 113.309 6.52777 113.899 6.63734C114.403 6.73133 114.897 6.87653 115.371 7.07064C115.801 7.24902 116.21 7.47353 116.591 7.7401C116.962 8.00009 117.311 8.28995 117.633 8.6067L115.675 10.8327C115.175 10.3782 114.614 9.99331 114.007 9.68892C113.411 9.40833 112.757 9.26774 112.097 9.27821C111.548 9.27243 111.003 9.38188 110.5 9.59927C109.996 9.81666 109.546 10.137 109.178 10.5391C108.813 10.9401 108.527 11.4046 108.335 11.9088C108.135 12.4416 108.034 13.0059 108.037 13.5742V13.6133C108.035 14.1808 108.136 14.7441 108.335 15.2766C108.525 15.7826 108.808 16.2498 109.17 16.6546C109.535 17.0616 109.984 17.3867 110.488 17.6078C110.991 17.8288 111.537 17.9408 112.089 17.936C112.791 17.9578 113.488 17.8089 114.118 17.5027C114.717 17.1808 115.272 16.7831 115.767 16.3198L117.727 18.2707C117.381 18.6406 117.007 18.9839 116.607 19.2975C116.215 19.603 115.789 19.864 115.337 20.0758C114.856 20.2989 114.349 20.4637 113.828 20.5666C113.225 20.6856 112.612 20.7434 111.997 20.7391Z" fill="#888889"/>
<path d="M121.363 6.70911H131.9V9.40747H124.393V12.2044H131.003V14.9028H124.403V17.7983H132.004V20.4966H121.37L121.363 6.70911Z" fill="#888889"/>
</g>
<defs>
<clipPath id="clip0_2262_10996">
<rect width="132" height="26" fill="white" transform="translate(0 0.408936)"/>
</clipPath>
</defs>
</svg>