<svg xmlns:xlink="http://www.w3.org/1999/xlink" xmlns="http://www.w3.org/2000/svg" width="132" height="26" viewBox="0 0 132 26" fill="none">
<g clip-path="url(#clip0_2284_8368)">
<path d="M8.07568 10.9249L13.2031 5.87726L18.3327 10.929L21.3145 7.99036L13.2031 0L5.0918 7.98831L8.07568 10.9249Z" fill="#F3BA2F"/>
<path d="M0 13.0005L2.9828 10.0629L5.96559 13.0005L2.9828 15.938L0 13.0005Z" fill="#F3BA2F"/>
<path d="M8.07302 15.0749L13.2005 20.1246L18.33 15.0729L21.3139 18.0074L21.3118 18.0095L13.2005 25.9998L5.08913 18.0136L5.08496 18.0095L8.07302 15.0749Z" fill="#F3BA2F"/>
<path d="M20.4355 13.0012L23.4183 10.0637L26.4011 13.0012L23.4183 15.9388L20.4355 13.0012Z" fill="#F3BA2F"/>
<path d="M16.2292 12.9992L13.2036 10.0174L10.9662 12.2209L10.7076 12.4734L10.178 12.995L10.1738 12.9992L10.178 13.0053L13.2036 15.983L16.2292 13.0012L16.2313 12.9992H16.2292Z" fill="#F3BA2F"/>
<path d="M31.0537 6.30023H37.5428C39.1525 6.30023 40.3703 6.71094 41.196 7.53236C41.5071 7.83579 41.7524 8.1983 41.9169 8.5979C42.0814 8.99751 42.1618 9.42586 42.1531 9.85698V9.896C42.1587 10.2492 42.1088 10.6011 42.0051 10.9392C41.9127 11.2303 41.7786 11.5069 41.6068 11.7606C41.4467 11.9999 41.2529 12.2156 41.0313 12.4013C40.8148 12.5849 40.5776 12.7433 40.3244 12.8736C41.0545 13.1241 41.7111 13.5472 42.2365 14.1058C42.7008 14.626 42.933 15.3448 42.933 16.262V16.301C42.9462 16.8739 42.8196 17.4415 42.5639 17.9562C42.3161 18.4304 41.9529 18.8368 41.5067 19.139C41.0023 19.4721 40.4406 19.7121 39.849 19.8475C39.1461 20.0116 38.4256 20.0909 37.7033 20.0837H31.0537V6.30023ZM36.8922 11.8736C37.4536 11.9003 38.0123 11.7813 38.5124 11.5286C38.7074 11.4164 38.8666 11.2527 38.972 11.056C39.0774 10.8592 39.1248 10.6374 39.1088 10.4155V10.3765C39.1191 10.1721 39.0769 9.96842 38.9862 9.7843C38.8954 9.60017 38.759 9.44154 38.5895 9.32306C38.2434 9.08074 37.7437 8.95958 37.0903 8.95958H34.0543V11.8736H36.8922ZM37.7117 17.4284C38.271 17.4593 38.8278 17.3332 39.3173 17.0649C39.508 16.9443 39.6623 16.7755 39.7643 16.5761C39.8662 16.3767 39.912 16.1541 39.8969 15.9314V15.8924C39.9045 15.6807 39.8592 15.4704 39.765 15.2799C39.6709 15.0895 39.5307 14.9246 39.3569 14.7999C38.9982 14.5261 38.4186 14.3892 37.6179 14.3892H34.0543V17.4284H37.7117Z" fill="#F3BA2F"/>
<path d="M46.7998 6.30017H49.8796V20.0877H46.7998V6.30017Z" fill="#F3BA2F"/>
<path d="M54.5371 6.30017H57.3771L63.9413 14.7854V6.30017H66.9814V20.0877H64.3604L57.5815 11.3232V20.0877H54.5371V6.30017Z" fill="#F3BA2F"/>
<path d="M76.3078 6.20154H79.1436L85.1426 20.0876H81.9273L80.647 16.995H74.7272L73.4469 20.0876H70.3066L76.3078 6.20154ZM79.5481 14.3172L77.684 9.84454L75.8282 14.3172H79.5481Z" fill="#F3BA2F"/>
<path d="M88.4727 6.30017H91.3127L97.8726 14.7854V6.30017H100.913V20.0877H98.2917L91.5128 11.3232V20.0877H88.4727V6.30017Z" fill="#F3BA2F"/>
<path d="M111.997 20.3301C111.015 20.3384 110.042 20.1512 109.136 19.7798C108.283 19.4329 107.509 18.9213 106.86 18.2751C106.21 17.629 105.699 16.8615 105.356 16.0177C104.993 15.1351 104.81 14.1912 104.816 13.2392V13.2002C104.8 11.3237 105.533 9.51613 106.857 8.16696C107.509 7.50792 108.289 6.98544 109.151 6.6309C110.088 6.24846 111.095 6.05772 112.11 6.07028C112.71 6.06587 113.309 6.11883 113.899 6.22841C114.403 6.32239 114.897 6.4676 115.371 6.66171C115.801 6.84009 116.21 7.06459 116.591 7.33116C116.962 7.59115 117.311 7.88101 117.633 8.19776L115.675 10.4238C115.175 9.96923 114.614 9.58437 114.007 9.27998C113.411 8.99939 112.757 8.8588 112.097 8.86927C111.548 8.8635 111.003 8.97294 110.5 9.19033C109.996 9.40773 109.546 9.72809 109.178 10.1302C108.813 10.5312 108.527 10.9957 108.335 11.4999C108.135 12.0327 108.034 12.597 108.037 13.1653V13.2043C108.035 13.7718 108.136 14.3351 108.335 14.8677C108.525 15.3737 108.808 15.8408 109.17 16.2456C109.535 16.6527 109.984 16.9777 110.488 17.1988C110.991 17.4199 111.537 17.5318 112.089 17.527C112.791 17.5488 113.488 17.4 114.118 17.0937C114.717 16.7719 115.272 16.3742 115.767 15.9109L117.727 17.8618C117.381 18.2317 117.007 18.575 116.607 18.8885C116.215 19.194 115.789 19.4551 115.337 19.6668C114.856 19.8899 114.349 20.0547 113.828 20.1576C113.225 20.2766 112.612 20.3344 111.997 20.3301Z" fill="#F3BA2F"/>
<path d="M121.363 6.30017H131.9V8.99854H124.393V11.7955H131.003V14.4938H124.403V17.3893H132.004V20.0877H121.37L121.363 6.30017Z" fill="#F3BA2F"/>
</g>
<defs>
<clipPath id="clip0_2284_8368">
<rect width="132" height="26" fill="white"/>
</clipPath>
</defs>
<script xmlns=""/></svg>