<svg xmlns:xlink="http://www.w3.org/1999/xlink" xmlns="http://www.w3.org/2000/svg" width="61" height="26" viewBox="0 0 61 26" fill="none">
<path fill-rule="evenodd" clip-rule="evenodd" d="M22.5111 22.0222C20.1576 24.4746 16.8538 26 13.1952 26C6.04902 26 0.255859 20.1797 0.255859 13C0.255859 5.82029 6.04902 0 13.1952 0C16.6932 0 19.8669 1.39449 22.1958 3.66031L18.386 7.48792C17.0327 6.20106 15.2057 5.41186 13.1952 5.41186C9.02389 5.41186 5.64237 8.80921 5.64237 13.0001C5.64237 17.191 9.02389 20.5883 13.1952 20.5883C15.3145 20.5883 17.2298 19.7114 18.6015 18.2991L22.4461 21.941L22.5111 22.0222Z" fill="#00B8FA"/>
<path fill-rule="evenodd" clip-rule="evenodd" d="M13.2541 19.0591C16.6171 19.0591 19.3433 16.32 19.3433 12.9414C19.3433 9.56272 16.6171 6.82373 13.2541 6.82373C9.8912 6.82373 7.16504 9.56272 7.16504 12.9414C7.16504 16.32 9.8912 19.0591 13.2541 19.0591ZM8.68735 10.412H10.0925L11.3221 14.3532L12.6687 10.4708H13.7811L15.1278 14.3532L16.3573 10.4708H17.7039L15.7133 16.3532H14.5423L13.1956 12.5885L11.849 16.3532H10.7951L8.68735 10.412Z" fill="#00B8FA"/>
<path d="M34.5854 7.92981C34.5044 8.79255 34.1873 9.46644 33.6345 9.9515C33.0817 10.4329 32.3465 10.6736 31.4287 10.6736C30.7874 10.6736 30.2217 10.5218 29.7316 10.2182C29.2451 9.91079 28.8692 9.4757 28.6037 8.91288C28.3384 8.35006 28.2002 7.69654 28.1891 6.95227V6.1969C28.1891 5.43412 28.3237 4.76206 28.5928 4.18073C28.8617 3.59938 29.2469 3.15135 29.7482 2.83661C30.253 2.52187 30.8354 2.36451 31.4951 2.36451C32.3833 2.36451 33.0982 2.60704 33.6401 3.0921C34.1818 3.57717 34.4969 4.26219 34.5854 5.14716H33.1923C33.1259 4.56582 32.9564 4.1474 32.6837 3.89191C32.4146 3.63271 32.0185 3.50311 31.4951 3.50311C30.887 3.50311 30.4189 3.72713 30.0909 4.17517C29.7666 4.61951 29.6007 5.27305 29.5934 6.13581V6.85229C29.5934 7.72615 29.7482 8.39264 30.0577 8.85178C30.371 9.31093 30.828 9.54054 31.4287 9.54054C31.9779 9.54054 32.3906 9.41647 32.667 9.16841C32.9435 8.92027 33.1185 8.50744 33.1923 7.92981H34.5854ZM39.2845 10.5625C39.2255 10.4477 39.1739 10.2607 39.1297 10.0015C38.7021 10.4496 38.1788 10.6736 37.5596 10.6736C36.9589 10.6736 36.4687 10.5014 36.0891 10.1571C35.7095 9.81264 35.5197 9.38689 35.5197 8.87957C35.5197 8.23899 35.7556 7.74837 36.2273 7.40772C36.7028 7.06336 37.3809 6.89118 38.2617 6.89118H39.0855V6.49682C39.0855 6.18579 38.9989 5.9377 38.8256 5.75256C38.6524 5.56372 38.3888 5.4693 38.035 5.4693C37.7292 5.4693 37.4786 5.54706 37.2833 5.70257C37.0879 5.85439 36.9902 6.04879 36.9902 6.28577H35.6468C35.6468 5.95622 35.7556 5.64888 35.973 5.36377C36.1904 5.07495 36.4853 4.84908 36.8575 4.68616C37.2334 4.52324 37.6518 4.44178 38.1124 4.44178C38.8127 4.44178 39.3711 4.61951 39.7875 4.97498C40.204 5.32674 40.4177 5.82292 40.4288 6.4635V9.17394C40.4288 9.71458 40.5044 10.1459 40.6555 10.4681V10.5625H39.2845ZM37.8084 9.59051C38.0738 9.59051 38.3225 9.52575 38.5547 9.39616C38.7906 9.26648 38.9675 9.09253 39.0855 8.87404V7.74096H38.3613C37.8637 7.74096 37.4896 7.82798 37.239 8.00201C36.9884 8.17602 36.863 8.42229 36.863 8.74071C36.863 8.9999 36.9478 9.20725 37.1174 9.36276C37.2906 9.51462 37.5209 9.59051 37.8084 9.59051ZM43.779 7.98535L43.1819 8.60186V10.5625H41.8386V2.03125H43.1819V6.95227L43.602 6.42462L45.2551 4.55286H46.8693L44.6469 7.0578L47.107 10.5625H45.5535L43.779 7.98535ZM50.2747 10.6736C49.4234 10.6736 48.7324 10.4051 48.2016 9.86822C47.6746 9.32758 47.4111 8.60925 47.4111 7.71319V7.54657C47.4111 6.94671 47.5253 6.41166 47.7538 5.94141C47.986 5.46745 48.3104 5.09902 48.7268 4.83612C49.1433 4.57322 49.6076 4.44178 50.1199 4.44178C50.9345 4.44178 51.5628 4.70282 52.0051 5.22491C52.4511 5.74701 52.674 6.48572 52.674 7.44104V7.98535H48.7655C48.806 8.48152 48.97 8.87404 49.2575 9.16281C49.5487 9.45165 49.9136 9.59603 50.3521 9.59603C50.9676 9.59603 51.4689 9.34611 51.8558 8.84626L52.58 9.54054C52.3405 9.89966 52.0198 10.1792 51.6181 10.3792C51.2201 10.5755 50.7722 10.6736 50.2747 10.6736ZM50.1144 5.52484C49.7458 5.52484 49.4473 5.65444 49.2188 5.91363C48.994 6.17283 48.8503 6.53386 48.7876 6.99671H51.3472V6.89673C51.3177 6.44499 51.198 6.10433 50.9879 5.87476C50.7778 5.64148 50.4866 5.52484 50.1144 5.52484ZM34.7568 21.563L35.9951 15.4756H37.3827L35.5252 23.5625H34.1873L32.656 17.6584L31.0915 23.5625H29.7482L27.8906 15.4756H29.2782L30.5276 21.5519L32.0645 15.4756H33.2365L34.7568 21.563ZM41.6616 23.5625C41.6027 23.4477 41.5511 23.2607 41.5068 23.0016C41.0793 23.4496 40.5559 23.6736 39.9368 23.6736C39.3361 23.6736 38.8458 23.5014 38.4662 23.1571C38.0866 22.8126 37.8968 22.3869 37.8968 21.8796C37.8968 21.239 38.1327 20.7484 38.6044 20.4077C39.0799 20.0634 39.7581 19.8911 40.6389 19.8911H41.4626V19.4968C41.4626 19.1858 41.376 18.9377 41.2028 18.7526C41.0295 18.5638 40.7661 18.4693 40.4122 18.4693C40.1063 18.4693 39.8557 18.547 39.6604 18.7026C39.4651 18.8544 39.3674 19.0488 39.3674 19.2857H38.024C38.024 18.9562 38.1327 18.6489 38.3502 18.3638C38.5676 18.075 38.8625 17.8491 39.2347 17.6862C39.6106 17.5233 40.0289 17.4418 40.4896 17.4418C41.1899 17.4418 41.7482 17.6195 42.1647 17.9749C42.5812 18.3267 42.7949 18.8229 42.806 19.4635V22.1739C42.806 22.7146 42.8816 23.1459 43.0326 23.4681V23.5625H41.6616ZM40.1856 22.5905C40.4509 22.5905 40.6997 22.5258 40.9319 22.3962C41.1677 22.2665 41.3447 22.0925 41.4626 21.874V20.7409H40.7384C40.2409 20.7409 39.8668 20.8279 39.6161 21.002C39.3655 21.176 39.2403 21.4223 39.2403 21.7407C39.2403 21.9999 39.325 22.2072 39.4945 22.3628C39.6677 22.5146 39.8981 22.5905 40.1856 22.5905ZM45.642 23.5625H44.2987V15.0312H45.642V23.5625ZM48.5388 23.5625H47.1955V15.0312H48.5388V23.5625ZM52.6409 23.6736C51.7895 23.6736 51.0985 23.4051 50.5677 22.8682C50.0407 22.3276 49.7772 21.6093 49.7772 20.7132V20.5466C49.7772 19.9467 49.8914 19.4117 50.1199 18.9414C50.3521 18.4675 50.6765 18.099 51.0929 17.8361C51.5094 17.5732 51.9738 17.4418 52.4861 17.4418C53.3005 17.4418 53.929 17.7028 54.3712 18.2249C54.8172 18.747 55.0401 19.4857 55.0401 20.441V20.9853H51.1316C51.1722 21.4815 51.3362 21.874 51.6237 22.1628C51.9148 22.4517 52.2797 22.596 52.7183 22.596C53.3338 22.596 53.8349 22.3461 54.222 21.8463L54.9462 22.5405C54.7066 22.8997 54.386 23.1792 53.9842 23.3792C53.5862 23.5755 53.1384 23.6736 52.6409 23.6736ZM52.4805 18.5248C52.112 18.5248 51.8135 18.6544 51.5849 18.9136C51.3601 19.1728 51.2164 19.5339 51.1537 19.9967H53.7134V19.8967C53.6839 19.445 53.5641 19.1043 53.354 18.8748C53.144 18.6415 52.8527 18.5248 52.4805 18.5248ZM57.7711 16.0921V17.5528H58.827V18.5526H57.7711V21.9074C57.7711 22.1369 57.8153 22.3035 57.9038 22.4072C57.9959 22.5072 58.1581 22.5572 58.3903 22.5572C58.5451 22.5572 58.7018 22.5387 58.8602 22.5016V23.5458C58.5543 23.631 58.2595 23.6736 57.9757 23.6736C56.9437 23.6736 56.4277 23.1015 56.4277 21.9573V18.5526H55.4437V17.5528H56.4277V16.0921H57.7711Z" fill="white"/>
</svg>