<svg xmlns:xlink="http://www.w3.org/1999/xlink" xmlns="http://www.w3.org/2000/svg" width="1134" height="60" viewBox="0 0 1134 60" fill="none">
<g clip-path="url(#clip0_9811_60230)">
<rect width="1134" height="60" rx="8" fill="#353845"/>
<path opacity="0.12" d="M1109 61H939.394L894 1H1109V61Z" fill="#1168F1"/>
<path opacity="0.46" d="M1151 60H981.394L936 0H1151V60Z" fill="#1168F1"/>
<path opacity="0.46" d="M43 0H241.606L287 60H43V0Z" fill="#1168F1"/>
<path opacity="0.12" d="M85 0H283.606L329 60H85V0Z" fill="#1168F1"/>
<path d="M0 0H198.606L244 60H0V0Z" fill="#1168F1"/>
<path d="M1194 60H1024.39L979 0H1194V60Z" fill="#1168F1"/>
<path d="M113.444 38.9999V21.9599H119.08C120.667 21.9599 121.913 22.3759 122.82 23.2079C123.727 24.0239 124.181 25.1359 124.181 26.5439C124.181 27.8559 123.776 28.9199 122.966 29.7359C122.173 30.5359 121.071 30.9919 119.663 31.1039L126.488 38.9999H124.083L117.258 31.0799H115.29V38.9999H113.444ZM115.29 29.3999H118.861C121.16 29.3999 122.31 28.4479 122.31 26.5439C122.31 24.6239 121.16 23.6639 118.861 23.6639H115.29V29.3999Z" fill="white"/>
<path d="M133.27 39.2399C131.488 39.2399 130.015 38.6399 128.849 37.4399C127.699 36.2239 127.124 34.7439 127.124 32.9999C127.124 31.2559 127.699 29.7839 128.849 28.5839C130.015 27.3679 131.488 26.7599 133.27 26.7599C135.035 26.7599 136.444 27.3279 137.496 28.4639V26.9999H139.196V38.9999H137.496V37.5359C136.444 38.6719 135.035 39.2399 133.27 39.2399ZM133.343 37.6799C134.282 37.6799 135.108 37.4799 135.82 37.0799C136.533 36.6799 137.091 36.1519 137.496 35.4959V30.5039C137.091 29.8479 136.533 29.3199 135.82 28.9199C135.108 28.5199 134.282 28.3199 133.343 28.3199C132.031 28.3199 130.954 28.7759 130.112 29.6879C129.286 30.5839 128.873 31.6879 128.873 32.9999C128.873 34.3119 129.286 35.4239 130.112 36.3359C130.954 37.2319 132.031 37.6799 133.343 37.6799Z" fill="white"/>
<path d="M149.299 39.2399C147.534 39.2399 146.126 38.6719 145.073 37.5359V38.9999H143.373V21.4799H145.073V28.4639C146.126 27.3279 147.534 26.7599 149.299 26.7599C151.081 26.7599 152.546 27.3679 153.696 28.5839C154.862 29.7839 155.445 31.2559 155.445 32.9999C155.445 34.7439 154.862 36.2239 153.696 37.4399C152.546 38.6399 151.081 39.2399 149.299 39.2399ZM149.227 37.6799C150.538 37.6799 151.607 37.2319 152.433 36.3359C153.275 35.4239 153.696 34.3119 153.696 32.9999C153.696 31.6879 153.275 30.5839 152.433 29.6879C151.607 28.7759 150.538 28.3199 149.227 28.3199C148.287 28.3199 147.461 28.5199 146.749 28.9199C146.036 29.3199 145.478 29.8479 145.073 30.5039V35.4959C145.478 36.1519 146.036 36.6799 146.749 37.0799C147.461 37.4799 148.287 37.6799 149.227 37.6799Z" fill="white"/>
<path d="M164.528 39.2399C162.763 39.2399 161.354 38.6719 160.302 37.5359V38.9999H158.601V21.4799H160.302V28.4639C161.354 27.3279 162.763 26.7599 164.528 26.7599C166.309 26.7599 167.775 27.3679 168.925 28.5839C170.091 29.7839 170.674 31.2559 170.674 32.9999C170.674 34.7439 170.091 36.2239 168.925 37.4399C167.775 38.6399 166.309 39.2399 164.528 39.2399ZM164.455 37.6799C165.767 37.6799 166.836 37.2319 167.662 36.3359C168.504 35.4239 168.925 34.3119 168.925 32.9999C168.925 31.6879 168.504 30.5839 167.662 29.6879C166.836 28.7759 165.767 28.3199 164.455 28.3199C163.516 28.3199 162.69 28.5199 161.978 28.9199C161.265 29.3199 160.707 29.8479 160.302 30.5039V35.4959C160.707 36.1519 161.265 36.6799 161.978 37.0799C162.69 37.4799 163.516 37.6799 164.455 37.6799Z" fill="white"/>
<path d="M174.705 23.8799C174.332 23.8799 174.016 23.7599 173.757 23.5199C173.514 23.2639 173.393 22.9599 173.393 22.6079C173.393 22.2559 173.514 21.9599 173.757 21.7199C174.016 21.4639 174.332 21.3359 174.705 21.3359C175.061 21.3359 175.36 21.4639 175.603 21.7199C175.846 21.9599 175.968 22.2559 175.968 22.6079C175.968 22.9599 175.846 23.2639 175.603 23.5199C175.36 23.7599 175.061 23.8799 174.705 23.8799ZM173.83 38.9999V26.9999H175.53V38.9999H173.83Z" fill="white"/>
<path d="M184.547 39.1199C183.543 39.1199 182.701 38.8239 182.02 38.2319C181.357 37.6399 181.025 36.7839 181.025 35.6639V28.5839H177.94V26.9999H181.025V23.6639H182.725V26.9999H186.514V28.5839H182.725V35.5199C182.725 36.2399 182.903 36.7679 183.259 37.1039C183.632 37.4399 184.109 37.6079 184.692 37.6079C185.34 37.6079 185.939 37.4559 186.49 37.1519L187 38.5919C186.32 38.9439 185.502 39.1199 184.547 39.1199Z" fill="white"/>
<path d="M56.3294 34.408C57.3172 35.416 58.5074 35.92 59.9001 35.92C61.2927 35.92 62.4748 35.416 63.4464 34.408C64.418 33.4 64.9038 32.2 64.9038 30.808C64.9038 29.416 64.418 28.216 63.4464 27.208C62.4748 26.2 61.2927 25.696 59.9001 25.696C58.5074 25.696 57.3172 26.2 56.3294 27.208C55.3578 28.216 54.872 29.416 54.872 30.808C54.872 32.2 55.3578 33.4 56.3294 34.408Z" fill="white"/>
<path fill-rule="evenodd" clip-rule="evenodd" d="M32 14C27.5817 14 24 17.5817 24 22V39C24 43.4183 27.5817 47 32 47H98C102.418 47 106 43.4183 106 39V22C106 17.5817 102.418 14 98 14H32ZM33.599 37.048C35.3479 38.76 37.4531 39.616 39.9145 39.616C41.6796 39.616 43.2746 39.192 44.6996 38.344C46.1247 37.496 47.2177 36.368 47.9788 34.96L44.5782 33.136C43.5418 34.992 41.9872 35.92 39.9145 35.92C38.5218 35.92 37.3316 35.416 36.3438 34.408C35.3722 33.4 34.8864 32.2 34.8864 30.808C34.8864 29.416 35.3722 28.216 36.3438 27.208C37.3316 26.2 38.5218 25.696 39.9145 25.696C41.9872 25.696 43.5418 26.624 44.5782 28.48L47.9788 26.656C47.2177 25.248 46.1247 24.12 44.6996 23.272C43.2746 22.424 41.6796 22 39.9145 22C37.4531 22 35.3479 22.864 33.599 24.592C31.8663 26.304 31 28.376 31 30.808C31 33.24 31.8663 35.32 33.599 37.048ZM59.9001 39.616C62.3615 39.616 64.4585 38.752 66.1912 37.024C67.9401 35.296 68.8145 33.224 68.8145 30.808C68.8145 28.392 67.9401 26.32 66.1912 24.592C64.4585 22.864 62.3615 22 59.9001 22C57.4387 22 55.3335 22.864 53.5846 24.592C51.8519 26.304 50.9856 28.376 50.9856 30.808C50.9856 33.24 51.8519 35.32 53.5846 37.048C55.3335 38.76 57.4387 39.616 59.9001 39.616ZM77.0621 22.288H73.2V39.328H77.0621V22.288ZM94.6828 39.328H98.0106V22.288H94.1242V32.824L85.7441 22.288H82.4163V39.328H86.2785V28.792L94.6828 39.328Z" fill="white"/>
<path d="M363.561 31.7549H366.188C366.136 32.6162 365.898 33.3809 365.477 34.0488C365.061 34.7168 364.478 35.2383 363.728 35.6133C362.983 35.9883 362.087 36.1758 361.038 36.1758C360.218 36.1758 359.482 36.0352 358.832 35.7539C358.182 35.4668 357.625 35.0566 357.162 34.5234C356.705 33.9902 356.356 33.3457 356.116 32.5898C355.876 31.834 355.756 30.9873 355.756 30.0498V29.1621C355.756 28.2246 355.879 27.3779 356.125 26.6221C356.377 25.8604 356.734 25.2129 357.197 24.6797C357.666 24.1465 358.226 23.7363 358.876 23.4492C359.526 23.1621 360.253 23.0186 361.056 23.0186C362.122 23.0186 363.021 23.2119 363.754 23.5986C364.492 23.9854 365.063 24.5186 365.468 25.1982C365.878 25.8779 366.124 26.6514 366.206 27.5186H363.569C363.54 27.0029 363.438 26.5664 363.262 26.209C363.086 25.8457 362.819 25.5732 362.462 25.3916C362.11 25.2041 361.642 25.1104 361.056 25.1104C360.616 25.1104 360.232 25.1924 359.904 25.3564C359.576 25.5205 359.301 25.7695 359.078 26.1035C358.855 26.4375 358.688 26.8594 358.577 27.3691C358.472 27.873 358.419 28.4648 358.419 29.1445V30.0498C358.419 30.7119 358.469 31.2949 358.568 31.7988C358.668 32.2969 358.82 32.7188 359.025 33.0645C359.236 33.4043 359.506 33.6621 359.834 33.8379C360.168 34.0078 360.569 34.0928 361.038 34.0928C361.589 34.0928 362.043 34.0049 362.4 33.8291C362.758 33.6533 363.03 33.3926 363.218 33.0469C363.411 32.7012 363.525 32.2705 363.561 31.7549ZM373.123 25.3916L369.643 36H366.839L371.594 23.2031H373.378L373.123 25.3916ZM376.015 36L372.525 25.3916L372.244 23.2031H374.046L378.827 36H376.015ZM375.856 31.2363V33.3018H369.098V31.2363H375.856ZM386.676 32.6514C386.676 32.4229 386.641 32.2178 386.57 32.0361C386.506 31.8486 386.383 31.6787 386.201 31.5264C386.02 31.3682 385.765 31.2129 385.437 31.0605C385.108 30.9082 384.684 30.75 384.162 30.5859C383.582 30.3984 383.031 30.1875 382.51 29.9531C381.994 29.7188 381.537 29.4463 381.139 29.1357C380.746 28.8193 380.436 28.4531 380.207 28.0371C379.984 27.6211 379.873 27.1377 379.873 26.5869C379.873 26.0537 379.99 25.5703 380.225 25.1367C380.459 24.6973 380.787 24.3223 381.209 24.0117C381.631 23.6953 382.129 23.4521 382.703 23.2822C383.283 23.1123 383.919 23.0273 384.61 23.0273C385.554 23.0273 386.377 23.1973 387.08 23.5371C387.783 23.877 388.328 24.3428 388.715 24.9346C389.107 25.5264 389.304 26.2031 389.304 26.9648H386.685C386.685 26.5898 386.605 26.2617 386.447 25.9805C386.295 25.6934 386.061 25.4678 385.744 25.3037C385.434 25.1396 385.041 25.0576 384.566 25.0576C384.109 25.0576 383.729 25.1279 383.424 25.2686C383.119 25.4033 382.891 25.5879 382.738 25.8223C382.586 26.0508 382.51 26.3086 382.51 26.5957C382.51 26.8125 382.562 27.0088 382.668 27.1846C382.779 27.3604 382.943 27.5244 383.16 27.6768C383.377 27.8291 383.644 27.9727 383.96 28.1074C384.276 28.2422 384.643 28.374 385.059 28.5029C385.756 28.7139 386.368 28.9512 386.896 29.2148C387.429 29.4785 387.874 29.7744 388.231 30.1025C388.589 30.4307 388.858 30.8027 389.04 31.2188C389.222 31.6348 389.312 32.1064 389.312 32.6338C389.312 33.1904 389.204 33.6885 388.987 34.1279C388.771 34.5674 388.457 34.9395 388.047 35.2441C387.637 35.5488 387.147 35.7803 386.579 35.9385C386.011 36.0967 385.375 36.1758 384.672 36.1758C384.039 36.1758 383.415 36.0938 382.8 35.9297C382.185 35.7598 381.625 35.5049 381.121 35.165C380.623 34.8252 380.225 34.3916 379.926 33.8643C379.627 33.3369 379.478 32.7129 379.478 31.9922H382.123C382.123 32.3906 382.185 32.7275 382.308 33.0029C382.431 33.2783 382.604 33.501 382.826 33.6709C383.055 33.8408 383.324 33.9639 383.635 34.04C383.951 34.1162 384.297 34.1543 384.672 34.1543C385.129 34.1543 385.504 34.0898 385.797 33.9609C386.096 33.832 386.315 33.6533 386.456 33.4248C386.603 33.1963 386.676 32.9385 386.676 32.6514ZM399.64 28.415V30.4717H392.96V28.415H399.64ZM393.742 23.2031V36H391.105V23.2031H393.742ZM401.521 23.2031V36H398.893V23.2031H401.521ZM407.734 31.3418V31.1572C407.734 30.46 407.834 29.8184 408.033 29.2324C408.232 28.6406 408.522 28.1279 408.903 27.6943C409.284 27.2607 409.753 26.9238 410.31 26.6836C410.866 26.4375 411.505 26.3145 412.226 26.3145C412.946 26.3145 413.588 26.4375 414.15 26.6836C414.713 26.9238 415.185 27.2607 415.565 27.6943C415.952 28.1279 416.245 28.6406 416.444 29.2324C416.644 29.8184 416.743 30.46 416.743 31.1572V31.3418C416.743 32.0332 416.644 32.6748 416.444 33.2666C416.245 33.8525 415.952 34.3652 415.565 34.8047C415.185 35.2383 414.716 35.5752 414.159 35.8154C413.603 36.0557 412.964 36.1758 412.243 36.1758C411.522 36.1758 410.881 36.0557 410.318 35.8154C409.762 35.5752 409.29 35.2383 408.903 34.8047C408.522 34.3652 408.232 33.8525 408.033 33.2666C407.834 32.6748 407.734 32.0332 407.734 31.3418ZM410.266 31.1572V31.3418C410.266 31.7402 410.301 32.1123 410.371 32.458C410.441 32.8037 410.553 33.1084 410.705 33.3721C410.863 33.6299 411.068 33.832 411.32 33.9785C411.572 34.125 411.88 34.1982 412.243 34.1982C412.595 34.1982 412.896 34.125 413.148 33.9785C413.4 33.832 413.603 33.6299 413.755 33.3721C413.907 33.1084 414.019 32.8037 414.089 32.458C414.165 32.1123 414.203 31.7402 414.203 31.3418V31.1572C414.203 30.7705 414.165 30.4072 414.089 30.0674C414.019 29.7217 413.904 29.417 413.746 29.1533C413.594 28.8838 413.392 28.6729 413.14 28.5205C412.888 28.3682 412.583 28.292 412.226 28.292C411.868 28.292 411.563 28.3682 411.312 28.5205C411.065 28.6729 410.863 28.8838 410.705 29.1533C410.553 29.417 410.441 29.7217 410.371 30.0674C410.301 30.4072 410.266 30.7705 410.266 31.1572ZM423.924 33.7236V26.4902H426.455V36H424.073L423.924 33.7236ZM424.205 31.7725L424.952 31.7549C424.952 32.3877 424.879 32.9766 424.732 33.5215C424.586 34.0605 424.366 34.5293 424.073 34.9277C423.78 35.3203 423.411 35.6279 422.966 35.8506C422.521 36.0674 421.996 36.1758 421.393 36.1758C420.93 36.1758 420.502 36.1113 420.109 35.9824C419.723 35.8477 419.389 35.6396 419.107 35.3584C418.832 35.0713 418.615 34.7051 418.457 34.2598C418.305 33.8086 418.229 33.2666 418.229 32.6338V26.4902H420.76V32.6514C420.76 32.9326 420.792 33.1699 420.856 33.3633C420.927 33.5566 421.023 33.7148 421.146 33.8379C421.27 33.9609 421.413 34.0488 421.577 34.1016C421.747 34.1543 421.935 34.1807 422.14 34.1807C422.661 34.1807 423.071 34.0752 423.37 33.8643C423.675 33.6533 423.889 33.3662 424.012 33.0029C424.141 32.6338 424.205 32.2236 424.205 31.7725ZM433.047 26.4902V28.2832H427.51V26.4902H433.047ZM428.881 24.1436H431.412V33.1348C431.412 33.4102 431.447 33.6211 431.518 33.7676C431.594 33.9141 431.705 34.0166 431.852 34.0752C431.998 34.1279 432.183 34.1543 432.405 34.1543C432.563 34.1543 432.704 34.1484 432.827 34.1367C432.956 34.1191 433.064 34.1016 433.152 34.084L433.161 35.9473C432.944 36.0176 432.71 36.0732 432.458 36.1143C432.206 36.1553 431.928 36.1758 431.623 36.1758C431.066 36.1758 430.58 36.085 430.164 35.9033C429.754 35.7158 429.438 35.417 429.215 35.0068C428.992 34.5967 428.881 34.0576 428.881 33.3896V24.1436ZM441.88 35.0156L444.525 26.4902H446.266L442.451 37.4678C442.363 37.7021 442.246 37.9541 442.1 38.2236C441.959 38.499 441.777 38.7598 441.555 39.0059C441.332 39.252 441.062 39.4512 440.746 39.6035C440.436 39.7617 440.063 39.8408 439.63 39.8408C439.501 39.8408 439.337 39.8232 439.138 39.7881C438.938 39.7529 438.798 39.7236 438.716 39.7002L438.707 38.3818C438.754 38.3877 438.827 38.3936 438.927 38.3994C439.032 38.4111 439.105 38.417 439.146 38.417C439.516 38.417 439.829 38.3672 440.087 38.2676C440.345 38.1738 440.562 38.0127 440.737 37.7842C440.919 37.5615 441.074 37.2539 441.203 36.8613L441.88 35.0156ZM439.938 26.4902L442.407 33.873L442.829 35.5869L441.66 36.1846L438.162 26.4902H439.938ZM447.162 31.3506V31.1484C447.162 30.4629 447.262 29.8271 447.461 29.2412C447.66 28.6494 447.947 28.1367 448.322 27.7031C448.697 27.2637 449.151 26.9238 449.685 26.6836C450.218 26.4375 450.815 26.3145 451.478 26.3145C452.146 26.3145 452.746 26.4375 453.279 26.6836C453.818 26.9238 454.275 27.2637 454.65 27.7031C455.031 28.1367 455.321 28.6494 455.521 29.2412C455.72 29.8271 455.819 30.4629 455.819 31.1484V31.3506C455.819 32.0361 455.72 32.6719 455.521 33.2578C455.321 33.8438 455.031 34.3564 454.65 34.7959C454.275 35.2295 453.821 35.5693 453.288 35.8154C452.761 36.0557 452.163 36.1758 451.495 36.1758C450.827 36.1758 450.227 36.0557 449.693 35.8154C449.16 35.5693 448.703 35.2295 448.322 34.7959C447.947 34.3564 447.66 33.8438 447.461 33.2578C447.262 32.6719 447.162 32.0361 447.162 31.3506ZM448.788 31.1484V31.3506C448.788 31.8252 448.844 32.2734 448.955 32.6953C449.066 33.1113 449.233 33.4805 449.456 33.8027C449.685 34.125 449.969 34.3799 450.309 34.5674C450.648 34.749 451.044 34.8398 451.495 34.8398C451.94 34.8398 452.33 34.749 452.664 34.5674C453.004 34.3799 453.285 34.125 453.508 33.8027C453.73 33.4805 453.897 33.1113 454.009 32.6953C454.126 32.2734 454.185 31.8252 454.185 31.3506V31.1484C454.185 30.6797 454.126 30.2373 454.009 29.8213C453.897 29.3994 453.728 29.0273 453.499 28.7051C453.276 28.377 452.995 28.1191 452.655 27.9316C452.321 27.7441 451.929 27.6504 451.478 27.6504C451.032 27.6504 450.64 27.7441 450.3 27.9316C449.966 28.1191 449.685 28.377 449.456 28.7051C449.233 29.0273 449.066 29.3994 448.955 29.8213C448.844 30.2373 448.788 30.6797 448.788 31.1484ZM463.677 33.8027V26.4902H465.312V36H463.756L463.677 33.8027ZM463.984 31.7988L464.661 31.7812C464.661 32.4141 464.594 33 464.459 33.5391C464.33 34.0723 464.119 34.5352 463.826 34.9277C463.533 35.3203 463.149 35.6279 462.675 35.8506C462.2 36.0674 461.623 36.1758 460.943 36.1758C460.48 36.1758 460.056 36.1084 459.669 35.9736C459.288 35.8389 458.96 35.6309 458.685 35.3496C458.409 35.0684 458.195 34.7021 458.043 34.251C457.896 33.7998 457.823 33.2578 457.823 32.625V26.4902H459.449V32.6426C459.449 33.0703 459.496 33.4248 459.59 33.7061C459.689 33.9814 459.821 34.2012 459.985 34.3652C460.155 34.5234 460.343 34.6348 460.548 34.6992C460.759 34.7637 460.976 34.7959 461.198 34.7959C461.89 34.7959 462.438 34.6641 462.842 34.4004C463.246 34.1309 463.536 33.7705 463.712 33.3193C463.894 32.8623 463.984 32.3555 463.984 31.7988ZM469.416 27.9844V36H467.79V26.4902H469.372L469.416 27.9844ZM472.387 26.4375L472.378 27.9492C472.243 27.9199 472.114 27.9023 471.991 27.8965C471.874 27.8848 471.739 27.8789 471.587 27.8789C471.212 27.8789 470.881 27.9375 470.594 28.0547C470.307 28.1719 470.063 28.3359 469.864 28.5469C469.665 28.7578 469.507 29.0098 469.39 29.3027C469.278 29.5898 469.205 29.9062 469.17 30.252L468.713 30.5156C468.713 29.9414 468.769 29.4023 468.88 28.8984C468.997 28.3945 469.176 27.9492 469.416 27.5625C469.656 27.1699 469.961 26.8652 470.33 26.6484C470.705 26.4258 471.15 26.3145 471.666 26.3145C471.783 26.3145 471.918 26.3291 472.07 26.3584C472.223 26.3818 472.328 26.4082 472.387 26.4375ZM482.16 34.8398C482.547 34.8398 482.904 34.7607 483.232 34.6025C483.561 34.4443 483.83 34.2275 484.041 33.9521C484.252 33.6709 484.372 33.3516 484.401 32.9941H485.948C485.919 33.5566 485.729 34.0811 485.377 34.5674C485.031 35.0479 484.577 35.4375 484.015 35.7363C483.452 36.0293 482.834 36.1758 482.16 36.1758C481.445 36.1758 480.821 36.0498 480.288 35.7979C479.761 35.5459 479.321 35.2002 478.97 34.7607C478.624 34.3213 478.363 33.8174 478.188 33.249C478.018 32.6748 477.933 32.0684 477.933 31.4297V31.0605C477.933 30.4219 478.018 29.8184 478.188 29.25C478.363 28.6758 478.624 28.1689 478.97 27.7295C479.321 27.29 479.761 26.9443 480.288 26.6924C480.821 26.4404 481.445 26.3145 482.16 26.3145C482.904 26.3145 483.555 26.4668 484.111 26.7715C484.668 27.0703 485.104 27.4805 485.421 28.002C485.743 28.5176 485.919 29.1035 485.948 29.7598H484.401C484.372 29.3672 484.261 29.0127 484.067 28.6963C483.88 28.3799 483.622 28.1279 483.294 27.9404C482.972 27.7471 482.594 27.6504 482.16 27.6504C481.662 27.6504 481.243 27.75 480.903 27.9492C480.569 28.1426 480.303 28.4062 480.104 28.7402C479.91 29.0684 479.77 29.4346 479.682 29.8389C479.6 30.2373 479.559 30.6445 479.559 31.0605V31.4297C479.559 31.8457 479.6 32.2559 479.682 32.6602C479.764 33.0645 479.901 33.4307 480.095 33.7588C480.294 34.0869 480.561 34.3506 480.895 34.5498C481.234 34.7432 481.656 34.8398 482.16 34.8398ZM489.402 27.9844V36H487.776V26.4902H489.358L489.402 27.9844ZM492.373 26.4375L492.364 27.9492C492.229 27.9199 492.101 27.9023 491.978 27.8965C491.86 27.8848 491.726 27.8789 491.573 27.8789C491.198 27.8789 490.867 27.9375 490.58 28.0547C490.293 28.1719 490.05 28.3359 489.851 28.5469C489.651 28.7578 489.493 29.0098 489.376 29.3027C489.265 29.5898 489.191 29.9062 489.156 30.252L488.699 30.5156C488.699 29.9414 488.755 29.4023 488.866 28.8984C488.983 28.3945 489.162 27.9492 489.402 27.5625C489.643 27.1699 489.947 26.8652 490.316 26.6484C490.691 26.4258 491.137 26.3145 491.652 26.3145C491.77 26.3145 491.904 26.3291 492.057 26.3584C492.209 26.3818 492.314 26.4082 492.373 26.4375ZM496.706 35.0156L499.352 26.4902H501.092L497.277 37.4678C497.189 37.7021 497.072 37.9541 496.926 38.2236C496.785 38.499 496.604 38.7598 496.381 39.0059C496.158 39.252 495.889 39.4512 495.572 39.6035C495.262 39.7617 494.89 39.8408 494.456 39.8408C494.327 39.8408 494.163 39.8232 493.964 39.7881C493.765 39.7529 493.624 39.7236 493.542 39.7002L493.533 38.3818C493.58 38.3877 493.653 38.3936 493.753 38.3994C493.858 38.4111 493.932 38.417 493.973 38.417C494.342 38.417 494.655 38.3672 494.913 38.2676C495.171 38.1738 495.388 38.0127 495.563 37.7842C495.745 37.5615 495.9 37.2539 496.029 36.8613L496.706 35.0156ZM494.764 26.4902L497.233 33.873L497.655 35.5869L496.486 36.1846L492.988 26.4902H494.764ZM504.186 28.3184V39.6562H502.551V26.4902H504.045L504.186 28.3184ZM510.593 31.166V31.3506C510.593 32.042 510.511 32.6836 510.347 33.2754C510.183 33.8613 509.942 34.3711 509.626 34.8047C509.315 35.2383 508.932 35.5752 508.475 35.8154C508.018 36.0557 507.493 36.1758 506.901 36.1758C506.298 36.1758 505.765 36.0762 505.302 35.877C504.839 35.6777 504.446 35.3877 504.124 35.0068C503.802 34.626 503.544 34.1689 503.351 33.6357C503.163 33.1025 503.034 32.502 502.964 31.834V30.8496C503.034 30.1465 503.166 29.5166 503.359 28.96C503.553 28.4033 503.808 27.9287 504.124 27.5361C504.446 27.1377 504.836 26.8359 505.293 26.6309C505.75 26.4199 506.277 26.3145 506.875 26.3145C507.473 26.3145 508.003 26.4316 508.466 26.666C508.929 26.8945 509.318 27.2227 509.635 27.6504C509.951 28.0781 510.188 28.5908 510.347 29.1885C510.511 29.7803 510.593 30.4395 510.593 31.166ZM508.958 31.3506V31.166C508.958 30.6914 508.908 30.2461 508.809 29.8301C508.709 29.4082 508.554 29.0391 508.343 28.7227C508.138 28.4004 507.874 28.1484 507.552 27.9668C507.229 27.7793 506.846 27.6855 506.4 27.6855C505.99 27.6855 505.633 27.7559 505.328 27.8965C505.029 28.0371 504.774 28.2275 504.563 28.4678C504.353 28.7021 504.18 28.9717 504.045 29.2764C503.916 29.5752 503.819 29.8857 503.755 30.208V32.4844C503.872 32.8945 504.036 33.2812 504.247 33.6445C504.458 34.002 504.739 34.292 505.091 34.5146C505.442 34.7314 505.885 34.8398 506.418 34.8398C506.857 34.8398 507.235 34.749 507.552 34.5674C507.874 34.3799 508.138 34.125 508.343 33.8027C508.554 33.4805 508.709 33.1113 508.809 32.6953C508.908 32.2734 508.958 31.8252 508.958 31.3506ZM516.648 26.4902V27.7383H511.507V26.4902H516.648ZM513.247 24.1787H514.873V33.6445C514.873 33.9668 514.923 34.21 515.022 34.374C515.122 34.5381 515.251 34.6465 515.409 34.6992C515.567 34.752 515.737 34.7783 515.919 34.7783C516.054 34.7783 516.194 34.7666 516.341 34.7432C516.493 34.7139 516.607 34.6904 516.684 34.6729L516.692 36C516.563 36.041 516.394 36.0791 516.183 36.1143C515.978 36.1553 515.729 36.1758 515.436 36.1758C515.037 36.1758 514.671 36.0967 514.337 35.9385C514.003 35.7803 513.736 35.5166 513.537 35.1475C513.344 34.7725 513.247 34.2686 513.247 33.6357V24.1787ZM517.949 31.3506V31.1484C517.949 30.4629 518.049 29.8271 518.248 29.2412C518.447 28.6494 518.734 28.1367 519.109 27.7031C519.484 27.2637 519.938 26.9238 520.472 26.6836C521.005 26.4375 521.603 26.3145 522.265 26.3145C522.933 26.3145 523.533 26.4375 524.066 26.6836C524.605 26.9238 525.062 27.2637 525.438 27.7031C525.818 28.1367 526.108 28.6494 526.308 29.2412C526.507 29.8271 526.606 30.4629 526.606 31.1484V31.3506C526.606 32.0361 526.507 32.6719 526.308 33.2578C526.108 33.8438 525.818 34.3564 525.438 34.7959C525.062 35.2295 524.608 35.5693 524.075 35.8154C523.548 36.0557 522.95 36.1758 522.282 36.1758C521.614 36.1758 521.014 36.0557 520.48 35.8154C519.947 35.5693 519.49 35.2295 519.109 34.7959C518.734 34.3564 518.447 33.8438 518.248 33.2578C518.049 32.6719 517.949 32.0361 517.949 31.3506ZM519.575 31.1484V31.3506C519.575 31.8252 519.631 32.2734 519.742 32.6953C519.854 33.1113 520.021 33.4805 520.243 33.8027C520.472 34.125 520.756 34.3799 521.096 34.5674C521.436 34.749 521.831 34.8398 522.282 34.8398C522.728 34.8398 523.117 34.749 523.451 34.5674C523.791 34.3799 524.072 34.125 524.295 33.8027C524.518 33.4805 524.685 33.1113 524.796 32.6953C524.913 32.2734 524.972 31.8252 524.972 31.3506V31.1484C524.972 30.6797 524.913 30.2373 524.796 29.8213C524.685 29.3994 524.515 29.0273 524.286 28.7051C524.063 28.377 523.782 28.1191 523.442 27.9316C523.108 27.7441 522.716 27.6504 522.265 27.6504C521.819 27.6504 521.427 27.7441 521.087 27.9316C520.753 28.1191 520.472 28.377 520.243 28.7051C520.021 29.0273 519.854 29.3994 519.742 29.8213C519.631 30.2373 519.575 30.6797 519.575 31.1484ZM535.475 28.8984L537.391 27.5361C537.76 27.2842 538.044 27.0322 538.243 26.7803C538.448 26.5225 538.551 26.1709 538.551 25.7256C538.551 25.3799 538.416 25.0664 538.146 24.7852C537.877 24.498 537.496 24.3545 537.004 24.3545C536.664 24.3545 536.377 24.4336 536.143 24.5918C535.908 24.75 535.732 24.9609 535.615 25.2246C535.498 25.4824 535.439 25.7666 535.439 26.0771C535.439 26.3408 535.504 26.6133 535.633 26.8945C535.762 27.1758 535.94 27.4688 536.169 27.7734C536.397 28.0781 536.658 28.4004 536.951 28.7402L543.007 36H541.056L536.09 30.0586C535.65 29.543 535.258 29.0713 534.912 28.6436C534.566 28.21 534.294 27.791 534.095 27.3867C533.901 26.9824 533.805 26.5635 533.805 26.1299C533.805 25.4619 533.937 24.8994 534.2 24.4424C534.47 23.9795 534.845 23.6279 535.325 23.3877C535.806 23.1475 536.368 23.0273 537.013 23.0273C537.64 23.0273 538.179 23.1533 538.63 23.4053C539.087 23.6514 539.438 23.9795 539.685 24.3896C539.931 24.7939 540.054 25.2393 540.054 25.7256C540.054 26.1357 539.98 26.5049 539.834 26.833C539.688 27.1553 539.482 27.4512 539.219 27.7207C538.961 27.9902 538.659 28.2539 538.313 28.5117L535.773 30.4014C535.352 30.7119 535.044 31.0078 534.851 31.2891C534.657 31.5703 534.531 31.8193 534.473 32.0361C534.42 32.2529 534.394 32.4258 534.394 32.5547C534.394 32.9707 534.484 33.3516 534.666 33.6973C534.848 34.043 535.123 34.3213 535.492 34.5322C535.867 34.7373 536.336 34.8398 536.898 34.8398C537.391 34.8398 537.868 34.7285 538.331 34.5059C538.8 34.2773 539.219 33.9551 539.588 33.5391C539.957 33.1172 540.25 32.6162 540.467 32.0361C540.689 31.4502 540.801 30.8027 540.801 30.0938H542.26C542.26 30.6738 542.204 31.2217 542.093 31.7373C541.981 32.2529 541.809 32.7334 541.574 33.1787C541.346 33.6182 541.053 34.0195 540.695 34.3828C540.643 34.4355 540.602 34.4971 540.572 34.5674C540.543 34.6377 540.502 34.6992 540.449 34.752C540.01 35.2266 539.468 35.584 538.823 35.8242C538.185 36.0586 537.543 36.1758 536.898 36.1758C536.049 36.1758 535.313 36.0205 534.692 35.71C534.077 35.3994 533.603 34.9717 533.269 34.4268C532.935 33.8818 532.768 33.2578 532.768 32.5547C532.768 32.0156 532.882 31.541 533.11 31.1309C533.345 30.7207 533.664 30.3369 534.068 29.9795C534.479 29.6221 534.947 29.2617 535.475 28.8984ZM550.407 22.5V36H548.772V22.5H550.407ZM556.217 26.4902L552.068 30.9287L549.748 33.3369L549.616 31.6055L551.277 29.6191L554.23 26.4902H556.217ZM554.731 36L551.339 31.4648L552.183 30.0146L556.647 36H554.731ZM561.666 36.1758C561.004 36.1758 560.403 36.0645 559.864 35.8418C559.331 35.6133 558.871 35.2939 558.484 34.8838C558.104 34.4736 557.811 33.9873 557.605 33.4248C557.4 32.8623 557.298 32.2471 557.298 31.5791V31.21C557.298 30.4365 557.412 29.748 557.641 29.1445C557.869 28.5352 558.18 28.0195 558.572 27.5977C558.965 27.1758 559.41 26.8564 559.908 26.6396C560.406 26.4229 560.922 26.3145 561.455 26.3145C562.135 26.3145 562.721 26.4316 563.213 26.666C563.711 26.9004 564.118 27.2285 564.435 27.6504C564.751 28.0664 564.985 28.5586 565.138 29.127C565.29 29.6895 565.366 30.3047 565.366 30.9727V31.7021H558.265V30.375H563.74V30.252C563.717 29.8301 563.629 29.4199 563.477 29.0215C563.33 28.623 563.096 28.2949 562.773 28.0371C562.451 27.7793 562.012 27.6504 561.455 27.6504C561.086 27.6504 560.746 27.7295 560.436 27.8877C560.125 28.04 559.858 28.2686 559.636 28.5732C559.413 28.8779 559.24 29.25 559.117 29.6895C558.994 30.1289 558.933 30.6357 558.933 31.21V31.5791C558.933 32.0303 558.994 32.4551 559.117 32.8535C559.246 33.2461 559.431 33.5918 559.671 33.8906C559.917 34.1895 560.213 34.4238 560.559 34.5938C560.91 34.7637 561.309 34.8486 561.754 34.8486C562.328 34.8486 562.814 34.7314 563.213 34.4971C563.611 34.2627 563.96 33.9492 564.259 33.5566L565.243 34.3389C565.038 34.6494 564.777 34.9453 564.461 35.2266C564.145 35.5078 563.755 35.7363 563.292 35.9121C562.835 36.0879 562.293 36.1758 561.666 36.1758ZM571.211 36.1758C570.549 36.1758 569.948 36.0645 569.409 35.8418C568.876 35.6133 568.416 35.2939 568.029 34.8838C567.648 34.4736 567.355 33.9873 567.15 33.4248C566.945 32.8623 566.843 32.2471 566.843 31.5791V31.21C566.843 30.4365 566.957 29.748 567.186 29.1445C567.414 28.5352 567.725 28.0195 568.117 27.5977C568.51 27.1758 568.955 26.8564 569.453 26.6396C569.951 26.4229 570.467 26.3145 571 26.3145C571.68 26.3145 572.266 26.4316 572.758 26.666C573.256 26.9004 573.663 27.2285 573.979 27.6504C574.296 28.0664 574.53 28.5586 574.683 29.127C574.835 29.6895 574.911 30.3047 574.911 30.9727V31.7021H567.81V30.375H573.285V30.252C573.262 29.8301 573.174 29.4199 573.021 29.0215C572.875 28.623 572.641 28.2949 572.318 28.0371C571.996 27.7793 571.557 27.6504 571 27.6504C570.631 27.6504 570.291 27.7295 569.98 27.8877C569.67 28.04 569.403 28.2686 569.181 28.5732C568.958 28.8779 568.785 29.25 568.662 29.6895C568.539 30.1289 568.478 30.6357 568.478 31.21V31.5791C568.478 32.0303 568.539 32.4551 568.662 32.8535C568.791 33.2461 568.976 33.5918 569.216 33.8906C569.462 34.1895 569.758 34.4238 570.104 34.5938C570.455 34.7637 570.854 34.8486 571.299 34.8486C571.873 34.8486 572.359 34.7314 572.758 34.4971C573.156 34.2627 573.505 33.9492 573.804 33.5566L574.788 34.3389C574.583 34.6494 574.322 34.9453 574.006 35.2266C573.689 35.5078 573.3 35.7363 572.837 35.9121C572.38 36.0879 571.838 36.1758 571.211 36.1758ZM578.436 28.3184V39.6562H576.801V26.4902H578.295L578.436 28.3184ZM584.843 31.166V31.3506C584.843 32.042 584.761 32.6836 584.597 33.2754C584.433 33.8613 584.192 34.3711 583.876 34.8047C583.565 35.2383 583.182 35.5752 582.725 35.8154C582.268 36.0557 581.743 36.1758 581.151 36.1758C580.548 36.1758 580.015 36.0762 579.552 35.877C579.089 35.6777 578.696 35.3877 578.374 35.0068C578.052 34.626 577.794 34.1689 577.601 33.6357C577.413 33.1025 577.284 32.502 577.214 31.834V30.8496C577.284 30.1465 577.416 29.5166 577.609 28.96C577.803 28.4033 578.058 27.9287 578.374 27.5361C578.696 27.1377 579.086 26.8359 579.543 26.6309C580 26.4199 580.527 26.3145 581.125 26.3145C581.723 26.3145 582.253 26.4316 582.716 26.666C583.179 26.8945 583.568 27.2227 583.885 27.6504C584.201 28.0781 584.438 28.5908 584.597 29.1885C584.761 29.7803 584.843 30.4395 584.843 31.166ZM583.208 31.3506V31.166C583.208 30.6914 583.158 30.2461 583.059 29.8301C582.959 29.4082 582.804 29.0391 582.593 28.7227C582.388 28.4004 582.124 28.1484 581.802 27.9668C581.479 27.7793 581.096 27.6855 580.65 27.6855C580.24 27.6855 579.883 27.7559 579.578 27.8965C579.279 28.0371 579.024 28.2275 578.813 28.4678C578.603 28.7021 578.43 28.9717 578.295 29.2764C578.166 29.5752 578.069 29.8857 578.005 30.208V32.4844C578.122 32.8945 578.286 33.2812 578.497 33.6445C578.708 34.002 578.989 34.292 579.341 34.5146C579.692 34.7314 580.135 34.8398 580.668 34.8398C581.107 34.8398 581.485 34.749 581.802 34.5674C582.124 34.3799 582.388 34.125 582.593 33.8027C582.804 33.4805 582.959 33.1113 583.059 32.6953C583.158 32.2734 583.208 31.8252 583.208 31.3506ZM599.819 28.415V30.4717H593.14V28.415H599.819ZM593.922 23.2031V36H591.285V23.2031H593.922ZM601.7 23.2031V36H599.072V23.2031H601.7ZM614.506 29.3027V29.9092C614.506 30.8818 614.374 31.7549 614.11 32.5283C613.847 33.3018 613.475 33.9609 612.994 34.5059C612.514 35.0449 611.939 35.458 611.271 35.7451C610.609 36.0322 609.874 36.1758 609.065 36.1758C608.263 36.1758 607.527 36.0322 606.859 35.7451C606.197 35.458 605.623 35.0449 605.137 34.5059C604.65 33.9609 604.272 33.3018 604.003 32.5283C603.739 31.7549 603.607 30.8818 603.607 29.9092V29.3027C603.607 28.3242 603.739 27.4512 604.003 26.6836C604.267 25.9102 604.639 25.251 605.119 24.7061C605.605 24.1611 606.18 23.7451 606.842 23.458C607.51 23.1709 608.245 23.0273 609.048 23.0273C609.856 23.0273 610.592 23.1709 611.254 23.458C611.922 23.7451 612.496 24.1611 612.977 24.7061C613.463 25.251 613.838 25.9102 614.102 26.6836C614.371 27.4512 614.506 28.3242 614.506 29.3027ZM611.843 29.9092V29.2852C611.843 28.6055 611.781 28.0078 611.658 27.4922C611.535 26.9766 611.354 26.543 611.113 26.1914C610.873 25.8398 610.58 25.5762 610.234 25.4004C609.889 25.2188 609.493 25.1279 609.048 25.1279C608.603 25.1279 608.207 25.2188 607.861 25.4004C607.521 25.5762 607.231 25.8398 606.991 26.1914C606.757 26.543 606.578 26.9766 606.455 27.4922C606.332 28.0078 606.271 28.6055 606.271 29.2852V29.9092C606.271 30.583 606.332 31.1807 606.455 31.7021C606.578 32.2178 606.76 32.6543 607 33.0117C607.24 33.3633 607.533 33.6299 607.879 33.8115C608.225 33.9932 608.62 34.084 609.065 34.084C609.511 34.084 609.906 33.9932 610.252 33.8115C610.598 33.6299 610.888 33.3633 611.122 33.0117C611.356 32.6543 611.535 32.2178 611.658 31.7021C611.781 31.1807 611.843 30.583 611.843 29.9092ZM624.631 33.9434V36H618.188V33.9434H624.631ZM619.041 23.2031V36H616.404V23.2031H619.041ZM630.071 36H627.285L627.303 33.9434H630.071C630.763 33.9434 631.346 33.7881 631.82 33.4775C632.295 33.1611 632.652 32.7012 632.893 32.0977C633.139 31.4941 633.262 30.7646 633.262 29.9092V29.2852C633.262 28.6289 633.191 28.0518 633.051 27.5537C632.916 27.0557 632.714 26.6367 632.444 26.2969C632.175 25.957 631.844 25.7021 631.451 25.5322C631.059 25.3564 630.607 25.2686 630.098 25.2686H627.232V23.2031H630.098C630.953 23.2031 631.735 23.3496 632.444 23.6426C633.159 23.9297 633.777 24.3428 634.299 24.8818C634.82 25.4209 635.222 26.0654 635.503 26.8154C635.79 27.5596 635.934 28.3887 635.934 29.3027V29.9092C635.934 30.8174 635.79 31.6465 635.503 32.3965C635.222 33.1465 634.82 33.791 634.299 34.3301C633.783 34.8633 633.165 35.2764 632.444 35.5693C631.729 35.8564 630.938 36 630.071 36ZM628.779 23.2031V36H626.143V23.2031H628.779ZM640.363 26.4902V36H637.823V26.4902H640.363ZM637.665 24.0117C637.665 23.6426 637.794 23.3379 638.052 23.0977C638.31 22.8574 638.655 22.7373 639.089 22.7373C639.517 22.7373 639.859 22.8574 640.117 23.0977C640.381 23.3379 640.513 23.6426 640.513 24.0117C640.513 24.3809 640.381 24.6855 640.117 24.9258C639.859 25.166 639.517 25.2861 639.089 25.2861C638.655 25.2861 638.31 25.166 638.052 24.9258C637.794 24.6855 637.665 24.3809 637.665 24.0117ZM644.934 28.5205V36H642.402V26.4902H644.775L644.934 28.5205ZM644.564 30.9111H643.879C643.879 30.208 643.97 29.5752 644.151 29.0127C644.333 28.4443 644.588 27.9609 644.916 27.5625C645.244 27.1582 645.634 26.8506 646.085 26.6396C646.542 26.4229 647.052 26.3145 647.614 26.3145C648.06 26.3145 648.467 26.3789 648.836 26.5078C649.205 26.6367 649.521 26.8418 649.785 27.123C650.055 27.4043 650.26 27.7764 650.4 28.2393C650.547 28.7021 650.62 29.2676 650.62 29.9355V36H648.071V29.9268C648.071 29.5049 648.013 29.1768 647.896 28.9424C647.778 28.708 647.605 28.5439 647.377 28.4502C647.154 28.3506 646.879 28.3008 646.551 28.3008C646.211 28.3008 645.915 28.3682 645.663 28.5029C645.417 28.6377 645.212 28.8252 645.048 29.0654C644.89 29.2998 644.77 29.5752 644.688 29.8916C644.605 30.208 644.564 30.5479 644.564 30.9111ZM658.565 26.4902H660.859V35.6836C660.859 36.5508 660.666 37.2861 660.279 37.8896C659.898 38.499 659.365 38.959 658.68 39.2695C657.994 39.5859 657.197 39.7441 656.289 39.7441C655.891 39.7441 655.469 39.6914 655.023 39.5859C654.584 39.4805 654.162 39.3164 653.758 39.0938C653.359 38.8711 653.025 38.5898 652.756 38.25L653.872 36.7559C654.165 37.0957 654.505 37.3594 654.892 37.5469C655.278 37.7402 655.706 37.8369 656.175 37.8369C656.632 37.8369 657.019 37.752 657.335 37.582C657.651 37.418 657.895 37.1748 658.064 36.8525C658.234 36.5361 658.319 36.1523 658.319 35.7012V28.6875L658.565 26.4902ZM652.167 31.3594V31.1748C652.167 30.4482 652.255 29.7891 652.431 29.1973C652.612 28.5996 652.867 28.0869 653.195 27.6592C653.529 27.2314 653.934 26.9004 654.408 26.666C654.883 26.4316 655.419 26.3145 656.017 26.3145C656.649 26.3145 657.18 26.4316 657.607 26.666C658.035 26.9004 658.387 27.2344 658.662 27.668C658.938 28.0957 659.151 28.6025 659.304 29.1885C659.462 29.7686 659.585 30.4043 659.673 31.0957V31.5C659.585 32.1621 659.453 32.7773 659.277 33.3457C659.102 33.9141 658.87 34.4121 658.583 34.8398C658.296 35.2617 657.938 35.5898 657.511 35.8242C657.089 36.0586 656.585 36.1758 655.999 36.1758C655.413 36.1758 654.883 36.0557 654.408 35.8154C653.939 35.5752 653.538 35.2383 653.204 34.8047C652.87 34.3711 652.612 33.8613 652.431 33.2754C652.255 32.6895 652.167 32.0508 652.167 31.3594ZM654.698 31.1748V31.3594C654.698 31.752 654.736 32.1182 654.812 32.458C654.889 32.7979 655.006 33.0996 655.164 33.3633C655.328 33.6211 655.53 33.8232 655.771 33.9697C656.017 34.1104 656.307 34.1807 656.641 34.1807C657.104 34.1807 657.481 34.084 657.774 33.8906C658.067 33.6914 658.287 33.4189 658.434 33.0732C658.58 32.7275 658.665 32.3291 658.688 31.8779V30.7266C658.677 30.3574 658.627 30.0264 658.539 29.7334C658.451 29.4346 658.328 29.1797 658.17 28.9688C658.012 28.7578 657.807 28.5938 657.555 28.4766C657.303 28.3594 657.004 28.3008 656.658 28.3008C656.324 28.3008 656.034 28.377 655.788 28.5293C655.548 28.6758 655.346 28.8779 655.182 29.1357C655.023 29.3936 654.903 29.6982 654.821 30.0498C654.739 30.3955 654.698 30.7705 654.698 31.1748Z" fill="#F4F8FE"/>
<g filter="url(#filter0_d_9811_60230)">
<rect x="697" y="15" width="157" height="30" rx="8" fill="#1168F1"/>
</g>
<path d="M737.777 29.7979V33.7422C737.622 33.929 737.383 34.1318 737.06 34.3506C736.736 34.5648 736.319 34.7493 735.809 34.9043C735.298 35.0592 734.681 35.1367 733.956 35.1367C733.313 35.1367 732.728 35.0319 732.199 34.8223C731.671 34.6081 731.215 34.2959 730.832 33.8857C730.454 33.4756 730.162 32.9743 729.957 32.3818C729.752 31.7848 729.649 31.1035 729.649 30.3379V29.7158C729.649 28.9502 729.747 28.2689 729.943 27.6719C730.144 27.0749 730.429 26.5713 730.798 26.1611C731.167 25.751 731.607 25.4388 732.117 25.2246C732.628 25.0104 733.195 24.9033 733.819 24.9033C734.685 24.9033 735.396 25.0446 735.952 25.3271C736.508 25.6051 736.932 25.9925 737.224 26.4893C737.52 26.9814 737.702 27.5465 737.771 28.1846H735.781C735.731 27.8473 735.635 27.5534 735.494 27.3027C735.353 27.0521 735.15 26.8561 734.886 26.7148C734.626 26.5736 734.289 26.5029 733.874 26.5029C733.532 26.5029 733.227 26.5736 732.958 26.7148C732.694 26.8516 732.47 27.0544 732.288 27.3232C732.106 27.5921 731.967 27.9248 731.871 28.3213C731.775 28.7178 731.728 29.1781 731.728 29.7021V30.3379C731.728 30.8574 731.778 31.3177 731.878 31.7188C731.978 32.1152 732.126 32.4502 732.322 32.7236C732.523 32.9925 732.769 33.1953 733.061 33.332C733.352 33.4688 733.692 33.5371 734.079 33.5371C734.403 33.5371 734.672 33.5098 734.886 33.4551C735.104 33.4004 735.28 33.3343 735.412 33.2568C735.549 33.1748 735.654 33.0973 735.727 33.0244V31.2607H733.854V29.7979H737.777ZM747.61 33.4004V35H742.312V33.4004H747.61ZM742.982 25.0469V35H740.932V25.0469H742.982ZM746.92 29.1006V30.6592H742.312V29.1006H746.92ZM747.604 25.0469V26.6533H742.312V25.0469H747.604ZM754.894 25.0469V35H752.85V25.0469H754.894ZM757.956 25.0469V26.6533H749.835V25.0469H757.956ZM769.289 26.749L766.582 35H764.401L768.1 25.0469H769.487L769.289 26.749ZM771.538 35L768.824 26.749L768.605 25.0469H770.007L773.726 35H771.538ZM771.415 31.2949V32.9014H766.158V31.2949H771.415ZM787.533 33.4004V35H782.522V33.4004H787.533ZM783.186 25.0469V35H781.135V25.0469H783.186ZM797.934 29.791V30.2627C797.934 31.0192 797.831 31.6982 797.626 32.2998C797.421 32.9014 797.132 33.4141 796.758 33.8379C796.384 34.2572 795.938 34.5785 795.418 34.8018C794.903 35.0251 794.331 35.1367 793.702 35.1367C793.078 35.1367 792.506 35.0251 791.986 34.8018C791.471 34.5785 791.025 34.2572 790.646 33.8379C790.268 33.4141 789.974 32.9014 789.765 32.2998C789.56 31.6982 789.457 31.0192 789.457 30.2627V29.791C789.457 29.0299 789.56 28.3509 789.765 27.7539C789.97 27.1523 790.259 26.6396 790.633 26.2158C791.011 25.792 791.458 25.4684 791.973 25.2451C792.492 25.0218 793.064 24.9102 793.688 24.9102C794.317 24.9102 794.889 25.0218 795.404 25.2451C795.924 25.4684 796.37 25.792 796.744 26.2158C797.122 26.6396 797.414 27.1523 797.619 27.7539C797.829 28.3509 797.934 29.0299 797.934 29.791ZM795.862 30.2627V29.7773C795.862 29.2487 795.814 28.7839 795.719 28.3828C795.623 27.9818 795.482 27.6445 795.295 27.3711C795.108 27.0977 794.88 26.8926 794.611 26.7559C794.342 26.6146 794.035 26.5439 793.688 26.5439C793.342 26.5439 793.035 26.6146 792.766 26.7559C792.501 26.8926 792.276 27.0977 792.089 27.3711C791.907 27.6445 791.768 27.9818 791.672 28.3828C791.576 28.7839 791.528 29.2487 791.528 29.7773V30.2627C791.528 30.7868 791.576 31.2516 791.672 31.6572C791.768 32.0583 791.909 32.3978 792.096 32.6758C792.283 32.9492 792.51 33.1566 792.779 33.2979C793.048 33.4391 793.356 33.5098 793.702 33.5098C794.049 33.5098 794.356 33.4391 794.625 33.2979C794.894 33.1566 795.119 32.9492 795.302 32.6758C795.484 32.3978 795.623 32.0583 795.719 31.6572C795.814 31.2516 795.862 30.7868 795.862 30.2627ZM804.807 26.749L802.1 35H799.919L803.617 25.0469H805.005L804.807 26.749ZM807.056 35L804.342 26.749L804.123 25.0469H805.524L809.243 35H807.056ZM806.933 31.2949V32.9014H801.676V31.2949H806.933ZM819.767 25.0469V35H817.716L813.717 28.3281V35H811.666V25.0469H813.717L817.723 31.7256V25.0469H819.767Z" fill="#F4F8FE"/>
<path fill-rule="evenodd" clip-rule="evenodd" d="M1071.81 10.9208C1070.33 9.73333 1066.77 9.88183 1064.99 11.2175C1051.04 4.09386 1058.75 16.412 1061.43 16.412H1074.19C1076.27 16.412 1083.69 4.98399 1071.82 10.9208H1071.81Z" fill="white"/>
<path d="M1061.43 20.4195C1059.5 20.4195 1059.5 17.5995 1061.43 17.5995H1074.19C1075.97 17.5995 1075.97 20.4195 1074.19 20.4195H1061.43Z" fill="white"/>
<path fill-rule="evenodd" clip-rule="evenodd" d="M1060.54 21.6068C1018.68 61.0848 1117.97 60.64 1074.93 21.6068H1060.54ZM1072.85 38.2287C1073 40.4551 1071.22 41.4939 1069.29 41.6422C1069.29 42.2358 1069.29 43.1264 1068.4 43.1264C1067.51 43.1264 1067.51 42.2361 1067.51 41.6422C1066.47 41.4937 1064.99 41.0486 1064.39 40.158C1062.91 38.377 1065.14 36.8928 1066.03 38.6738C1067.21 40.603 1070.33 40.3063 1070.33 38.8223C1070.33 36.4478 1063.95 37.7834 1063.95 34.0732C1063.95 32.1439 1065.88 31.2533 1067.51 31.1051C1067.51 30.363 1067.36 29.4726 1068.4 29.4726C1069.29 29.4726 1069.29 30.5115 1069.29 31.1051C1070.18 31.2536 1071.52 31.6986 1072.11 32.5893C1073 34.0735 1071.37 34.9638 1070.48 34.2218C1069.59 33.4797 1069.59 32.7376 1068.1 32.7376C1067.36 32.7376 1066.47 33.0344 1066.47 33.7765C1066.32 35.7058 1072.56 34.8154 1072.85 38.2288L1072.85 38.2287Z" fill="white"/>
<path d="M1048 8V11M1048 14V11M1048 11H1045H1051" stroke="white" stroke-width="2" stroke-linecap="round" stroke-linejoin="round"/>
<path d="M1088 18V21M1088 24V21M1088 21H1085H1091" stroke="white" stroke-width="2" stroke-linecap="round" stroke-linejoin="round"/>
<circle cx="1048.5" cy="21.5" r="1.5" fill="white"/>
</g>
<defs>
<filter id="filter0_d_9811_60230" x="691" y="9" width="173" height="46" filterUnits="userSpaceOnUse" color-interpolation-filters="sRGB">
<feFlood flood-opacity="0" result="BackgroundImageFix"/>
<feColorMatrix in="SourceAlpha" type="matrix" values="0 0 0 0 0 0 0 0 0 0 0 0 0 0 0 0 0 0 127 0" result="hardAlpha"/>
<feOffset dx="2" dy="2"/>
<feGaussianBlur stdDeviation="4"/>
<feComposite in2="hardAlpha" operator="out"/>
<feColorMatrix type="matrix" values="0 0 0 0 0 0 0 0 0 0 0 0 0 0 0 0 0 0 0.1 0"/>
<feBlend mode="normal" in2="BackgroundImageFix" result="effect1_dropShadow_9811_60230"/>
<feBlend mode="normal" in="SourceGraphic" in2="effect1_dropShadow_9811_60230" result="shape"/>
</filter>
<clipPath id="clip0_9811_60230">
<rect width="1134" height="60" rx="8" fill="white"/>
</clipPath>
</defs>
</svg>