<svg xmlns:xlink="http://www.w3.org/1999/xlink" xmlns="http://www.w3.org/2000/svg" width="93" height="26" viewBox="0 0 93 26" fill="none">
<path fill-rule="evenodd" clip-rule="evenodd" d="M41.6274 11.9099C41.2947 10.0648 39.6314 8.55512 37.6354 8.55512C35.7225 8.55512 33.976 9.89705 33.6433 11.9099H41.6274ZM33.5601 14.0906C34.1423 16.3551 35.8888 17.6131 37.8849 17.6131C39.5482 17.6131 41.0452 16.6906 41.9601 15.768L43.6234 17.7809C41.8769 19.5422 39.7146 20.297 37.8849 20.297C33.7265 20.297 30.7324 16.8583 30.7324 13.0003C30.7324 9.05834 33.8096 6.039 37.6354 6.039C41.6274 6.039 44.6215 9.22608 44.6215 14.0067H33.5601V14.0906Z" fill="white"/>
<path fill-rule="evenodd" clip-rule="evenodd" d="M57.7604 13.2515C57.7604 10.8193 55.8475 8.89025 53.4356 8.89025C51.0238 8.89025 49.1109 10.8193 49.1109 13.2515C49.1109 15.5999 51.0238 17.5289 53.4356 17.5289C55.8475 17.5289 57.7604 15.5999 57.7604 13.2515ZM57.6772 7.79994V0.838684H60.4217V20.1289H58.093V18.3676C56.9287 19.5418 55.1822 20.2966 53.3525 20.2966C49.4436 20.2966 46.2832 17.1096 46.2832 13.1677C46.2832 9.22574 49.4436 6.03866 53.3525 6.03866C55.0158 6.12253 56.596 6.70962 57.6772 7.79994Z" fill="white"/>
<path fill-rule="evenodd" clip-rule="evenodd" d="M73.4809 13.2515C73.4809 10.8192 71.568 8.89022 69.1562 8.89022C66.8275 8.89022 64.8314 10.8192 64.8314 13.2515C64.8314 15.5999 66.7443 17.6128 69.1562 17.6128C71.568 17.5289 73.4809 15.5999 73.4809 13.2515ZM76.2254 18.5353C76.2254 23.8192 73.0651 25.8321 69.9047 25.8321C68.7403 25.8321 67.3265 25.5805 65.9958 24.6579L67.077 22.3934C67.9918 22.8966 68.7403 23.2321 69.7384 23.2321C71.9839 23.2321 73.5641 21.6385 73.5641 18.6192C72.3997 19.7095 70.8195 20.3805 69.1562 20.3805C65.2473 20.3805 62.0869 17.1934 62.0869 13.2515C62.0869 9.30958 65.2473 6.1225 69.1562 6.1225C70.9859 6.1225 72.5661 6.87733 73.8136 8.05152V6.37411H76.2254V18.5353Z" fill="white"/>
<path fill-rule="evenodd" clip-rule="evenodd" d="M88.8657 11.9099C88.533 10.0647 86.8697 8.55506 84.8736 8.55506C82.9608 8.55506 81.2143 9.89698 80.8816 11.9099H88.8657ZM80.7984 14.0905C81.3806 16.355 83.1271 17.6131 85.1231 17.6131C86.7865 17.6131 88.2835 16.6905 89.1984 15.7679L90.8617 17.7808C89.1152 19.5421 86.9528 20.2969 85.1231 20.2969C80.9647 20.2969 77.9707 16.8582 77.9707 13.0002C77.9707 9.05828 81.0479 6.03894 84.8736 6.03894C88.8657 6.03894 91.8597 9.22602 91.8597 14.0066H80.7984V14.0905Z" fill="white"/>
<path fill-rule="evenodd" clip-rule="evenodd" d="M27.6114 3.7616L19.6026 25.9997H1.06152L5.23052 14.3828H12.5811L16.421 3.7616H27.6114Z" fill="#66EDA8"/>
<path fill-rule="evenodd" clip-rule="evenodd" d="M14.7767 0L10.6077 11.6169H0.624023L4.79302 0H14.7767Z" fill="#66EDA8"/>
</svg>