<svg xmlns:xlink="http://www.w3.org/1999/xlink" xmlns="http://www.w3.org/2000/svg" width="76" height="26" viewBox="0 0 76 26" fill="none">
<g clip-path="url(#clip0_2284_8363)">
<path fill-rule="evenodd" clip-rule="evenodd" d="M23.829 2.89282C23.8548 2.9217 23.8703 2.95766 23.8734 2.99547C23.8893 3.18093 25.3035 21.579 12.0903 25.8639C12.0505 25.8768 12.0075 25.8768 11.9678 25.8639C-1.24501 21.579 0.169106 3.18093 0.184674 2.99547C0.187849 2.95777 0.203391 2.92196 0.229081 2.89311C0.25477 2.86426 0.28932 2.84385 0.327854 2.83472L11.9843 0.131293C12.0137 0.124693 12.0443 0.124693 12.0738 0.131293L23.7297 2.83472C23.7685 2.8436 23.8031 2.86394 23.829 2.89282ZM21.6837 4.85722C21.7047 4.88062 21.7175 4.90969 21.7202 4.94038H21.7215C21.7346 5.09165 22.8912 20.112 12.0792 23.6097C12.0475 23.6211 12.0124 23.6211 11.9807 23.6097C1.16819 20.112 2.32535 5.09165 2.33833 4.94038C2.34084 4.90969 2.35349 4.88053 2.37448 4.85713C2.39547 4.83375 2.42371 4.81728 2.45512 4.81013L11.9918 2.60172C12.016 2.59596 12.0412 2.59596 12.0654 2.60172L21.6031 4.81013C21.6344 4.81737 21.6625 4.83386 21.6837 4.85722Z" fill="#798CE5"/>
<path d="M11.8952 5.89833L5.53616 7.36978C5.51519 7.37486 5.49644 7.38607 5.48245 7.40179C5.46851 7.41752 5.46005 7.43704 5.45829 7.45756C5.45008 7.55853 4.67879 17.5722 11.886 19.9043C11.9077 19.9108 11.9311 19.9108 11.9527 19.9043C19.1599 17.5718 18.3891 7.55853 18.3805 7.45716C18.3787 7.43656 18.3703 7.41698 18.3562 7.40127C18.3422 7.38558 18.3232 7.37454 18.3021 7.36978L11.9435 5.89792C11.9277 5.89389 11.911 5.89389 11.8952 5.89792" fill="#798CE5"/>
<path d="M33.5321 14.3976V12.9348H36.0185V17.2369C34.8213 17.4238 33.8503 17.5175 33.1051 17.5175C31.7741 17.5175 30.8574 17.172 30.3551 16.4815C29.8612 15.7909 29.6143 14.6938 29.6143 13.1908C29.6143 11.6879 29.8738 10.6035 30.3928 9.93671C30.9118 9.27079 31.795 8.9375 33.0424 8.9375C33.8209 8.9375 34.6623 9.02297 35.5664 9.19344L36.0185 9.27891L35.9682 10.5829C34.9636 10.4774 34.1391 10.4243 33.4944 10.4243C32.8582 10.4243 32.4103 10.4973 32.1508 10.6435C31.8913 10.7899 31.6987 11.0621 31.5732 11.4601C31.456 11.8504 31.3974 12.5249 31.3974 13.4833C31.3974 14.4342 31.5188 15.1001 31.7616 15.4821C32.0043 15.864 32.5066 16.0552 33.2684 16.0552L34.3107 16.0061V14.3976H33.5321Z" fill="#798CE5"/>
<path d="M39.313 14.6045C39.313 15.5715 39.8194 16.0552 40.8324 16.0552C41.8454 16.0552 42.3519 15.5715 42.3519 14.6045V9.08368H44.0847V14.5681C44.0847 15.5835 43.8127 16.331 43.2685 16.8107C42.7327 17.2818 41.9207 17.5175 40.8324 17.5175C39.7441 17.5175 38.9279 17.2818 38.3837 16.8107C37.848 16.331 37.5801 15.5835 37.5801 14.5681V9.08368H39.313V14.6045Z" fill="#798CE5"/>
<path d="M45.0947 17.3712L47.016 9.08368H50.306L52.2272 17.3712H50.4943L50.1553 15.8724H47.1667L46.8276 17.3712H45.0947ZM48.3596 10.4734L47.4932 14.4096H49.8288L48.9624 10.4734H48.3596Z" fill="#798CE5"/>
<path d="M55.0932 14.5924V17.3712H53.3604V9.08368H56.6755C58.6846 9.08368 59.6892 9.99376 59.6892 11.8138C59.6892 12.8945 59.2707 13.6908 58.4334 14.2028L59.6515 17.3712H57.7554L56.7634 14.5924H55.0932ZM56.7005 13.1544C57.1107 13.1544 57.4163 13.0326 57.6174 12.7887C57.8183 12.5453 57.9186 12.224 57.9186 11.8258C57.9186 11.4277 57.8098 11.1112 57.5921 10.8754C57.3829 10.6399 57.0773 10.5218 56.6755 10.5218H55.0932V13.1544H56.7005Z" fill="#798CE5"/>
<path d="M64.0288 17.3712H61.1533V9.08368H64.0288C64.7657 9.08368 65.3725 9.16103 65.8496 9.31557C66.327 9.46133 66.6953 9.70955 66.9548 10.0591C67.2226 10.4001 67.4068 10.806 67.5072 11.2778C67.6078 11.7406 67.6578 12.3461 67.6578 13.0937C67.6578 13.8409 67.6119 14.4623 67.5198 14.9581C67.4279 15.4456 67.2519 15.8844 66.9924 16.2741C66.7412 16.6559 66.373 16.9365 65.8873 17.1152C65.4018 17.286 64.7824 17.3712 64.0288 17.3712ZM65.8496 14.0805C65.8665 13.8209 65.8749 13.463 65.8749 13.008C65.8749 12.5453 65.858 12.1753 65.8246 11.8991C65.791 11.623 65.7116 11.3708 65.586 11.1435C65.4604 10.9158 65.2721 10.7617 65.021 10.6802C64.7781 10.5909 64.4475 10.5464 64.0288 10.5464H62.8862V15.909H64.0288C64.6568 15.909 65.1129 15.7543 65.3977 15.4456C65.6404 15.1938 65.791 14.7388 65.8496 14.0805Z" fill="#798CE5"/>
<path d="M68.3213 17.3712L70.2425 9.08368H73.5324L75.4538 17.3712H73.721L73.3818 15.8724H70.3931L70.0542 17.3712H68.3213ZM71.5862 10.4734L70.7196 14.4096H73.0552L72.1889 10.4734H71.5862Z" fill="#798CE5"/>
</g>
<defs>
<clipPath id="clip0_2284_8363">
<rect width="76" height="26" fill="white"/>
</clipPath>
</defs>
</svg>