<svg xmlns:xlink="http://www.w3.org/1999/xlink" xmlns="http://www.w3.org/2000/svg" width="67" height="24" viewBox="0 0 67 24" fill="none">
<g clip-path="url(#clip0_921_11372)">
<path fill-rule="evenodd" clip-rule="evenodd" d="M20.9285 2.67031C20.9511 2.69697 20.9648 2.73016 20.9674 2.76507C20.9814 2.93626 22.2235 19.9191 10.6184 23.8744C10.5835 23.8863 10.5457 23.8863 10.5109 23.8744C-1.0938 19.9191 0.148206 2.93626 0.161879 2.76507C0.164668 2.73026 0.178318 2.69721 0.200881 2.67058C0.223444 2.64394 0.253788 2.6251 0.287633 2.61668L10.5253 0.121207C10.5512 0.115115 10.5781 0.115115 10.604 0.121207L20.8412 2.61668C20.8753 2.62487 20.9057 2.64365 20.9285 2.67031ZM19.0442 4.4836C19.0626 4.5052 19.074 4.53204 19.0763 4.56037H19.0775C19.0889 4.7 20.1048 18.565 10.6087 21.7935C10.5809 21.8042 10.5501 21.8042 10.5222 21.7935C1.02569 18.565 2.04201 4.7 2.05341 4.56037C2.05561 4.53204 2.06673 4.50512 2.08516 4.48352C2.1036 4.46194 2.1284 4.44674 2.15599 4.44013L10.532 2.40161C10.5532 2.39629 10.5754 2.39629 10.5966 2.40161L18.9734 4.44013C19.0009 4.44682 19.0257 4.46204 19.0442 4.4836Z" fill="#888889"/>
<path d="M10.4472 5.44457L4.86218 6.80283C4.84377 6.80752 4.8273 6.81787 4.81501 6.83239C4.80276 6.84691 4.79533 6.86492 4.79379 6.88387C4.78658 6.97707 4.10917 16.2204 10.4392 18.3731C10.4582 18.3792 10.4787 18.3792 10.4978 18.3731C16.8278 16.2201 16.1508 6.97707 16.1432 6.8835C16.1417 6.86448 16.1343 6.84641 16.122 6.83191C16.1096 6.81742 16.0929 6.80723 16.0744 6.80283L10.4897 5.4442C10.4758 5.44048 10.4611 5.44048 10.4472 5.4442" fill="#888889"/>
<path d="M29.4527 13.2901V11.9399H31.6365V15.911C30.585 16.0836 29.7322 16.17 29.0778 16.17C27.9087 16.17 27.1036 15.8511 26.6624 15.2137C26.2286 14.5762 26.0117 13.5635 26.0117 12.1761C26.0117 10.7888 26.2396 9.78777 26.6955 9.17232C27.1514 8.55763 27.9271 8.25 29.0226 8.25C29.7064 8.25 30.4454 8.32893 31.2394 8.48622L31.6365 8.56514L31.5923 9.76879C30.71 9.67145 29.9858 9.6224 29.4197 9.6224C28.8609 9.6224 28.4675 9.68986 28.2396 9.82479C28.0116 9.95991 27.8425 10.2112 27.7322 10.5785C27.6293 10.9388 27.5778 11.5614 27.5778 12.4461C27.5778 13.3239 27.6844 13.9386 27.8977 14.2912C28.1109 14.6437 28.5521 14.8202 29.2211 14.8202L30.1366 14.7749V13.2901H29.4527Z" fill="#888889"/>
<path d="M34.5298 13.481C34.5298 14.3736 34.9746 14.8201 35.8643 14.8201C36.754 14.8201 37.1988 14.3736 37.1988 13.481V8.38489H38.7208V13.4473C38.7208 14.3847 38.4818 15.0747 38.0039 15.5175C37.5333 15.9523 36.8201 16.17 35.8643 16.17C34.9084 16.17 34.1916 15.9523 33.7136 15.5175C33.2431 15.0747 33.0078 14.3847 33.0078 13.4473V8.38489H34.5298V13.481Z" fill="#888889"/>
<path d="M39.6094 16.0348L41.2968 8.38489H44.1864L45.8738 16.0348H44.3518L44.054 14.6514H41.4291L41.1314 16.0348H39.6094ZM42.4769 9.66765L41.7159 13.3011H43.7672L43.0063 9.66765H42.4769Z" fill="#888889"/>
<path d="M48.3892 13.4699V16.0348H46.8672V8.38489H49.7789C51.5435 8.38489 52.4258 9.2249 52.4258 10.9049C52.4258 11.9026 52.0582 12.6376 51.3228 13.1102L52.3927 16.0348H50.7273L49.8561 13.4699H48.3892ZM49.8008 12.1424C50.1611 12.1424 50.4294 12.03 50.6061 11.8049C50.7826 11.5801 50.8707 11.2836 50.8707 10.916C50.8707 10.5486 50.775 10.2564 50.5839 10.0388C50.4001 9.82137 50.1318 9.71238 49.7789 9.71238H48.3892V12.1424H49.8008Z" fill="#888889"/>
<path d="M56.2364 16.0348H53.7109V8.38489H56.2364C56.8836 8.38489 57.4166 8.4563 57.8357 8.59893C58.2549 8.73349 58.5783 8.96256 58.8063 9.28523C59.0416 9.6 59.2034 9.97472 59.2915 10.4101C59.3798 10.8375 59.4238 11.3964 59.4238 12.0864C59.4238 12.7761 59.3834 13.3498 59.3026 13.8074C59.2218 14.2575 59.0673 14.6624 58.8394 15.0221C58.6187 15.3747 58.2953 15.6336 57.8687 15.7986C57.4423 15.9563 56.8983 16.0348 56.2364 16.0348ZM57.8357 12.9973C57.8505 12.7577 57.8578 12.4273 57.8578 12.0073C57.8578 11.5801 57.843 11.2387 57.8137 10.9837C57.7842 10.7288 57.7145 10.496 57.6041 10.2863C57.4938 10.076 57.3285 9.93375 57.1078 9.85858C56.8945 9.77608 56.6042 9.73511 56.2364 9.73511H55.2329V14.6852H56.2364C56.788 14.6852 57.1886 14.5424 57.4388 14.2575C57.6519 14.025 57.7842 13.605 57.8357 12.9973Z" fill="#888889"/>
<path d="M60.0078 16.0348L61.6952 8.38489H64.5847L66.2722 16.0348H64.7502L64.4524 14.6514H61.8275L61.5298 16.0348H60.0078ZM62.8753 9.66765L62.1142 13.3011H64.1656L63.4047 9.66765H62.8753Z" fill="#888889"/>
</g>
<defs>
<clipPath id="clip0_921_11372">
<rect width="66.75" height="24" fill="white"/>
</clipPath>
</defs>
</svg>