<svg xmlns:xlink="http://www.w3.org/1999/xlink" xmlns="http://www.w3.org/2000/svg" width="89" height="27" viewBox="0 0 89 27" fill="none">
<g clip-path="url(#clip0_2262_11011)">
<path d="M32.9356 6.88978V14.226H25.4742V7.83711C25.4742 7.31204 25.0381 6.88611 24.5006 6.88611H21.9746V24.4483C21.9746 24.9734 22.4106 25.3993 22.9482 25.3993H25.4742V17.2075H32.9393V24.4447C32.9318 24.9697 33.3603 25.403 33.8979 25.4104H33.9129H36.4389V7.83711C36.4389 7.31204 36.0029 6.88611 35.4653 6.88611H32.9356V6.88978ZM47.7532 11.4795V20.2808C47.7607 21.0813 47.3322 21.8267 46.6255 22.2379C44.6483 23.3541 42.5997 21.9552 42.5997 20.1193V12.4305C42.5997 11.9055 42.1637 11.4795 41.6262 11.4795H39.1002V20.4351C39.1077 23.3211 41.4984 25.6564 44.4529 25.6711H45.8888C48.847 25.6637 51.2452 23.3211 51.2527 20.4314V12.4305C51.2527 11.9055 50.8167 11.4795 50.2792 11.4795H47.7532Z" fill="#888889"/>
<path d="M85.9697 25.4103H88.4956V12.9409C88.4956 12.4158 88.0596 11.9899 87.5221 11.9899H84.9961V24.4519C84.9924 24.977 85.4246 25.4066 85.9621 25.4103H85.9697Z" fill="#888889"/>
<path d="M88.5497 9.49593C88.9621 8.52355 88.4894 7.40876 87.4939 7.00598C86.4984 6.60319 85.3572 7.06495 84.9449 8.03733C84.5325 9.00971 85.0052 10.1245 86.0007 10.5273C86.9961 10.9301 88.1374 10.4683 88.5497 9.49593Z" fill="#888889"/>
<path d="M60.2818 11.4722C56.6168 11.4722 53.6172 14.0314 53.6172 17.6114V19.5465C53.6172 23.1265 56.6168 25.671 60.2818 25.671C63.9467 25.671 66.9463 23.1265 66.9463 19.5465V17.6114C66.9501 14.0314 63.9505 11.4722 60.2818 11.4722ZM63.4317 19.7778C63.4317 21.4705 62.0146 22.5977 60.278 22.5977C58.5414 22.5977 57.128 21.4705 57.128 19.7778V17.3617C57.128 15.669 58.5451 14.5418 60.278 14.5418C62.0109 14.5418 63.4317 15.669 63.4317 17.3617V19.7778Z" fill="#888889"/>
<path d="M75.975 11.4721C74.8774 11.4648 73.7948 11.7071 72.8062 12.1735V7.85542C72.8062 7.33035 72.3702 6.90442 71.8326 6.90442H69.3066V19.5464C69.3066 23.1264 72.3063 25.671 75.9712 25.671C79.6362 25.671 82.6358 23.1264 82.6358 19.5464V17.6114C82.6396 14.0314 79.6475 11.4721 75.975 11.4721ZM79.1287 19.7778C79.1287 21.4705 77.7116 22.5977 75.975 22.5977C74.2421 22.5977 72.825 21.4705 72.825 19.7778V17.3617C72.825 15.669 74.2421 14.5418 75.975 14.5418C77.7078 14.5418 79.1287 15.669 79.1287 17.3617V19.7778Z" fill="#888889"/>
<path d="M11.3971 8.40602C11.3971 4.67547 9.5364 1.46265 8.11929 0.419858C8.11929 0.419858 8.01028 0.36111 8.02156 0.511653C7.90504 7.71939 4.13485 9.67279 2.0637 12.3018C-2.71763 18.3749 1.72539 25.0319 6.25863 26.262C8.78462 26.9523 5.67225 25.0429 5.27004 21.015C4.77763 16.1535 11.3971 12.4377 11.3971 8.40602Z" fill="#888889"/>
<path d="M13.5698 10.8625C13.5397 10.8442 13.4984 10.8295 13.4721 10.8772C13.3931 11.7842 12.4459 13.7229 11.243 15.5073C7.16462 21.5511 9.48763 24.4665 10.7957 26.0344C11.555 26.9413 10.7957 26.0344 12.6902 25.1054C15.032 23.7175 16.5506 21.3161 16.7762 18.6504C17.1483 14.3544 14.5095 11.6483 13.5698 10.8625Z" fill="#888889"/>
</g>
<defs>
<clipPath id="clip0_2262_11011">
<rect width="89" height="26" fill="white" transform="translate(0 0.408936)"/>
</clipPath>
</defs>
</svg>