<svg xmlns:xlink="http://www.w3.org/1999/xlink" xmlns="http://www.w3.org/2000/svg" width="81" height="24" viewBox="0 0 81 24" fill="none">
<g clip-path="url(#clip0)">
<path d="M30.4459 5.98252V12.7544H23.718V6.85697C23.718 6.37229 23.3248 5.97913 22.8401 5.97913H20.5625V22.1904C20.5625 22.6751 20.9557 23.0683 21.4403 23.0683H23.718V15.5066H30.4492V22.187C30.4425 22.6717 30.8288 23.0717 31.3135 23.0784H31.3271H33.6047V6.85697C33.6047 6.37229 33.2116 5.97913 32.7269 5.97913H30.4459V5.98252ZM43.8067 10.2192V18.3435C43.8135 19.0824 43.4271 19.7704 42.7899 20.15C41.0071 21.1804 39.1599 19.889 39.1599 18.1944V11.0971C39.1599 10.6124 38.7667 10.2192 38.282 10.2192H36.0044V18.4859C36.0112 21.1499 38.1668 23.3055 40.8308 23.3191H42.1256C44.793 23.3123 46.9554 21.1499 46.9622 18.4825V11.0971C46.9622 10.6124 46.569 10.2192 46.0843 10.2192H43.8067Z" fill="#888889"/>
<path d="M78.2685 23.0784H80.5461V11.5681C80.5461 11.0835 80.1529 10.6903 79.6682 10.6903H77.3906V22.1937C77.3873 22.6784 77.777 23.075 78.2617 23.0784H78.2685Z" fill="#888889"/>
<path d="M80.5955 8.38818C80.9673 7.4906 80.5411 6.46156 79.6435 6.08976C78.7459 5.71797 77.7169 6.1442 77.3451 7.04178C76.9733 7.93936 77.3995 8.96839 78.2971 9.34019C79.1947 9.71199 80.2237 9.28576 80.5955 8.38818Z" fill="#888889"/>
<path d="M55.107 10.2125C51.8024 10.2125 49.0977 12.5749 49.0977 15.8795V17.6657C49.0977 20.9703 51.8024 23.3191 55.107 23.3191C58.4116 23.3191 61.1164 20.9703 61.1164 17.6657V15.8795C61.1198 12.5749 58.415 10.2125 55.107 10.2125ZM57.9473 17.8792C57.9473 19.4417 56.6695 20.4823 55.1036 20.4823C53.5377 20.4823 52.2633 19.4417 52.2633 17.8792V15.649C52.2633 14.0866 53.5411 13.046 55.1036 13.046C56.6661 13.046 57.9473 14.0866 57.9473 15.649V17.8792Z" fill="#888889"/>
<path d="M69.2549 10.2125C68.2652 10.2057 67.2891 10.4294 66.3977 10.8598V6.87394C66.3977 6.38926 66.0045 5.99609 65.5198 5.99609H63.2422V17.6656C63.2422 20.9703 65.9469 23.3191 69.2515 23.3191C72.5562 23.3191 75.2609 20.9703 75.2609 17.6656V15.8795C75.2643 12.5748 72.5664 10.2125 69.2549 10.2125ZM72.0986 17.8792C72.0986 19.4417 70.8208 20.4822 69.2549 20.4822C67.6924 20.4822 66.4146 19.4417 66.4146 17.8792V15.649C66.4146 14.0865 67.6924 13.046 69.2549 13.046C70.8174 13.046 72.0986 14.0865 72.0986 15.649V17.8792Z" fill="#888889"/>
<path d="M11.0269 7.38202C11.0269 3.93844 9.34922 0.972752 8.07143 0.0101764C8.07143 0.0101764 7.97314 -0.0440532 7.98331 0.0949102C7.87824 6.74821 4.47872 8.55134 2.61119 10.9781C-1.70006 16.5841 2.30615 22.729 6.3937 23.8644C8.67135 24.5016 5.86496 22.7392 5.5023 19.0211C5.0583 14.5335 11.0269 11.1035 11.0269 7.38202Z" fill="#888889"/>
<path d="M12.985 9.64964C12.9579 9.6327 12.9206 9.61914 12.8969 9.6632C12.8257 10.5004 11.9716 12.2899 10.887 13.9372C7.20951 19.516 9.30414 22.2072 10.4836 23.6544C11.1683 24.4916 10.4836 23.6544 12.1919 22.7969C14.3034 21.5157 15.6727 19.2991 15.8761 16.8384C16.2116 12.8729 13.8323 10.375 12.985 9.64964Z" fill="#888889"/>
</g>
<defs>
<clipPath id="clip0">
<rect width="80.25" height="24" fill="white" transform="translate(0.75 0.000244141)"/>
</clipPath>
</defs>
</svg>