<svg xmlns:xlink="http://www.w3.org/1999/xlink" xmlns="http://www.w3.org/2000/svg" width="97" height="26" viewBox="0 0 97 26" fill="none">
<g clip-path="url(#clip0_2284_8360)">
<path d="M29.1982 19.7568V1.22281H30.491V18.5331H39.3384V19.7559H29.1982V19.7568ZM45.729 20.0135C43.7238 20.0135 42.175 19.3692 41.0143 18.1464C39.9188 16.9244 39.3335 15.1889 39.3335 12.9342C39.3335 10.7461 39.8479 8.94481 40.9483 7.657C42.0438 6.30419 43.467 5.65987 45.3394 5.65987C46.9549 5.65987 48.2461 6.23837 49.2153 7.33525C50.1853 8.49225 50.6336 10.0368 50.6336 11.9689V13H40.6263C40.6263 14.8663 41.0803 16.3459 41.9843 17.3111C42.8223 18.343 44.1134 18.7899 45.729 18.7899C46.5009 18.7899 47.2125 18.7249 47.7937 18.5998C48.5681 18.4354 49.3249 18.1979 50.0541 17.8904V19.1124C49.2821 19.4342 48.5705 19.6909 47.9249 19.8218C47.2005 19.9536 46.4654 20.0178 45.729 20.0135ZM45.3394 6.82175C43.9814 6.82175 42.9527 7.27513 42.1098 8.10956C41.3371 9.01062 40.817 10.2326 40.6915 11.908H49.2153C49.2153 10.2984 48.8925 9.07563 48.1809 8.17537C47.5353 7.26944 46.5661 6.82175 45.3394 6.82175ZM57.3519 5.72487C58.3211 5.72487 59.2242 5.91663 59.9358 6.23838C60.6474 6.62594 61.2938 7.20444 61.8742 8.10469H61.9394C61.8742 7.0135 61.8742 5.98163 61.8742 4.95056V0H63.1002V19.7568H62.263L61.9402 17.6337C60.905 19.1774 59.3555 20.0135 57.4171 20.0135C55.4795 20.0135 54.0612 19.4342 53.0268 18.2122C51.9916 17.0552 51.5433 15.314 51.5433 13.0658C51.5433 10.6852 52.0568 8.87981 53.0268 7.59688C53.9952 6.30906 55.4795 5.72487 57.3519 5.72487ZM57.3519 6.82175C55.8684 6.82175 54.7076 7.33525 53.93 8.43213C53.1572 9.46319 52.7692 11.0077 52.7692 13.0658C52.7692 16.9902 54.318 18.9215 57.3519 18.9215C58.9014 18.9215 60.0622 18.4689 60.7738 17.5679C61.4854 16.6676 61.8693 15.1889 61.8693 13.0601V12.8692C61.8693 10.7461 61.4805 9.20156 60.7738 8.30131C60.1282 7.26944 58.9666 6.82256 57.3519 6.82256V6.82175ZM76.5261 5.9865V6.88756L73.6846 7.0785C74.4565 8.04456 74.8453 9.07563 74.8453 10.1676C74.8453 11.5212 74.3913 12.5474 73.4881 13.3876C72.5841 14.2228 71.4234 14.6096 69.9342 14.6096C69.2886 14.6096 68.8395 14.6096 68.6422 14.5446C68.1278 14.8013 67.739 15.1231 67.4815 15.4448C67.2247 15.8324 67.0934 16.1541 67.0934 16.6018C67.0934 17.0503 67.285 17.3721 67.6078 17.5687C67.9306 17.7596 68.511 17.8904 69.2886 17.8904H71.6761C73.1596 17.8904 74.3204 18.2122 75.098 18.7907C75.8748 19.3692 76.3248 20.2694 76.3248 21.4923C76.3248 22.971 75.7436 24.0679 74.5836 24.8381C73.4221 25.6076 71.7413 25.9951 69.5462 25.9951C67.8042 25.9951 66.4471 25.6734 65.4779 24.9633C64.5087 24.3197 64.0595 23.3537 64.0595 22.1967C64.0595 21.2306 64.3823 20.4612 64.9635 19.8169C65.5439 19.1726 66.3818 18.785 67.3502 18.5291C66.9614 18.3381 66.5783 18.0765 66.3818 17.7596C66.1301 17.451 65.9926 17.0654 65.9922 16.6676C65.9922 15.7674 66.5734 14.9321 67.7341 14.222C66.9614 13.9002 66.3158 13.3876 65.8618 12.6783C65.4078 11.9689 65.2154 11.1337 65.2154 10.2326C65.2154 8.87981 65.6702 7.722 66.5074 6.88756C67.4114 6.05231 68.5721 5.66475 70.0613 5.66475C70.9645 5.66475 71.6753 5.72975 72.1912 5.9215H76.5163V5.9865H76.5261ZM65.292 22.0756C65.292 23.9419 66.7103 24.908 69.5519 24.908C73.1653 24.908 74.9774 23.751 74.9774 21.4321C74.9774 20.5969 74.7206 20.0184 74.1402 19.6308C73.559 19.2432 72.6567 19.0523 71.3639 19.0523H69.1027C66.584 19.1124 65.292 20.0785 65.292 22.0756ZM66.3924 10.2326C66.3924 11.3246 66.7152 12.0997 67.3616 12.7432C68.0072 13.3217 68.8452 13.6443 69.9456 13.6443C71.1063 13.6443 72.0095 13.3217 72.5898 12.7432C73.2362 12.1648 73.4946 11.3295 73.4946 10.2326C73.4946 9.07562 73.171 8.17537 72.5246 7.59688C71.8782 7.01838 71.0411 6.69581 69.8804 6.69581C68.7848 6.69581 67.876 7.01837 67.2964 7.66269C66.65 8.2355 66.3916 9.13656 66.3916 10.2326H66.3924Z" fill="#888889"/>
<path d="M82.7902 20.0135C80.7866 20.0135 79.2371 19.3692 78.0763 18.1464C76.9808 16.9244 76.3955 15.1888 76.3955 12.935C76.3955 10.7461 76.9107 8.9456 78.0111 7.65697C79.1058 6.30416 80.5299 5.65985 82.4022 5.65985C84.017 5.65985 85.309 6.23835 86.2781 7.33522C87.2473 8.49222 87.6964 10.0368 87.6964 11.9689V13H77.7535C77.7535 14.8663 78.2076 16.3458 79.1115 17.3111C79.9495 18.343 81.2415 18.7907 82.8562 18.7907C83.6282 18.7907 84.3398 18.7257 84.9201 18.5997C85.6951 18.4356 86.4525 18.1981 87.1821 17.8904V19.1124C86.4094 19.435 85.6978 19.6909 85.0514 19.8217C84.3053 19.9558 83.5483 20.02 82.7902 20.0135ZM82.4674 6.82172C81.1102 6.82172 80.0799 7.2751 79.2371 8.10954C78.4651 9.0106 77.9451 10.2326 77.8188 11.908H86.3442C86.3442 10.2984 86.0206 9.0756 85.3089 8.17535C84.6634 7.26941 83.6942 6.82172 82.4674 6.82172ZM94.863 5.72485C95.4442 5.72485 96.0898 5.79066 96.7362 5.9166L96.4786 7.1386C95.8854 7.00749 95.2791 6.94344 94.6715 6.94766C93.5107 6.94766 92.5416 7.46116 91.7647 8.42641C90.992 9.45829 90.604 10.6803 90.604 12.2248V19.7567H89.3112V5.98647H90.4068L90.538 8.4971H90.604C91.1844 7.46522 91.7647 6.7616 92.4103 6.37404C93.188 5.92147 93.9599 5.72485 94.863 5.72485ZM16.8693 0.644287H7.63232V13H20.0288V3.85935C20.0337 2.12304 18.6104 0.644287 16.8685 0.644287H16.8693ZM4.79569 0.644287H3.24695C1.50421 0.644287 0.0166016 2.05804 0.0166016 3.86341V5.40797H4.79569V0.644287ZM0.0166016 8.30129H4.79569V13.0658H0.0166016V8.30129ZM15.2538 20.657H16.8025C18.5444 20.657 20.0337 19.2432 20.0337 17.437V15.8982H15.2538V20.657ZM7.63232 15.8982H12.4122V20.6618H7.63232V15.8982ZM0.0166016 15.8982V17.4419C0.0166016 19.1782 1.43492 20.6618 3.24613 20.6618H4.79569V15.8982H0.0166016Z" fill="#888889"/>
<path d="M29.1982 19.7568V1.22281H30.491V18.5331H39.3384V19.7559H29.1982V19.7568ZM45.729 20.0135C43.7238 20.0135 42.175 19.3692 41.0143 18.1464C39.9188 16.9244 39.3335 15.1889 39.3335 12.9342C39.3335 10.7461 39.8479 8.94481 40.9483 7.657C42.0438 6.30419 43.467 5.65987 45.3394 5.65987C46.9549 5.65987 48.2461 6.23837 49.2153 7.33525C50.1853 8.49225 50.6336 10.0368 50.6336 11.9689V13H40.6263C40.6263 14.8663 41.0803 16.3459 41.9843 17.3111C42.8223 18.343 44.1134 18.7899 45.729 18.7899C46.5009 18.7899 47.2125 18.7249 47.7937 18.5998C48.5681 18.4354 49.3249 18.1979 50.0541 17.8904V19.1124C49.2821 19.4342 48.5705 19.6909 47.9249 19.8218C47.2005 19.9536 46.4654 20.0178 45.729 20.0135ZM45.3394 6.82175C43.9814 6.82175 42.9527 7.27513 42.1098 8.10956C41.3371 9.01062 40.817 10.2326 40.6915 11.908H49.2153C49.2153 10.2984 48.8925 9.07563 48.1809 8.17537C47.5353 7.26944 46.5661 6.82175 45.3394 6.82175ZM57.3519 5.72487C58.3211 5.72487 59.2242 5.91663 59.9358 6.23838C60.6474 6.62594 61.2938 7.20444 61.8742 8.10469H61.9394C61.8742 7.0135 61.8742 5.98163 61.8742 4.95056V0H63.1002V19.7568H62.263L61.9402 17.6337C60.905 19.1774 59.3555 20.0135 57.4171 20.0135C55.4795 20.0135 54.0612 19.4342 53.0268 18.2122C51.9916 17.0552 51.5433 15.314 51.5433 13.0658C51.5433 10.6852 52.0568 8.87981 53.0268 7.59688C53.9952 6.30906 55.4795 5.72487 57.3519 5.72487ZM57.3519 6.82175C55.8684 6.82175 54.7076 7.33525 53.93 8.43213C53.1572 9.46319 52.7692 11.0077 52.7692 13.0658C52.7692 16.9902 54.318 18.9215 57.3519 18.9215C58.9014 18.9215 60.0622 18.4689 60.7738 17.5679C61.4854 16.6676 61.8693 15.1889 61.8693 13.0601V12.8692C61.8693 10.7461 61.4805 9.20156 60.7738 8.30131C60.1282 7.26944 58.9666 6.82256 57.3519 6.82256V6.82175ZM76.5261 5.9865V6.88756L73.6846 7.0785C74.4565 8.04456 74.8453 9.07563 74.8453 10.1676C74.8453 11.5212 74.3913 12.5474 73.4881 13.3876C72.5841 14.2228 71.4234 14.6096 69.9342 14.6096C69.2886 14.6096 68.8395 14.6096 68.6422 14.5446C68.1278 14.8013 67.739 15.1231 67.4815 15.4448C67.2247 15.8324 67.0934 16.1541 67.0934 16.6018C67.0934 17.0503 67.285 17.3721 67.6078 17.5687C67.9306 17.7596 68.511 17.8904 69.2886 17.8904H71.6761C73.1596 17.8904 74.3204 18.2122 75.098 18.7907C75.8748 19.3692 76.3248 20.2694 76.3248 21.4923C76.3248 22.971 75.7436 24.0679 74.5836 24.8381C73.4221 25.6076 71.7413 25.9951 69.5462 25.9951C67.8042 25.9951 66.4471 25.6734 65.4779 24.9633C64.5087 24.3197 64.0595 23.3537 64.0595 22.1967C64.0595 21.2306 64.3823 20.4612 64.9635 19.8169C65.5439 19.1726 66.3818 18.785 67.3502 18.5291C66.9614 18.3381 66.5783 18.0765 66.3818 17.7596C66.1301 17.451 65.9926 17.0654 65.9922 16.6676C65.9922 15.7674 66.5734 14.9321 67.7341 14.222C66.9614 13.9002 66.3158 13.3876 65.8618 12.6783C65.4078 11.9689 65.2154 11.1337 65.2154 10.2326C65.2154 8.87981 65.6702 7.722 66.5074 6.88756C67.4114 6.05231 68.5721 5.66475 70.0613 5.66475C70.9645 5.66475 71.6753 5.72975 72.1912 5.9215H76.5163V5.9865H76.5261ZM65.292 22.0756C65.292 23.9419 66.7103 24.908 69.5519 24.908C73.1653 24.908 74.9774 23.751 74.9774 21.4321C74.9774 20.5969 74.7206 20.0184 74.1402 19.6308C73.559 19.2432 72.6567 19.0523 71.3639 19.0523H69.1027C66.584 19.1124 65.292 20.0785 65.292 22.0756ZM66.3924 10.2326C66.3924 11.3246 66.7152 12.0997 67.3616 12.7432C68.0072 13.3217 68.8452 13.6443 69.9456 13.6443C71.1063 13.6443 72.0095 13.3217 72.5898 12.7432C73.2362 12.1648 73.4946 11.3295 73.4946 10.2326C73.4946 9.07562 73.171 8.17537 72.5246 7.59688C71.8782 7.01838 71.0411 6.69581 69.8804 6.69581C68.7848 6.69581 67.876 7.01837 67.2964 7.66269C66.65 8.2355 66.3916 9.13656 66.3916 10.2326H66.3924Z" fill="white"/>
<path d="M82.7902 20.0135C80.7866 20.0135 79.2371 19.3692 78.0763 18.1464C76.9808 16.9244 76.3955 15.1888 76.3955 12.935C76.3955 10.7461 76.9107 8.9456 78.0111 7.65697C79.1058 6.30416 80.5299 5.65985 82.4022 5.65985C84.017 5.65985 85.309 6.23835 86.2781 7.33522C87.2473 8.49222 87.6964 10.0368 87.6964 11.9689V13H77.7535C77.7535 14.8663 78.2076 16.3458 79.1115 17.3111C79.9495 18.343 81.2415 18.7907 82.8562 18.7907C83.6282 18.7907 84.3398 18.7257 84.9201 18.5997C85.6951 18.4356 86.4525 18.1981 87.1821 17.8904V19.1124C86.4094 19.435 85.6978 19.6909 85.0514 19.8217C84.3053 19.9558 83.5483 20.02 82.7902 20.0135ZM82.4674 6.82172C81.1102 6.82172 80.0799 7.2751 79.2371 8.10954C78.4651 9.0106 77.9451 10.2326 77.8188 11.908H86.3442C86.3442 10.2984 86.0206 9.0756 85.3089 8.17535C84.6634 7.26941 83.6942 6.82172 82.4674 6.82172ZM94.863 5.72485C95.4442 5.72485 96.0898 5.79066 96.7362 5.9166L96.4786 7.1386C95.8854 7.00749 95.2791 6.94344 94.6715 6.94766C93.5107 6.94766 92.5416 7.46116 91.7647 8.42641C90.992 9.45829 90.604 10.6803 90.604 12.2248V19.7567H89.3112V5.98647H90.4068L90.538 8.4971H90.604C91.1844 7.46522 91.7647 6.7616 92.4103 6.37404C93.188 5.92147 93.9599 5.72485 94.863 5.72485ZM16.8693 0.644287H7.63232V13H20.0288V3.85935C20.0337 2.12304 18.6104 0.644287 16.8685 0.644287H16.8693ZM4.79569 0.644287H3.24695C1.50421 0.644287 0.0166016 2.05804 0.0166016 3.86341V5.40797H4.79569V0.644287ZM0.0166016 8.30129H4.79569V13.0658H0.0166016V8.30129ZM15.2538 20.657H16.8025C18.5444 20.657 20.0337 19.2432 20.0337 17.437V15.8982H15.2538V20.657ZM7.63232 15.8982H12.4122V20.6618H7.63232V15.8982ZM0.0166016 15.8982V17.4419C0.0166016 19.1782 1.43492 20.6618 3.24613 20.6618H4.79569V15.8982H0.0166016Z" fill="white"/>
</g>
<defs>
<clipPath id="clip0_2284_8360">
<rect width="97" height="26" fill="white"/>
</clipPath>
</defs>
</svg>