<svg xmlns:xlink="http://www.w3.org/1999/xlink" xmlns="http://www.w3.org/2000/svg" width="90" height="24" viewBox="0 0 90 24" fill="none">
<g clip-path="url(#clip0)">
<path d="M26.8652 18.237V1.12861H28.0541V17.1085H36.1951V18.237H26.8652ZM42.0744 18.4738C40.2306 18.4738 38.8048 17.8794 37.7369 16.7509C36.7288 15.6224 36.1904 14.0203 36.1904 11.9398C36.1904 9.91964 36.664 8.25708 37.6764 7.06823C38.6841 5.81902 39.9938 5.22457 41.7165 5.22457C43.2028 5.22457 44.3914 5.75863 45.283 6.77101C46.1747 7.83915 46.5881 9.26483 46.5881 11.0481V12.0001H37.3791C37.3791 13.723 37.7971 15.0884 38.6285 15.98C39.3995 16.932 40.5881 17.3453 42.0744 17.3453C42.7847 17.3453 43.4396 17.285 43.9737 17.1688C44.5075 17.0481 45.2228 16.8716 46.0539 16.514V17.6425C45.3436 17.9398 44.6887 18.1766 44.0944 18.2973C43.4303 18.4181 42.7523 18.4784 42.0744 18.4738ZM41.7165 6.29734C40.4674 6.29734 39.5202 6.71528 38.7446 7.4862C38.0339 8.31748 37.5557 9.44594 37.4396 10.9924H45.283C45.283 9.50633 44.9861 8.37783 44.3312 7.54656C43.7369 6.71065 42.8453 6.29734 41.7165 6.29734ZM52.7693 5.28497C53.6609 5.28497 54.492 5.46144 55.1469 5.75863C55.8017 6.11621 56.396 6.65029 56.9301 7.48153H56.9907C56.9301 6.47382 56.9301 5.5218 56.9301 4.56977V0.00012207H58.0586V18.237H57.288L56.9907 16.2772C56.0385 17.7029 54.6128 18.4738 52.8295 18.4738C51.0462 18.4738 49.7415 17.9398 48.7894 16.8113C47.8372 15.7432 47.4242 14.1363 47.4242 12.0605C47.4242 9.86391 47.8977 8.19673 48.7894 7.0125C49.681 5.82365 51.0462 5.28497 52.7693 5.28497ZM52.7693 6.29734C51.4041 6.29734 50.3358 6.77101 49.6205 7.78342C48.9101 8.73541 48.5526 10.1611 48.5526 12.0605C48.5526 15.6828 49.9783 17.4661 52.7693 17.4661C54.1951 17.4661 55.263 17.0481 55.9178 16.2169C56.5726 15.3856 56.9255 14.0203 56.9255 12.0559V11.8794C56.9255 9.91964 56.568 8.49391 55.9178 7.66267C55.3235 6.71065 54.2552 6.29734 52.7693 6.29734ZM70.4118 5.52643V6.3577L67.7971 6.53418C68.5075 7.42581 68.8653 8.37783 68.8653 9.38558C68.8653 10.6348 68.4473 11.5822 67.6158 12.3577C66.7847 13.1286 65.7165 13.4862 64.3466 13.4862C63.7523 13.4862 63.3389 13.4862 63.1577 13.4258C62.6841 13.6627 62.3266 13.9599 62.0898 14.2571C61.853 14.6147 61.7323 14.9119 61.7323 15.3252C61.7323 15.7385 61.9085 16.0357 62.2059 16.2169C62.5028 16.3933 63.037 16.514 63.7523 16.514H65.9487C67.3142 16.514 68.3821 16.8113 69.0975 17.3453C69.8125 17.8794 70.2259 18.7107 70.2259 19.8391C70.2259 21.2044 69.6918 22.2169 68.6239 22.9274C67.5557 23.6379 66.0092 23.9955 63.9891 23.9955C62.3868 23.9955 61.1376 23.6983 60.246 23.0435C59.3544 22.449 58.9409 21.5574 58.9409 20.4893C58.9409 19.5977 59.2383 18.8871 59.7724 18.2927C60.3065 17.6983 61.0774 17.3407 61.9691 17.1038C61.6112 16.9274 61.2583 16.6859 61.0774 16.3933C60.8453 16.1054 60.7196 15.7525 60.7196 15.3856C60.7196 14.5543 61.2537 13.7834 62.322 13.1286C61.6112 12.8314 61.0169 12.3577 60.5989 11.7029C60.1812 11.0481 60.0046 10.2772 60.0046 9.44594C60.0046 8.19673 60.4226 7.12862 61.1935 6.3577C62.0246 5.58682 63.0929 5.22924 64.4627 5.22924C65.2942 5.22924 65.9487 5.28959 66.4226 5.46607H70.4026V5.52643H70.4118ZM60.0744 20.3778C60.0744 22.1007 61.3791 22.9924 63.9938 22.9924C67.3189 22.9924 68.9861 21.9243 68.9861 19.7834C68.9861 19.0125 68.7493 18.4784 68.2151 18.1209C67.681 17.7633 66.8499 17.5868 65.6609 17.5868H63.5804C61.263 17.6425 60.0744 18.5342 60.0744 20.3778ZM61.0867 9.44594C61.0867 10.4537 61.3837 11.1688 61.9783 11.7633C62.5726 12.2973 63.3436 12.5946 64.3559 12.5946C65.4242 12.5946 66.2553 12.2973 66.7894 11.7633C67.3837 11.2292 67.6208 10.4583 67.6208 9.44594C67.6208 8.37783 67.3235 7.54656 66.7288 7.0125C66.1345 6.47845 65.3636 6.18123 64.2957 6.18123C63.2877 6.18123 62.4519 6.47845 61.9178 7.07289C61.3235 7.60228 61.0867 8.43356 61.0867 9.44594Z" fill="#888889"/>
<path d="M76.1764 18.4737C74.333 18.4737 72.9072 17.8793 71.839 16.7508C70.8313 15.6223 70.2929 14.0202 70.2929 11.9397C70.2929 9.91956 70.7665 8.25701 71.7788 7.06816C72.7865 5.81895 74.0962 5.2245 75.8189 5.2245C77.3052 5.2245 78.4938 5.75856 79.3855 6.77094C80.2771 7.83908 80.6905 9.26476 80.6905 11.048V12.0001H71.542C71.542 13.723 71.9601 15.0883 72.7912 15.9799C73.5621 16.9319 74.751 17.3452 76.237 17.3452C76.9473 17.3452 77.6022 17.2849 78.1363 17.1688C78.6704 17.048 79.3854 16.8716 80.2169 16.514V17.6425C79.5062 17.9397 78.8517 18.1765 78.257 18.2973C77.6022 18.418 76.9473 18.4737 76.1764 18.4737ZM75.8795 6.29727C74.6303 6.29727 73.6828 6.71521 72.9072 7.48613C72.1968 8.3174 71.7183 9.44587 71.6022 10.9923H79.446C79.446 9.50626 79.1487 8.37776 78.4938 7.54648C77.8995 6.71058 77.0079 6.29727 75.8795 6.29727ZM87.2848 5.28489C87.8189 5.28489 88.4136 5.34525 89.0079 5.46137L88.7711 6.58983C88.2231 6.46908 87.6658 6.40873 87.1085 6.41336C86.0403 6.41336 85.1487 6.88705 84.4336 7.77869C83.7229 8.73071 83.3654 9.85917 83.3654 11.2849V18.2369H82.1764V5.52635H83.1845L83.3052 7.84371H83.3654C83.8995 6.89168 84.4336 6.24155 85.0279 5.88397C85.7433 5.466 86.4537 5.28489 87.2848 5.28489ZM15.5218 0.594482H7.02336V12.0001H18.4289V3.56199C18.4336 1.95981 17.124 0.594482 15.5218 0.594482ZM4.41345 0.594482H2.98776C1.38559 0.594482 0.015625 1.89943 0.015625 3.56662V4.9923H4.41345V0.594482ZM0.015625 7.6626H4.41345V12.0604H0.015625V7.6626ZM14.0357 19.0682H15.4614C17.0636 19.0682 18.4336 17.7632 18.4336 16.096V14.675H14.0357V19.0682ZM7.02336 14.675H11.4212V19.0728H7.02336V14.675ZM0.015625 14.675V16.1007C0.015625 17.7028 1.32058 19.0728 2.98776 19.0728H4.41345V14.675H0.015625Z" fill="#888889"/>
</g>
<defs>
<clipPath id="clip0">
<rect width="89.25" height="24" fill="white" transform="translate(0 0.00012207)"/>
</clipPath>
</defs>
</svg>