<svg xmlns:xlink="http://www.w3.org/1999/xlink" xmlns="http://www.w3.org/2000/svg" width="73" height="26" viewBox="0 0 73 26" fill="none">
<g clip-path="url(#clip0_2262_11035)">
<path d="M40.9667 12.7522C40.9667 13.6079 40.8329 14.4155 40.553 15.1628C40.2731 15.9221 39.8838 16.573 39.3606 17.1395C38.8373 17.706 38.2046 18.152 37.4381 18.4895C36.6715 18.8269 35.8076 18.9836 34.8342 18.9836C33.8608 18.9836 32.9969 18.8149 32.2303 18.4895C31.4638 18.152 30.831 17.706 30.3078 17.1395C29.7846 16.573 29.3831 15.9101 29.1154 15.1628C28.8477 14.4035 28.7139 13.6079 28.7139 12.7522C28.7139 11.9085 28.8477 11.1009 29.1154 10.3415C29.3831 9.58218 29.7846 8.91926 30.3078 8.35282C30.831 7.78631 31.4759 7.34033 32.2303 7.00285C32.9969 6.66536 33.8608 6.50867 34.8342 6.50867C35.8076 6.50867 36.6715 6.67741 37.4381 7.00285C38.2046 7.34033 38.8373 7.78631 39.3606 8.35282C39.8838 8.91926 40.2731 9.58218 40.553 10.3415C40.8329 11.1009 40.9667 11.9085 40.9667 12.7522ZM34.8464 17.0069C35.4426 17.0069 35.9658 16.8984 36.4039 16.6815C36.8541 16.4645 37.2191 16.1632 37.5232 15.7895C37.8275 15.4039 38.0465 14.9579 38.1925 14.4396C38.3385 13.9214 38.4115 13.3549 38.4115 12.7522C38.4115 12.1495 38.3385 11.583 38.1925 11.0648C38.0465 10.5465 37.8275 10.1005 37.5232 9.71478C37.2191 9.32912 36.8541 9.0398 36.4039 8.82284C35.9536 8.60588 35.4426 8.49741 34.8464 8.49741C34.2501 8.49741 33.7269 8.60588 33.2889 8.82284C32.8387 9.0398 32.4736 9.34118 32.1695 9.71478C31.8653 10.1005 31.6463 10.5465 31.5002 11.0648C31.3543 11.583 31.2812 12.1495 31.2812 12.7522C31.2812 13.3549 31.3543 13.9214 31.5002 14.4396C31.6463 14.9579 31.8653 15.4039 32.1695 15.7895C32.4736 16.1753 32.8387 16.4645 33.2889 16.6815C33.7269 16.8984 34.2501 17.0069 34.8464 17.0069ZM42.5728 18.7787V6.72562H45.1281V12.5111L49.3503 6.72562H52.307L47.8293 12.6799L52.6112 18.7787H49.4476L45.1159 12.8606V18.7787H42.5728ZM53.6333 6.72562H60.9461V8.73848H56.2007V11.6553H60.7271V13.6562H56.2007V16.7658H61.007V18.7787H53.6455V6.72562H53.6333ZM70.0597 6.72562H72.8339L68.8307 12.7161L72.9069 18.7787H70.1084L67.4802 14.6687L64.8519 18.7787H62.0533L66.1295 12.7161L62.1263 6.72562H64.9006L67.4802 10.7996L70.0597 6.72562Z" fill="#888889"/>
<path d="M12.8991 11.571C16.1247 11.571 18.7396 8.98076 18.7396 5.78549C18.7396 2.59025 16.1247 0 12.8991 0C9.67349 0 7.05859 2.59025 7.05859 5.78549C7.05859 8.98076 9.67349 11.571 12.8991 11.571Z" fill="#888889"/>
<path d="M12.8991 25.5526C16.1247 25.5526 18.7396 22.9623 18.7396 19.7671C18.7396 16.5718 16.1247 13.9816 12.8991 13.9816C9.67349 13.9816 7.05859 16.5718 7.05859 19.7671C7.05859 22.9623 9.67349 25.5526 12.8991 25.5526Z" fill="#888889"/>
<path d="M19.9538 18.5618C23.1794 18.5618 25.7943 15.9715 25.7943 12.7764C25.7943 9.5811 23.1794 6.99084 19.9538 6.99084C16.7282 6.99084 14.1133 9.5811 14.1133 12.7764C14.1133 15.9715 16.7282 18.5618 19.9538 18.5618Z" fill="#888889"/>
<path d="M5.8405 18.5618C9.06614 18.5618 11.681 15.9715 11.681 12.7764C11.681 9.5811 9.06614 6.99084 5.8405 6.99084C2.61488 6.99084 0 9.5811 0 12.7764C0 15.9715 2.61488 18.5618 5.8405 18.5618Z" fill="#888889"/>
<path d="M11.5227 11.4144C9.40554 10.9082 7.73855 9.25691 7.22754 7.15967C9.33256 7.66592 10.9995 9.31714 11.5227 11.4144Z" fill="#888889"/>
<path d="M7.21582 18.4051C7.72685 16.3079 9.39384 14.6566 11.511 14.1504C11 16.2355 9.33304 17.8868 7.21582 18.4051Z" fill="#888889"/>
<path d="M14.2734 14.1383C16.3906 14.6445 18.0576 16.2958 18.5686 18.3931C16.4637 17.8868 14.7967 16.2355 14.2734 14.1383Z" fill="#888889"/>
<path d="M18.5784 7.14746C18.0673 9.24474 16.4004 10.896 14.2832 11.4022C14.7942 9.31703 16.4612 7.66574 18.5784 7.14746Z" fill="#888889"/>
</g>
<defs>
<clipPath id="clip0_2262_11035">
<rect width="73" height="26" fill="white"/>
</clipPath>
</defs>
</svg>