<svg xmlns:xlink="http://www.w3.org/1999/xlink" xmlns="http://www.w3.org/2000/svg" width="67" height="24" viewBox="0 0 67 24" fill="none">
<g clip-path="url(#clip0)">
<path d="M37.4616 11.7712C37.4616 12.5611 37.3392 13.3066 37.0833 13.9964C36.8274 14.6973 36.4714 15.2981 35.993 15.821C35.5145 16.344 34.936 16.7556 34.2351 17.0672C33.5341 17.3786 32.7442 17.5233 31.8541 17.5233C30.9641 17.5233 30.1741 17.3676 29.4732 17.0672C28.7723 16.7556 28.1937 16.344 27.7153 15.821C27.2369 15.2981 26.8697 14.6862 26.6249 13.9964C26.3801 13.2954 26.2578 12.5611 26.2578 11.7712C26.2578 10.9924 26.3801 10.2469 26.6249 9.54596C26.8697 8.84503 27.2369 8.23309 27.7153 7.71023C28.1937 7.18729 28.7833 6.77563 29.4732 6.4641C30.1741 6.15257 30.9641 6.00793 31.8541 6.00793C32.7442 6.00793 33.5341 6.1637 34.2351 6.4641C34.936 6.77563 35.5145 7.18729 35.993 7.71023C36.4714 8.23309 36.8274 8.84503 37.0833 9.54596C37.3392 10.2469 37.4616 10.9924 37.4616 11.7712ZM31.8653 15.6986C32.4104 15.6986 32.8889 15.5985 33.2894 15.3982C33.7011 15.198 34.0348 14.9198 34.3129 14.5749C34.5911 14.2189 34.7914 13.8072 34.9249 13.3288C35.0584 12.8504 35.1251 12.3275 35.1251 11.7712C35.1251 11.2149 35.0584 10.692 34.9249 10.2136C34.7914 9.73516 34.5911 9.32349 34.3129 8.96743C34.0348 8.61143 33.7011 8.34436 33.2894 8.14409C32.8777 7.94383 32.4104 7.84369 31.8653 7.84369C31.3201 7.84369 30.8417 7.94383 30.4411 8.14409C30.0295 8.34436 29.6957 8.62256 29.4175 8.96743C29.1394 9.32349 28.9391 9.73516 28.8056 10.2136C28.6721 10.692 28.6053 11.2149 28.6053 11.7712C28.6053 12.3275 28.6721 12.8504 28.8056 13.3288C28.9391 13.8072 29.1394 14.2189 29.4175 14.5749C29.6957 14.931 30.0295 15.198 30.4411 15.3982C30.8417 15.5985 31.3201 15.6986 31.8653 15.6986ZM38.9302 17.3342V6.2082H41.2667V11.5486L45.1274 6.2082H47.831L43.7367 11.7044L48.1092 17.3342H45.2164L41.2555 11.8713V17.3342H38.9302ZM49.0437 6.2082H55.7304V8.06623H51.3913V10.7587H55.5302V12.6056H51.3913V15.4761H55.7861V17.3342H49.0549V6.2082H49.0437ZM64.0638 6.2082H66.6005L62.94 11.7378L66.6672 17.3342H64.1083L61.7051 13.5402L59.3019 17.3342H56.7429L60.4701 11.7378L56.8096 6.2082H59.3464L61.7051 9.96876L64.0638 6.2082Z" fill="#888889"/>
<path d="M11.7936 10.6809C14.743 10.6809 17.134 8.28993 17.134 5.34045C17.134 2.391 14.743 0 11.7936 0C8.84414 0 6.45312 2.391 6.45312 5.34045C6.45312 8.28993 8.84414 10.6809 11.7936 10.6809Z" fill="#888889"/>
<path d="M11.7936 23.5869C14.743 23.5869 17.134 21.1959 17.134 18.2465C17.134 15.297 14.743 12.906 11.7936 12.906C8.84414 12.906 6.45312 15.297 6.45312 18.2465C6.45312 21.1959 8.84414 23.5869 11.7936 23.5869Z" fill="#888889"/>
<path d="M18.2467 17.134C21.1962 17.134 23.5872 14.743 23.5872 11.7936C23.5872 8.84413 21.1962 6.45312 18.2467 6.45312C15.2972 6.45312 12.9062 8.84413 12.9062 11.7936C12.9062 14.743 15.2972 17.134 18.2467 17.134Z" fill="#888889"/>
<path d="M5.34045 17.134C8.28993 17.134 10.6809 14.743 10.6809 11.7936C10.6809 8.84413 8.28993 6.45312 5.34045 6.45312C2.391 6.45312 0 8.84413 0 11.7936C0 14.743 2.391 17.134 5.34045 17.134Z" fill="#888889"/>
<path d="M10.5368 10.5363C8.6009 10.0691 7.07664 8.5448 6.60938 6.60889C8.53417 7.0762 10.0584 8.6004 10.5368 10.5363Z" fill="#888889"/>
<path d="M6.59766 16.9893C7.06494 15.0534 8.5892 13.5292 10.5251 13.0619C10.0578 14.9866 8.5336 16.5109 6.59766 16.9893Z" fill="#888889"/>
<path d="M13.0508 13.0508C14.9867 13.518 16.511 15.0423 16.9782 16.9782C15.0535 16.5109 13.5292 14.9866 13.0508 13.0508Z" fill="#888889"/>
<path d="M16.99 6.59766C16.5226 8.5336 14.9984 10.0578 13.0625 10.5251C13.5298 8.60034 15.054 7.07607 16.99 6.59766Z" fill="#888889"/>
</g>
<defs>
<clipPath id="clip0">
<rect width="66.75" height="24" fill="white"/>
</clipPath>
</defs>
</svg>