<svg xmlns:xlink="http://www.w3.org/1999/xlink" xmlns="http://www.w3.org/2000/svg" width="73" height="26" viewBox="0 0 73 26" fill="none">
<g clip-path="url(#clip0_2284_8364)">
<path d="M40.9683 12.7522C40.9683 13.6077 40.8346 14.4153 40.5549 15.1628C40.2939 15.8937 39.8885 16.5657 39.3623 17.1397C38.839 17.706 38.2058 18.152 37.4397 18.4892C36.6736 18.8272 35.8091 18.9832 34.8355 18.9832C33.8627 18.9832 32.9982 18.815 32.2321 18.4892C31.4652 18.152 30.8328 17.706 30.3095 17.1397C29.7817 16.567 29.376 15.8946 29.1169 15.1628C28.8457 14.3877 28.7098 13.5725 28.715 12.7522C28.715 11.908 28.8495 11.1012 29.1169 10.3415C29.373 9.6047 29.7789 8.92776 30.3095 8.35247C30.8328 7.78616 31.4775 7.3401 32.2321 7.00291C32.9982 6.66491 33.8627 6.50891 34.8363 6.50891C35.8091 6.50891 36.6736 6.6771 37.4397 7.00291C38.2066 7.3401 38.839 7.78616 39.3623 8.35247C39.8856 8.91879 40.2752 9.58179 40.5549 10.3415C40.8346 11.1012 40.9683 11.908 40.9683 12.7522ZM34.8478 17.0064C35.4441 17.0064 35.9674 16.8983 36.4062 16.6814C36.8418 16.4706 37.2241 16.1658 37.525 15.7893C37.8362 15.3878 38.0637 14.9291 38.1943 14.4397C38.3443 13.8896 38.4179 13.3219 38.4133 12.7522C38.4179 12.1824 38.3443 11.6147 38.1943 11.0646C38.0637 10.5753 37.8362 10.1165 37.525 9.71504C37.2272 9.33515 36.8438 9.02962 36.4054 8.82291C35.9551 8.60597 35.4441 8.49791 34.8478 8.49791C34.2523 8.49791 33.729 8.60597 33.291 8.82291C32.8552 9.03369 32.4726 9.33854 32.1714 9.71504C31.8604 10.1166 31.6329 10.5753 31.5021 11.0646C31.3522 11.6147 31.2785 12.1824 31.2831 12.7522C31.2831 13.355 31.3561 13.9213 31.5021 14.4397C31.6481 14.9581 31.8671 15.4042 32.1714 15.7893C32.4749 16.1752 32.8407 16.4645 33.2902 16.6814C33.729 16.8983 34.2515 17.0064 34.8486 17.0064H34.8478ZM42.5743 18.7785V6.72585H45.1301V12.5108L49.3518 6.72585H52.3088L47.8303 12.6798L52.6122 18.7785H49.4494L45.1178 12.8602V18.7785H42.5751H42.5743ZM53.6351 6.72585H60.9482V8.73841H56.2015V11.6553H60.7284V13.6565H56.2015V16.7659H61.0081V18.7785H53.6465V6.72585H53.6342H53.6351ZM70.0617 6.72585H72.8357L68.833 12.7156L72.9087 18.7785H70.1101L67.4821 14.6688L64.8541 18.7785H62.0547L66.1312 12.7164L62.1285 6.72585H64.9025L67.4821 10.7997L70.0617 6.72585Z" fill="white"/>
<path d="M12.8971 11.5708C14.446 11.5708 15.9316 10.9613 17.0268 9.87631C18.1221 8.79133 18.7375 7.31979 18.7375 5.78541C18.7375 4.25102 18.1221 2.77948 17.0268 1.69451C15.9316 0.609532 14.446 0 12.8971 0C11.3481 0 9.86255 0.609532 8.76726 1.69451C7.67197 2.77948 7.05664 4.25102 7.05664 5.78541C7.05664 7.31979 7.67197 8.79133 8.76726 9.87631C9.86255 10.9613 11.3481 11.5708 12.8971 11.5708Z" fill="#88BDF3"/>
<path d="M12.897 25.5531C14.4461 25.5531 15.9318 24.9436 17.0271 23.8585C18.1225 22.7735 18.7379 21.3018 18.7379 19.7673C18.7379 18.2328 18.1225 16.7612 17.0271 15.6761C15.9318 14.5911 14.4461 13.9815 12.897 13.9815C11.3481 13.9815 9.86255 14.591 8.76726 15.676C7.67197 16.761 7.05664 18.2325 7.05664 19.7669C7.05664 21.3013 7.67197 22.7728 8.76726 23.8578C9.86255 24.9428 11.3481 25.5523 12.897 25.5523V25.5531Z" fill="#3075EE"/>
<path d="M19.9562 18.5616C21.5051 18.5616 22.9905 17.9521 24.0857 16.8672C25.1809 15.7823 25.7962 14.3109 25.7962 12.7766C25.7962 11.2423 25.1809 9.77086 24.0857 8.68597C22.9905 7.60107 21.5051 6.99158 19.9562 6.99158C18.4073 6.99158 16.9219 7.60107 15.8267 8.68597C14.7315 9.77086 14.1162 11.2423 14.1162 12.7766C14.1162 14.3109 14.7315 15.7823 15.8267 16.8672C16.9219 17.9521 18.4073 18.5616 19.9562 18.5616Z" fill="#5795F1"/>
<path d="M5.84 18.5616C7.38886 18.5616 8.87429 17.9521 9.9695 16.8672C11.0647 15.7823 11.68 14.3109 11.68 12.7766C11.68 11.2423 11.0647 9.77086 9.9695 8.68597C8.87429 7.60107 7.38886 6.99158 5.84 6.99158C4.29114 6.99158 2.80571 7.60107 1.7105 8.68597C0.615284 9.77086 0 11.2423 0 12.7766C0 14.3109 0.615284 15.7823 1.7105 16.8672C2.80571 17.9521 4.29114 18.5616 5.84 18.5616Z" fill="#205FEC"/>
<path d="M11.5239 11.4148C10.4826 11.1643 9.53095 10.6347 8.77317 9.88424C8.01538 9.13374 7.48066 8.19117 7.22754 7.15973C9.33306 7.66592 11.0006 9.31692 11.5231 11.4148H11.5239Z" fill="#134BEF"/>
<path d="M7.21582 18.4048C7.46894 17.3737 8.00348 16.4314 8.76094 15.6811C9.51841 14.9307 10.4696 14.4012 11.5105 14.1505C10.9995 16.2354 9.33282 17.8864 7.21582 18.4048Z" fill="#0932E8"/>
<path d="M14.2715 14.1383C15.3126 14.389 16.2641 14.9185 17.0217 15.669C17.7793 16.4195 18.3139 17.362 18.567 18.3934C16.4623 17.8872 14.7948 16.2354 14.2715 14.1383Z" fill="#164BEA"/>
<path d="M18.5807 7.14758C18.3275 8.17877 17.7928 9.1211 17.0352 9.87144C16.2776 10.6218 15.3262 11.1512 14.2852 11.4018C14.7962 9.31696 16.4629 7.66596 18.5807 7.14758Z" fill="#3170F1"/>
</g>
<defs>
<clipPath id="clip0_2284_8364">
<rect width="73" height="26" fill="white"/>
</clipPath>
</defs>
</svg>