<svg xmlns:xlink="http://www.w3.org/1999/xlink" xmlns="http://www.w3.org/2000/svg" width="93" height="24" viewBox="0 0 93 24" fill="none">
<g clip-path="url(#clip0)">
<path fill-rule="evenodd" clip-rule="evenodd" d="M29.0709 13.3015C29.7153 13.5993 30.378 13.6706 31.4518 13.6878C34.2634 13.7396 35.2833 14.4077 35.2833 16.0234C35.2833 16.4282 35.1937 16.7973 35.0329 17.1135C34.871 17.4287 34.5311 17.7632 34.0475 18.0967C33.5651 18.4313 32.7232 18.5878 31.5231 18.5878C29.8232 18.5878 28.5691 18.1842 27.7283 17.3585C27.6387 17.2711 27.5848 17.148 27.5664 17.0077C27.5848 16.7088 27.7283 16.5685 27.997 16.5685C28.1395 16.5685 28.2474 16.603 28.337 16.6915C28.963 17.3768 30.0919 17.7632 31.4702 17.7632C33.332 17.7632 34.3702 17.1308 34.3702 16.0061C34.3875 15.4967 34.2267 15.1632 33.8867 14.9873C33.224 14.6365 32.5085 14.548 31.3623 14.5308C28.6414 14.4779 27.71 13.881 27.71 12.3873C27.71 10.8072 29.1605 9.80563 31.399 9.80563C32.7772 9.80563 33.9051 10.192 34.7458 10.9119C34.8354 11.0004 34.8894 11.1062 34.8894 11.2638C34.8721 11.5271 34.7275 11.6847 34.4771 11.703C34.3346 11.703 34.2083 11.6674 34.1188 11.5789C33.4755 10.9648 32.5268 10.6486 31.4529 10.6486C31.0223 10.6486 30.6283 10.6842 30.2884 10.7716C29.9484 10.859 29.5728 11.0177 29.1961 11.2465C28.8205 11.4731 28.6414 11.8433 28.6241 12.3873C28.6058 12.8449 28.7666 13.1428 29.0709 13.3015ZM55.439 13.5637V17.991C55.439 18.3072 55.2966 18.4658 54.9922 18.4831C54.6879 18.4658 54.526 18.3072 54.526 17.991V13.6522C54.526 11.6847 53.6841 10.6486 52.0555 10.6486C50.4085 10.6486 49.3518 11.9308 49.3518 13.9857V17.991C49.3518 18.3072 49.2094 18.4658 48.905 18.4831C48.6007 18.4658 48.4399 18.3072 48.4399 17.991V13.6522C48.4399 11.6847 47.598 10.6486 45.9683 10.6486C44.304 10.6486 43.2657 11.9308 43.2657 13.9857V17.991C43.2657 18.3072 43.1038 18.4658 42.8006 18.4831C42.5135 18.4658 42.371 18.3072 42.3527 17.991V10.4208C42.371 10.0863 42.5146 9.92867 42.8006 9.91141C43.1038 9.92867 43.2647 10.0873 43.2647 10.4208V11.3339H43.3014C43.8734 10.3507 44.8588 9.80563 46.1291 9.80563C47.5624 9.80563 48.5294 10.4381 49.0119 11.6145H49.0486C49.6206 10.491 50.6589 9.80563 52.1807 9.80563C54.3468 9.80563 55.4401 11.1224 55.4401 13.5648L55.439 13.5637ZM66.7489 14.1973C66.7489 12.0894 65.335 10.6486 63.2218 10.6486C61.1269 10.6486 59.6601 12.0894 59.6601 14.1973C59.6601 16.3051 61.1269 17.7449 63.2218 17.7449C65.335 17.7449 66.7489 16.3051 66.7489 14.1973ZM59.6591 10.4198V11.6318H59.6947C59.8738 11.3339 60.0886 11.0878 60.3217 10.8601C60.5721 10.6313 60.9305 10.4025 61.3956 10.1748C61.8608 9.92867 62.5051 9.80563 63.3481 9.80563C64.6357 9.80563 65.7106 10.2449 66.4802 11.0177C67.6253 12.2815 67.6253 13.3004 67.6793 14.1973C67.6793 14.847 67.5908 15.3737 67.2853 16.1993C66.8201 17.4114 65.2455 18.659 63.3481 18.5889C62.5062 18.5889 61.8608 18.4658 61.3946 18.237C60.4642 17.7449 60.053 17.3412 59.6947 16.7617H59.6591V21.258C59.6591 21.5742 59.5166 21.7329 59.2112 21.7501C58.9068 21.7329 58.7471 21.5742 58.7471 21.258V10.4198C58.7471 10.0862 58.9068 9.92867 59.2112 9.91141C59.5166 9.92867 59.6591 10.0863 59.6591 10.4208V10.4198ZM71.3467 6.46847V17.991C71.3467 18.3072 71.1859 18.4658 70.8815 18.4831C70.5944 18.4658 70.4509 18.3072 70.4325 17.991V6.46847C70.4509 6.15116 70.5944 5.99359 70.8815 5.97632C71.1859 5.99359 71.3467 6.15116 71.3467 6.46847ZM74.9742 13.6878H82.009C81.7769 11.8606 80.4332 10.6486 78.5002 10.6486C76.5316 10.6486 75.2062 11.8606 74.9742 13.6878ZM82.3317 14.5135H74.9558C75.0994 16.4454 76.4593 17.746 78.5898 17.746C79.8612 17.746 80.8455 17.2365 81.4909 16.4454C81.5805 16.3224 81.7068 16.2695 81.8309 16.2695C82.1342 16.2868 82.2961 16.4454 82.2961 16.7444C82.2961 16.8491 82.2594 16.9548 82.1709 17.0433C81.3474 17.991 80.1472 18.5889 78.5898 18.5889C77.2115 18.5889 76.0664 18.1496 75.2602 17.3768C74.0784 16.1119 74.0427 15.0931 74.006 14.1973C74.006 13.5475 74.0784 13.0025 74.4183 12.2114C74.9202 10.9821 76.5122 9.71821 78.5002 9.80563C81.0614 9.80563 82.8864 11.5454 82.8864 13.9857C82.8681 14.3203 82.6706 14.4962 82.3317 14.5135ZM92.3658 17.6575C92.4738 17.7632 92.5277 17.8863 92.5277 18.0438C92.5094 18.3245 92.3496 18.4658 92.0442 18.4831C91.9007 18.4831 91.7755 18.413 91.6686 18.2899L88.4275 14.7423L85.1519 18.3072C85.0623 18.4302 84.9382 18.4831 84.7935 18.4831C84.5065 18.4658 84.364 18.3072 84.3467 18.0266C84.3467 17.9035 84.3823 17.7978 84.4719 17.7103L87.8015 14.1616L84.596 10.7371C84.4903 10.614 84.4352 10.491 84.4352 10.3496C84.4536 10.069 84.6155 9.92867 84.9187 9.91141C85.0623 9.91141 85.1875 9.98156 85.2943 10.1046L88.4459 13.5831L91.6157 10.0862C91.7215 9.96321 91.8478 9.91141 91.9719 9.91141C92.259 9.92867 92.4036 10.0862 92.4209 10.3679C92.4209 10.491 92.3842 10.5968 92.2957 10.6842L89.0729 14.1444L92.3669 17.6575H92.3658Z" fill="#888889"/>
<path fill-rule="evenodd" clip-rule="evenodd" d="M40.5778 8.00959C40.5778 6.97348 39.7219 6.13379 38.6664 6.13379C37.6087 6.13379 36.7539 6.97348 36.7539 8.00959C36.7539 8.89137 37.3745 9.62853 38.2099 9.82927V17.9919C38.2271 18.3071 38.3707 18.4657 38.6567 18.483C38.961 18.4657 39.1229 18.3071 39.1229 17.9919V9.82927C39.9572 9.62853 40.5778 8.89137 40.5778 8.00959Z" fill="#888889"/>
<mask id="mask0" style="mask-type:alpha" maskUnits="userSpaceOnUse" x="0" y="0" width="24" height="24">
<path d="M0.183594 0.428955H23.3772V23.6978H0.183594V0.428955Z" fill="white"/>
</mask>
<g mask="url(#mask0)">
<path fill-rule="evenodd" clip-rule="evenodd" d="M10.582 4.64673L13.3148 2.50913L7.17404 3.88353L10.582 4.64673ZM12.7076 5.12353L13.7396 3.02193L11.422 4.83473L12.7076 5.12353ZM14.3444 5.48993V3.31153L13.382 5.27473L14.3452 5.48993H14.3444ZM16.302 5.92913L15.018 3.31393V5.64193L16.302 5.92913ZM8.87964 5.97953L9.90924 5.17393L7.02444 4.52673L8.88044 5.97873L8.87964 5.97953ZM20.5516 6.88193L15.622 3.02273L17.1404 6.11713L20.5508 6.88113L20.5516 6.88193ZM7.56764 7.00593L8.33964 6.40113L6.60364 5.04353L7.56684 7.00593H7.56764ZM11.3412 7.90593L12.4084 5.73393L10.7484 5.36193L9.41964 6.40193L11.3412 7.90593ZM18.0868 8.04353L20.4012 7.52593L17.5148 6.87793L18.0868 8.04353ZM5.99724 8.23473L7.02684 7.42913L5.99804 5.33073V8.23473H5.99724ZM15.0172 8.73073L17.4132 8.19473L16.6748 6.69073L15.0172 6.31873V8.73073ZM12.9772 9.18673L14.3436 8.88113V6.16833L13.0812 5.88433L11.8812 8.32913L12.9772 9.18673ZM18.8148 9.52753L20.5508 8.16913L18.386 8.65393L18.8148 9.52753ZM11.2724 9.56753L12.138 9.37473L11.582 8.93873L11.2724 9.56833V9.56753ZM9.06604 10.0619L10.434 9.75633L11.042 8.51633L8.87964 6.82433L7.86684 7.61633L9.06604 10.0619ZM14.3436 10.2555V9.55953L13.6516 9.71313L14.3436 10.2555ZM5.99644 10.7491L8.39324 10.2131L7.32604 8.03873L5.99644 9.07873V10.7491ZM2.58924 10.9011L5.32364 8.76113L5.32444 5.32993L2.58924 10.9003V10.9011ZM9.67404 11.3019L10.0596 10.5171L9.36524 10.6723L9.67404 11.3019ZM19.686 11.3019L20.9708 8.68593L19.1148 10.1379L19.686 11.3027V11.3019ZM3.00844 11.4179L5.32364 10.8995V9.60673L3.00844 11.4179ZM16.1132 11.6411L18.2748 9.94993L17.7132 8.80433L15.0172 9.40833V10.7827L16.1132 11.6411ZM15.0164 12.4995L15.5732 12.0635L15.0164 11.6267V12.4987V12.4995ZM5.32284 12.5475V11.5771L3.15884 12.0619L5.32284 12.5467V12.5475ZM8.69244 13.3011L9.30044 12.0635L8.69244 10.8235L5.99644 11.4267V12.6971L8.69244 13.3011ZM18.574 13.5667L19.3124 12.0627L18.5748 10.5611L16.6532 12.0635L18.574 13.5675V13.5667ZM10.058 13.6075L9.67404 12.8251L9.36524 13.4523L10.058 13.6075ZM12.81 14.2235L14.3428 13.0259V11.1003L12.8116 9.90193L10.8996 10.3291L10.0476 12.0635L10.8972 13.7955L12.8108 14.2243L12.81 14.2235ZM5.32284 14.5171V13.2243L3.00844 12.7059L5.32284 14.5171ZM14.342 14.5675V13.8715L13.65 14.4131L14.342 14.5675ZM21.5764 15.1539L21.5772 8.97233L20.0596 12.0635L21.5764 15.1539ZM11.5804 15.1875L12.1372 14.7507L11.2708 14.5571L11.5804 15.1875ZM17.7116 15.3227L18.2748 14.1771L16.1132 12.4859L15.0156 13.3443V14.7187L17.7116 15.3227ZM20.9708 15.4427L19.686 12.8251L19.114 13.9891L20.9708 15.4427ZM20.5508 15.9587L18.8148 14.5995L18.3852 15.4731L20.5508 15.9587ZM7.32604 16.0867L8.39324 13.9131L5.99724 13.3763V15.0451L7.32604 16.0867ZM17.514 17.2499L20.402 16.6035L18.086 16.0851L17.514 17.2499ZM8.87884 17.3019L11.0404 15.6099L10.4324 14.3699L9.06684 14.0635L7.86604 16.5091L8.87884 17.3011V17.3019ZM15.0156 17.8091L16.6748 17.4379L17.4132 15.9339L15.0164 15.3971V17.8091H15.0156ZM13.0796 18.2427L14.342 17.9603L14.3428 15.2459L12.978 14.9395L11.8804 15.7979L13.0788 18.2427H13.0796ZM10.7476 18.7643L12.4052 18.3931L11.3404 16.2211L9.41804 17.7243L10.7476 18.7643ZM5.32364 18.7947V15.3635L2.58924 13.2227L5.32204 18.7947H5.32364ZM5.99564 18.7947L7.02684 16.6971L5.99644 15.8907V18.7947H5.99564ZM6.60284 19.0819L8.33884 17.7235L7.56604 17.1195L6.60284 19.0819ZM7.02284 19.5979L9.90764 18.9523L8.87884 18.1467L7.02284 19.5979ZM14.342 20.8171V18.6379L13.3788 18.8539L14.342 20.8171ZM15.0156 20.8171L16.3004 18.1995L15.0156 18.4867V20.8171ZM13.7356 21.1035L12.7052 19.0043L11.4204 19.2923L13.7348 21.1035H13.7356ZM15.6212 21.1035L20.5516 17.2475L17.1404 18.0115L15.6212 21.1043V21.1035ZM13.3132 21.6187L10.5804 19.4795L7.17244 20.2419L13.3132 21.6187ZM14.6788 23.6987C14.2308 23.6987 13.814 23.5019 13.5348 23.1587C13.3308 22.9075 13.2188 22.5955 13.2164 22.2747L6.96844 20.8747C6.87244 21.0651 6.73884 21.2291 6.56924 21.3619C6.30764 21.5667 5.99324 21.6739 5.65884 21.6739C5.21084 21.6739 4.79404 21.4779 4.51484 21.1347C4.27164 20.8347 4.16124 20.4595 4.20524 20.0787C4.24844 19.7027 4.43724 19.3643 4.73804 19.1251L1.95964 13.4611C1.85564 13.4835 1.75084 13.4939 1.64444 13.4939C1.19644 13.4939 0.780441 13.2979 0.502041 12.9555C-0.00115864 12.3371 0.103641 11.4323 0.734041 10.9395C0.994841 10.7355 1.30844 10.6275 1.64204 10.6275C1.74924 10.6275 1.85564 10.6395 1.96044 10.6619L4.74204 4.99633C4.65724 4.92993 4.58204 4.85633 4.51884 4.77793C4.27564 4.47873 4.16524 4.10353 4.21004 3.72273C4.25324 3.34193 4.44524 3.00113 4.75084 2.76273C5.01244 2.55793 5.32684 2.44913 5.66124 2.44913C6.10924 2.44913 6.52604 2.64593 6.80524 2.98993C6.86924 3.06833 6.92524 3.15553 6.97324 3.25153L13.2212 1.85313C13.2236 1.41713 13.4212 1.01473 13.7692 0.742732C14.0308 0.537932 14.3452 0.429932 14.6796 0.429932C15.1276 0.429932 15.5452 0.626732 15.8236 0.969932C16.1708 1.39713 16.2388 1.98273 16.002 2.47553L21.014 6.39873C21.274 6.19873 21.5852 6.09313 21.9148 6.09313C22.3628 6.09313 22.7796 6.28993 23.0588 6.63313C23.5612 7.25153 23.4572 8.15633 22.8268 8.64913C22.6572 8.78193 22.4636 8.87393 22.2516 8.92273L22.2508 15.2083C22.5692 15.2819 22.854 15.4587 23.058 15.7099C23.3012 16.0091 23.4108 16.3843 23.3676 16.7643C23.3236 17.1451 23.1316 17.4867 22.826 17.7259C22.5644 17.9299 22.25 18.0379 21.9156 18.0379C21.5876 18.0379 21.2676 17.9299 21.0116 17.7323L16.0004 21.6523C16.2884 22.2499 16.1196 22.9723 15.5892 23.3859C15.3276 23.5907 15.0132 23.6987 14.6788 23.6987Z" fill="#888889"/>
</g>
</g>
<defs>
<clipPath id="clip0">
<rect width="93" height="24" fill="white" transform="translate(0 0.00012207)"/>
</clipPath>
</defs>
</svg>