<svg xmlns:xlink="http://www.w3.org/1999/xlink" xmlns="http://www.w3.org/2000/svg" width="105" height="26" viewBox="0 0 105 26" fill="none">
<g clip-path="url(#clip0_2284_8366)">
<path fill-rule="evenodd" clip-rule="evenodd" d="M32.8207 14.4097C33.5489 14.7323 34.2966 14.8094 35.5092 14.8281C38.6829 14.885 39.8345 15.6081 39.8345 17.3583C39.8345 17.797 39.7329 18.1968 39.5517 18.5396C39.3688 18.8809 38.9852 19.2433 38.439 19.604C37.8946 19.9672 36.9445 20.137 35.5888 20.137C33.67 20.137 32.2542 19.6991 31.3041 18.8045C31.2008 18.7012 31.1366 18.5676 31.1221 18.4251C31.1424 18.1009 31.305 17.9489 31.6081 17.9489C31.769 17.9489 31.8909 17.9863 31.9917 18.0822C32.6988 18.8248 33.9732 19.2441 35.5295 19.2441C37.6312 19.2441 38.804 18.5583 38.804 17.3396C38.8235 16.7879 38.6414 16.4271 38.2578 16.2362C37.5093 15.8559 36.7015 15.7601 35.4076 15.7414C32.3355 15.6845 31.2838 15.0378 31.2838 13.4193C31.2838 11.7081 32.9215 10.6226 35.4491 10.6226C37.0055 10.6226 38.279 11.0411 39.2282 11.8211C39.329 11.9169 39.3891 12.0323 39.3891 12.2029C39.3705 12.4873 39.2071 12.6579 38.9242 12.6783C38.7634 12.6783 38.6211 12.6393 38.5195 12.5434C37.7938 11.8787 36.7226 11.5359 35.5101 11.5359C35.024 11.5359 34.5786 11.5741 34.195 11.6691C33.7602 11.7823 33.3449 11.9556 32.9621 12.1834C32.5387 12.4288 32.3355 12.8302 32.316 13.4193C32.2957 13.9149 32.4769 14.2383 32.8207 14.4105V14.4097ZM62.5907 14.6941V19.4903C62.5907 19.8323 62.4298 20.0046 62.0869 20.0233C61.7431 20.0046 61.5602 19.8323 61.5602 19.4903V14.7899C61.5602 12.6579 60.6093 11.5359 58.7709 11.5359C56.9114 11.5359 55.7183 12.9253 55.7183 15.1515V19.4903C55.7183 19.8323 55.5574 20.0046 55.2136 20.0233C54.8707 20.0046 54.6886 19.8323 54.6886 19.4903V14.7899C54.6886 12.6579 53.7386 11.5359 51.8985 11.5359C50.0187 11.5359 48.8467 12.9253 48.8467 15.1515V19.4903C48.8467 19.8323 48.6647 20.0046 48.3217 20.0233C47.9974 20.0046 47.8365 19.8323 47.8162 19.4903V11.2889C47.8365 10.9265 47.9991 10.7559 48.3217 10.7372C48.6638 10.7559 48.8459 10.9281 48.8459 11.2897V12.2785H48.8874C49.5326 11.2133 50.6453 10.6226 52.0797 10.6226C53.6979 10.6226 54.7894 11.3076 55.3347 12.5824H55.3762C56.0215 11.3653 57.1942 10.6226 58.9123 10.6226C61.3578 10.6226 62.5924 12.0494 62.5924 14.6949L62.5907 14.6941ZM75.3601 15.3806C75.3601 13.0975 73.7639 11.5359 71.3777 11.5359C69.0127 11.5359 67.3572 13.0967 67.3572 15.3806C67.3572 17.6638 69.0127 19.2238 71.3777 19.2238C73.7639 19.2238 75.3601 17.6638 75.3601 15.3806ZM67.3555 11.2881V12.6011H67.3962C67.5986 12.2785 67.8407 12.012 68.1041 11.765C68.3869 11.5172 68.7908 11.2694 69.3158 11.0224C69.8408 10.7559 70.569 10.6226 71.5208 10.6226C72.9747 10.6226 74.1882 11.0987 75.0569 11.9356C76.35 13.3047 76.35 14.4089 76.4109 15.3806C76.4109 16.0843 76.311 16.6546 75.9664 17.5492C75.4414 18.8622 73.6632 20.2142 71.5208 20.1378C70.5699 20.1378 69.8417 20.0046 69.315 19.7559C68.265 19.2238 67.8001 18.7858 67.3962 18.1586H67.3555V23.0295C67.3555 23.3716 67.1946 23.5438 66.85 23.5625C66.5062 23.5438 66.3259 23.3716 66.3259 23.0295V11.2881C66.3259 10.9265 66.5062 10.7559 66.85 10.7372C67.1946 10.7559 67.3555 10.9265 67.3555 11.2897V11.2881ZM80.5517 7.007V19.4903C80.5517 19.8323 80.3696 20.0046 80.0267 20.0233C79.7024 20.0046 79.5398 19.8323 79.5186 19.4903V7.007C79.5398 6.66331 79.7024 6.49269 80.0267 6.474C80.3696 6.49269 80.5517 6.66331 80.5517 7.007ZM84.6467 14.8281H92.5894C92.3278 12.8489 90.8103 11.5359 88.6282 11.5359C86.4054 11.5359 84.9092 12.8489 84.6467 14.8281ZM92.9535 15.7227H84.6263C84.7881 17.8157 86.3233 19.2246 88.729 19.2246C90.1642 19.2246 91.2761 18.6721 92.0043 17.8157C92.0476 17.7565 92.1051 17.7082 92.1721 17.6749C92.239 17.6417 92.3133 17.6245 92.3887 17.6248C92.7308 17.6434 92.9137 17.8157 92.9137 18.1399C92.9137 18.2536 92.8722 18.3674 92.7723 18.4633C91.8426 19.4903 90.4877 20.1378 88.729 20.1378C87.1726 20.1378 85.8804 19.6617 84.9701 18.8248C83.6356 17.4541 83.595 16.3508 83.5535 15.3798C83.5535 14.6762 83.6356 14.0863 84.0192 13.2291C84.5865 11.8966 86.3834 10.5276 88.6282 10.6226C91.5199 10.6226 93.5801 12.5076 93.5801 15.1515C93.559 15.5139 93.3363 15.704 92.9535 15.7227ZM104.283 19.1287C104.342 19.1821 104.389 19.247 104.421 19.3191C104.452 19.3912 104.467 19.4689 104.465 19.5471C104.445 19.851 104.265 20.0046 103.919 20.0233C103.758 20.0233 103.616 19.9477 103.496 19.8136L99.8361 15.9705L96.1382 19.8323C96.0926 19.8939 96.0317 19.9436 95.961 19.9769C95.8904 20.0102 95.8122 20.0262 95.7335 20.0233C95.4092 20.0046 95.2483 19.8323 95.2288 19.5284C95.2288 19.3952 95.2686 19.2806 95.3702 19.1864L99.129 15.3416L95.5099 11.6318C95.3905 11.4985 95.3287 11.3653 95.3287 11.2117C95.349 10.9078 95.5319 10.7567 95.8749 10.7372C96.0366 10.7372 96.178 10.8136 96.2983 10.9468L99.8564 14.7152L103.436 10.9265C103.484 10.8683 103.545 10.8211 103.615 10.7884C103.684 10.7556 103.76 10.7381 103.838 10.7372C104.162 10.7559 104.325 10.9265 104.345 11.232C104.348 11.2953 104.336 11.3584 104.312 11.4173C104.288 11.4762 104.251 11.5295 104.204 11.5741L100.565 15.3229L104.284 19.1287H104.283Z" fill="white"/>
<path fill-rule="evenodd" clip-rule="evenodd" d="M45.812 8.67753C45.812 7.55465 44.8466 6.64465 43.6544 6.64465C42.4604 6.64465 41.4951 7.55465 41.4951 8.67672C41.4951 9.63222 42.1954 10.4309 43.1387 10.6478V19.4919C43.1582 19.8332 43.3208 20.0054 43.6434 20.0241C43.9872 20.0054 44.1701 19.8332 44.1701 19.4919V10.6478C45.1117 10.4309 45.8128 9.63222 45.8128 8.67672L45.812 8.67753Z" fill="#2EA836"/>
<mask id="mask0_2284_8366" style="mask-type:alpha" maskUnits="userSpaceOnUse" x="0" y="0" width="27" height="26">
<path d="M0.208008 0.464722H26.3945V25.6725H0.208008V0.464722Z" fill="white"/>
</mask>
<g mask="url(#mask0_2284_8366)">
<path fill-rule="evenodd" clip-rule="evenodd" d="M11.9481 5.03359L15.0337 2.71796L8.1012 4.20728L11.9489 5.03359H11.9481ZM14.3487 5.55034L15.5139 3.27371L12.8973 5.23753L14.3487 5.55034ZM16.1964 5.94684V3.58734L15.1099 5.71365L16.1972 5.94684H16.1964ZM18.4064 6.42296L16.9568 3.58978V6.11178L18.4064 6.42296ZM10.0268 6.4774L11.1894 5.60478L7.93184 4.90359L10.0276 6.47659L10.0268 6.4774ZM23.2051 7.45484L17.6384 3.27453L19.3523 6.6269L23.2026 7.45403L23.2043 7.45484H23.2051ZM8.54491 7.58971L9.41708 6.93403L7.4568 5.4634L8.54406 7.58971H8.54575H8.54491ZM12.8059 8.56471L14.0108 6.21171L12.1369 5.80871L10.6364 6.93484L12.8059 8.56471ZM20.4218 8.7134L23.0349 8.15278L19.7757 7.45078L20.4218 8.7134ZM6.77176 8.92059L7.93438 8.04796L6.7743 5.77459V8.92059H6.77346H6.77176ZM16.9559 9.45846L19.6614 8.87753L18.8273 7.24765L16.9559 6.84465V9.45765V9.45846ZM14.6527 9.95165L16.1955 9.62096V6.68215L14.7704 6.37421L13.4156 9.02296L14.6527 9.95165ZM21.244 10.3213L23.2034 8.8499L20.7596 9.37478L21.244 10.3213ZM12.728 10.3644L13.7051 10.1556L13.0777 9.68353L12.728 10.366V10.3644ZM10.2368 10.9007L11.7813 10.5692L12.468 9.22609L10.0268 7.39309L8.88362 8.25109L10.2368 10.8998V10.9007ZM16.1955 11.1103V10.3563L15.4139 10.522L16.1955 11.1103ZM6.77091 11.6449L9.47721 11.064L8.27225 8.70771L6.77176 9.83465V11.6449H6.77091ZM2.92487 11.809L6.01136 9.49096L6.01305 5.77378L2.92487 11.8082V11.809ZM10.9235 12.2437L11.3587 11.393L10.5746 11.5612L10.9235 12.2437ZM22.2279 12.2437L23.6776 9.40971L21.5827 10.9827L22.2271 12.2445V12.2437H22.2279ZM3.39821 12.3688L6.01136 11.8082V10.4075L3.39821 12.3688ZM18.1939 12.611L20.6343 10.7788L20.0001 9.53809L16.9559 10.1922V11.6807L18.1939 12.611ZM16.9551 13.5413L17.5842 13.0684L16.9551 12.5955V13.5413ZM6.01051 13.5933V12.5419L3.56757 13.0668L6.01051 13.5917V13.5933ZM9.81507 14.409L10.501 13.0684L9.81507 11.7253L6.77176 12.3786V13.755L9.81507 14.409ZM20.9722 14.6966L21.8054 13.0676L20.973 11.441L18.8036 13.0684L20.9713 14.6983V14.6966H20.9722ZM11.357 14.7413L10.9235 13.8939L10.5746 14.5731L11.357 14.7413ZM14.4647 15.4084L16.1947 14.1108V12.0252L14.4664 10.7268L12.3071 11.1899L11.3452 13.0684L12.3046 14.9453L14.4647 15.4092V15.4084ZM6.01051 15.7269V14.3261L3.39821 13.7647L6.01051 15.7269ZM16.1938 15.7813V15.0273L15.4122 15.614L16.1938 15.7813ZM24.3618 16.4167L24.3626 9.72009L22.6488 13.0684L24.3618 16.4159V16.4167ZM13.076 16.4533L13.7043 15.9796L12.7263 15.77L13.076 16.4525V16.4533ZM19.9984 16.5995L20.6335 15.358L18.1939 13.5258L16.9542 14.4561V15.9446L19.9984 16.5995ZM23.6776 16.7295L22.2279 13.8939L21.5827 15.1549L23.6785 16.7295H23.6776ZM23.2034 17.2885L21.244 15.8163L20.7588 16.762L23.2034 17.2885ZM8.27225 17.4266L9.47721 15.072L6.77261 14.4911V16.2989L8.27225 17.4275V17.4266ZM19.7748 18.6876L23.0358 17.9881L20.4209 17.4258L19.7748 18.6876ZM10.0259 18.7445L12.4663 16.9115L11.7804 15.5676L10.2376 15.2361L8.88277 17.8849L10.0259 18.7437V18.7445ZM16.9542 19.2938L18.8273 18.8916L19.6614 17.2625L16.9551 16.6808V19.2938H16.9542ZM14.7687 19.7634L16.1938 19.4579L16.1947 16.5166L14.6535 16.1851L13.4147 17.1146L14.7679 19.7634H14.7687ZM12.1352 20.3289L14.0066 19.9267L12.8042 17.5737L10.6347 19.202L12.1361 20.3289H12.1352ZM6.01136 20.3614V16.6442L2.92487 14.3245L6.00966 20.3614H6.0122H6.01136ZM6.77007 20.3614L7.93438 18.0888L6.77176 17.2154V20.3614H6.77007ZM7.45596 20.6726L9.41624 19.2011L8.54406 18.5471L7.45596 20.6726ZM7.93015 21.2316L11.1868 20.5328L10.0259 19.6594L7.93015 21.2316ZM16.1938 22.5527V20.1908L15.1066 20.4248L16.1938 22.5519V22.5527ZM16.9542 22.5527L18.4047 19.7171L16.9542 20.0283V22.5527ZM15.5096 22.8631L14.3462 20.5881L12.8956 20.9009L15.5079 22.8631H15.5096ZM17.6384 22.8631L23.2051 18.6852L19.3531 19.5131L17.6384 22.8639V22.8631ZM15.032 23.4205L11.9472 21.1032L8.0995 21.9295L15.032 23.4205ZM16.574 25.6743C16.3269 25.6755 16.0827 25.6235 15.8592 25.5223C15.6358 25.4211 15.4388 25.2731 15.2827 25.0893C15.0529 24.8185 14.9259 24.4807 14.9228 24.1314L7.86918 22.6145C7.73068 22.8762 7.51906 23.0958 7.25797 23.2487C6.99688 23.4017 6.69661 23.482 6.39071 23.4806C6.14353 23.482 5.89915 23.4303 5.67554 23.3292C5.45193 23.2281 5.25476 23.0802 5.09854 22.8964C4.9644 22.7382 4.86443 22.556 4.80444 22.3604C4.74446 22.1647 4.72566 21.9596 4.74915 21.7569C4.77263 21.5542 4.83793 21.3581 4.94124 21.1799C5.04455 21.0016 5.1838 20.8449 5.35087 20.7189L2.21358 14.5837C2.09587 14.6081 1.97817 14.6186 1.85793 14.6186C1.61128 14.6201 1.36743 14.5685 1.14426 14.4677C0.921102 14.3669 0.724297 14.2194 0.568293 14.0361C0.433499 13.8772 0.333194 13.6941 0.273285 13.4975C0.213375 13.3008 0.195073 13.0947 0.219455 12.8912C0.243837 12.6877 0.310411 12.4909 0.415257 12.3124C0.520102 12.134 0.6611 11.9775 0.829947 11.8521C1.12201 11.6318 1.48307 11.5127 1.85454 11.5141C1.97648 11.5141 2.09587 11.5271 2.21442 11.5506L5.35511 5.41303C5.13942 5.25233 4.97072 5.04083 4.86537 4.7991C4.76003 4.55736 4.72163 4.29359 4.7539 4.0334C4.80301 3.62065 5.01979 3.25178 5.36527 2.9934C5.65815 2.77209 6.02046 2.65239 6.39325 2.65378C6.69984 2.65272 7.00069 2.73346 7.26222 2.88698C7.52375 3.0405 7.73565 3.26076 7.87426 3.52315L14.9279 2.00784C14.9286 1.77526 14.9848 1.54591 15.092 1.33735C15.1993 1.12878 15.3549 0.94653 15.5469 0.804527C15.8399 0.583508 16.2022 0.464098 16.5749 0.465714C17.0812 0.465714 17.552 0.678589 17.8662 1.05071C18.2583 1.51384 18.3353 2.14759 18.0677 2.6814L23.7267 6.93159C24.0179 6.71583 24.3758 6.59946 24.7437 6.6009C25.2492 6.6009 25.72 6.81378 26.035 7.1859C26.1698 7.34476 26.2701 7.5279 26.33 7.72453C26.3899 7.92115 26.4082 8.12729 26.3839 8.33081C26.3595 8.53432 26.2929 8.7311 26.1881 8.90956C26.0832 9.08801 25.9422 9.24453 25.7734 9.3699C25.5823 9.51329 25.3605 9.61429 25.1239 9.66565V16.4752C25.4829 16.5548 25.8039 16.7466 26.0342 17.0196C26.3094 17.343 26.4322 17.7492 26.3839 18.1611C26.3596 18.3651 26.2929 18.5624 26.1879 18.7413C26.0829 18.9201 25.9417 19.0771 25.7725 19.2028C25.4793 19.4232 25.1171 19.5423 24.7445 19.5408C24.3745 19.5408 24.0129 19.4238 23.7242 19.2101L18.066 23.4562C18.3912 24.1038 18.2015 24.8862 17.602 25.3347C17.309 25.5557 16.9467 25.6751 16.574 25.6735V25.6743Z" fill="#2EA836"/>
</g>
</g>
<defs>
<clipPath id="clip0_2284_8366">
<rect width="105" height="26" fill="white"/>
</clipPath>
</defs>
</svg>