<svg xmlns:xlink="http://www.w3.org/1999/xlink" xmlns="http://www.w3.org/2000/svg" width="105" height="26" viewBox="0 0 105 26" fill="none">
<g clip-path="url(#clip0_2262_11019)">
<path fill-rule="evenodd" clip-rule="evenodd" d="M32.8217 14.4098C33.5492 14.7325 34.2974 14.8097 35.5098 14.8284C38.6842 14.8845 39.8357 15.6083 39.8357 17.3586C39.8357 17.7971 39.7346 18.1969 39.553 18.5395C39.3702 18.8809 38.9864 19.2434 38.4404 19.6047C37.8958 19.9672 36.9453 20.1367 35.5903 20.1367C33.671 20.1367 32.2551 19.6994 31.3058 18.8049C31.2047 18.7102 31.1438 18.5769 31.123 18.4249C31.1438 18.1011 31.3058 17.9491 31.6092 17.9491C31.7701 17.9491 31.892 17.9865 31.9931 18.0824C32.6999 18.8248 33.9745 19.2434 35.5305 19.2434C37.6326 19.2434 38.8048 18.5582 38.8048 17.3399C38.8243 16.788 38.6427 16.4267 38.2589 16.2361C37.5107 15.8561 36.7028 15.7603 35.4087 15.7416C32.3367 15.6843 31.2851 15.0377 31.2851 13.4195C31.2851 11.7077 32.9228 10.6227 35.4501 10.6227C37.0062 10.6227 38.2796 11.0413 39.2289 11.8211C39.33 11.917 39.3909 12.0316 39.3909 12.2023C39.3714 12.4876 39.2081 12.6583 38.9254 12.6782C38.7646 12.6782 38.622 12.6396 38.5209 12.5437C37.7946 11.8784 36.7235 11.5358 35.511 11.5358C35.0248 11.5358 34.5801 11.5744 34.1962 11.6691C33.8124 11.7638 33.3883 11.9357 32.9631 12.1836C32.539 12.4291 32.3367 12.8302 32.3172 13.4195C32.2965 13.9152 32.4781 14.2379 32.8217 14.4098ZM62.5921 14.6939V19.4901C62.5921 19.8327 62.4313 20.0046 62.0877 20.0233C61.744 20.0046 61.5613 19.8327 61.5613 19.4901V14.7898C61.5613 12.6583 60.6108 11.5358 58.772 11.5358C56.9125 11.5358 55.7195 12.9249 55.7195 15.1511V19.4901C55.7195 19.8327 55.5587 20.0046 55.215 20.0233C54.8714 20.0046 54.6898 19.8327 54.6898 19.4901V14.7898C54.6898 12.6583 53.7394 11.5358 51.8994 11.5358C50.0203 11.5358 48.8481 12.9249 48.8481 15.1511V19.4901C48.8481 19.8327 48.6653 20.0046 48.3229 20.0233C47.9988 20.0046 47.8379 19.8327 47.8172 19.4901V11.2891C47.8379 10.9267 48 10.756 48.3229 10.7373C48.6653 10.756 48.8469 10.9278 48.8469 11.2891V12.2783H48.8883C49.5341 11.2131 50.6467 10.6227 52.0809 10.6227C53.6992 10.6227 54.791 11.3078 55.3357 12.5823H55.3771C56.0229 11.3651 57.1952 10.6227 58.9133 10.6227C61.359 10.6227 62.5934 12.0491 62.5934 14.6951L62.5921 14.6939ZM75.3614 15.3803C75.3614 13.0968 73.765 11.5358 71.3791 11.5358C69.0139 11.5358 67.3579 13.0968 67.3579 15.3803C67.3579 17.6638 69.0139 19.2235 71.3791 19.2235C73.765 19.2235 75.3614 17.6638 75.3614 15.3803ZM67.3567 11.288V12.601H67.3969C67.5992 12.2783 67.8417 12.0117 68.1049 11.765C68.3876 11.5171 68.7921 11.2693 69.3173 11.0225C69.8425 10.756 70.57 10.6227 71.5217 10.6227C72.9754 10.6227 74.1891 11.0985 75.0579 11.9357C76.3508 13.3049 76.3508 14.4086 76.4117 15.3803C76.4117 16.0841 76.3118 16.6547 75.967 17.5492C75.4418 18.8622 73.6639 20.2139 71.5217 20.1379C70.5712 20.1379 69.8425 20.0046 69.3161 19.7567C68.2657 19.2235 67.8015 18.7862 67.3969 18.1584H67.3567V23.0294C67.3567 23.3719 67.1958 23.5438 66.851 23.5625C66.5074 23.5438 66.327 23.3719 66.327 23.0294V11.288C66.327 10.9267 66.5074 10.756 66.851 10.7373C67.1958 10.756 67.3567 10.9267 67.3567 11.2891V11.288ZM80.5524 7.00741V19.4901C80.5524 19.8327 80.3708 20.0046 80.0272 20.0233C79.703 20.0046 79.541 19.8327 79.5203 19.4901V7.00741C79.541 6.66366 79.703 6.49295 80.0272 6.47424C80.3708 6.49295 80.5524 6.66366 80.5524 7.00741ZM84.6479 14.8284H92.5905C92.3285 12.8489 90.8114 11.5358 88.6289 11.5358C86.4063 11.5358 84.9099 12.8489 84.6479 14.8284ZM92.9548 15.7228H84.6272C84.7893 17.8158 86.3247 19.2247 88.7301 19.2247C90.1655 19.2247 91.2769 18.6728 92.0056 17.8158C92.1067 17.6825 92.2493 17.6252 92.3894 17.6252C92.7318 17.6439 92.9146 17.8158 92.9146 18.1396C92.9146 18.2531 92.8732 18.3676 92.7732 18.4635C91.8435 19.4901 90.4885 20.1379 88.7301 20.1379C87.174 20.1379 85.8811 19.662 84.9709 18.8248C83.6365 17.4545 83.5963 16.3507 83.5549 15.3803C83.5549 14.6764 83.6365 14.0859 84.0204 13.2289C84.587 11.8971 86.3844 10.528 88.6289 10.6227C91.5206 10.6227 93.5811 12.5075 93.5811 15.1511C93.5604 15.5136 93.3374 15.7041 92.9548 15.7228ZM104.284 19.1288C104.406 19.2434 104.466 19.3767 104.466 19.5474C104.446 19.8514 104.265 20.0046 103.921 20.0233C103.758 20.0233 103.617 19.9473 103.496 19.814L99.8372 15.9707L96.1389 19.8327C96.0377 19.966 95.8976 20.0233 95.7343 20.0233C95.4102 20.0046 95.2493 19.8327 95.2298 19.5287C95.2298 19.3954 95.2701 19.2808 95.3712 19.1861L99.1304 15.3417L95.5113 11.6317C95.3919 11.4984 95.3298 11.3651 95.3298 11.212C95.3505 10.908 95.5333 10.756 95.8757 10.7373C96.0377 10.7373 96.1791 10.8133 96.2997 10.9465L99.8579 14.715L103.437 10.9267C103.556 10.7934 103.699 10.7373 103.839 10.7373C104.163 10.756 104.326 10.9267 104.346 11.2318C104.346 11.3651 104.304 11.4797 104.204 11.5744L100.566 15.323L104.285 19.1288H104.284Z" fill="#888889"/>
<path fill-rule="evenodd" clip-rule="evenodd" d="M45.8134 8.6769C45.8134 7.55444 44.8471 6.64478 43.6554 6.64478C42.4612 6.64478 41.4961 7.55444 41.4961 8.6769C41.4961 9.63216 42.1968 10.4307 43.1399 10.6482V19.4911C43.1594 19.8325 43.3215 20.0044 43.6444 20.0231C43.988 20.0044 44.1708 19.8325 44.1708 19.4911V10.6482C45.1128 10.4307 45.8134 9.63216 45.8134 8.6769Z" fill="#888889"/>
<mask id="mask0_2262_11019" style="mask-type:alpha" maskUnits="userSpaceOnUse" x="0" y="0" width="27" height="26">
<path d="M0.208984 0.4646H26.3953V25.6725H0.208984V0.4646Z" fill="white"/>
</mask>
<g mask="url(#mask0_2262_11019)">
<path fill-rule="evenodd" clip-rule="evenodd" d="M11.9501 5.03378L15.0356 2.71804L8.1024 4.20698L11.9501 5.03378ZM14.35 5.55031L15.5152 3.27358L12.8985 5.23744L14.35 5.55031ZM16.198 5.94724V3.58731L15.1114 5.71411L16.1989 5.94724H16.198ZM18.4082 6.42304L16.9585 3.58991V6.11191L18.4082 6.42304ZM10.0281 6.47764L11.1905 5.60491L7.9335 4.90378L10.029 6.47678L10.0281 6.47764ZM23.2061 7.45524L17.6405 3.27444L19.3548 6.62671L23.2052 7.45438L23.2061 7.45524ZM8.54679 7.58958L9.4184 6.93438L7.4584 5.46364L8.54589 7.58958H8.54679ZM12.8073 8.56458L14.0122 6.21158L12.138 5.80858L10.6378 6.93524L12.8073 8.56458ZM20.4233 8.71364L23.0363 8.15291L19.7775 7.45091L20.4233 8.71364ZM6.77376 8.92078L7.93621 8.04804L6.77466 5.77478V8.92078H6.77376ZM16.9576 9.45811L19.6628 8.87744L18.8291 7.24811L16.9576 6.84511V9.45811ZM14.6544 9.95211L16.1971 9.62104V6.68218L14.7718 6.37451L13.417 9.02304L14.6544 9.95211ZM21.2452 10.3213L23.2052 8.84971L20.7611 9.37491L21.2452 10.3213ZM12.7296 10.3646L13.7069 10.1558L13.0792 9.68344L12.7296 10.3655V10.3646ZM10.2385 10.9002L11.783 10.5692L12.4695 9.22584L10.0281 7.39284L8.8846 8.25084L10.2385 10.9002ZM16.1971 11.11V10.356L15.4158 10.5224L16.1971 11.11ZM6.77285 11.6447L9.47892 11.064L8.27402 8.70844L6.77285 9.83511V11.6447ZM2.92601 11.8094L6.01324 9.49104L6.01414 5.77391L2.92601 11.8085V11.8094ZM10.925 12.2436L11.3603 11.3934L10.5763 11.5615L10.925 12.2436ZM22.2289 12.2436L23.6794 9.40958L21.584 10.9826L22.2289 12.2444V12.2436ZM3.39931 12.3692L6.01324 11.8076V10.4071L3.39931 12.3692ZM18.195 12.611L20.6356 10.7789L20.0015 9.53784L16.9576 10.1922V11.6811L18.195 12.611ZM16.9567 13.541L17.5854 13.0686L16.9567 12.5954V13.5401V13.541ZM6.01234 13.593V12.5417L3.56911 13.0669L6.01234 13.5921V13.593ZM9.81672 14.4094L10.5032 13.0686L9.81672 11.7253L6.77285 12.3788V13.755L9.81672 14.4094ZM20.9734 14.6971L21.807 13.0678L20.9743 11.441L18.8047 13.0686L20.9734 14.698V14.6971ZM11.3585 14.7413L10.925 13.8937L10.5763 14.5732L11.3585 14.7413ZM14.4656 15.4086L16.1962 14.1112V12.0252L14.4674 10.7269L12.3087 11.1897L11.3468 13.0686L12.306 14.945L14.4665 15.4095L14.4656 15.4086ZM6.01234 15.7267V14.3262L3.39931 13.7646L6.01234 15.7267ZM16.1953 15.7813V15.0273L15.414 15.614L16.1953 15.7813ZM24.3632 16.4166L24.3641 9.71984L22.6507 13.0686L24.3632 16.4166ZM13.0774 16.453L13.706 15.9798L12.7278 15.77L13.0774 16.453ZM19.9997 16.5994L20.6356 15.3584L18.195 13.5262L16.9558 14.4562V15.9451L19.9997 16.5994ZM23.6794 16.7294L22.2289 13.8937L21.583 15.1547L23.6794 16.7294ZM23.2052 17.2884L21.2452 15.816L20.7602 16.7624L23.2052 17.2884ZM8.27402 17.4271L9.47892 15.0724L6.77376 14.4908V16.2987L8.27402 17.4271ZM19.7766 18.6872L23.0372 17.987L20.4224 17.4254L19.7766 18.6872ZM10.0272 18.7436L12.4677 16.9106L11.7812 15.5672L10.2394 15.2353L8.88369 17.8847L10.0272 18.7427V18.7436ZM16.9558 19.293L18.8291 18.8909L19.6628 17.2616L16.9567 16.68V19.293H16.9558ZM14.77 19.7628L16.1953 19.4568L16.1962 16.5162L14.6553 16.1843L13.4161 17.1142L14.7691 19.7628H14.77ZM12.1371 20.3278L14.0086 19.9257L12.8064 17.5727L10.636 19.2012L12.1371 20.3278ZM6.01324 20.3608V16.6436L2.92601 14.3244L6.01143 20.3608H6.01324ZM6.77195 20.3608L7.93621 18.0884L6.77285 17.2148V20.3608H6.77195ZM7.4575 20.6719L9.4175 19.2003L8.54498 18.546L7.4575 20.6719ZM7.93169 21.2309L11.1887 20.5315L10.0272 19.6588L7.93169 21.2309ZM16.1953 22.5517V20.1909L15.1078 20.4249L16.1953 22.5517ZM16.9558 22.5517L18.4064 19.716L16.9558 20.0271V22.5517ZM15.5107 22.862L14.3473 20.5878L12.8967 20.8998L15.5098 22.862H15.5107ZM17.6396 22.862L23.2061 18.6846L19.3548 19.5123L17.6396 22.8628V22.862ZM15.0338 23.4201L11.9483 21.1026L8.1006 21.9286L15.0338 23.4201ZM16.5756 25.6734C16.0698 25.6734 15.5992 25.4602 15.2839 25.0884C15.0536 24.8163 14.9272 24.4783 14.9245 24.1308L7.87027 22.6141C7.76189 22.8204 7.61105 22.998 7.41956 23.1419C7.12421 23.3638 6.76924 23.4799 6.39169 23.4799C5.88589 23.4799 5.41531 23.2676 5.10008 22.8958C4.8255 22.5708 4.70085 22.1643 4.75053 21.7518C4.79931 21.3444 5.01247 20.9778 5.35208 20.7187L2.21518 14.5827C2.09776 14.607 1.97943 14.6182 1.85931 14.6182C1.3535 14.6182 0.883821 14.4059 0.569499 14.035C0.00136955 13.365 0.119692 12.3848 0.831434 11.851C1.12589 11.63 1.47995 11.513 1.8566 11.513C1.97763 11.513 2.09776 11.526 2.21608 11.5502L5.3566 5.41251C5.26085 5.34058 5.17595 5.26084 5.1046 5.17591C4.83002 4.85178 4.70537 4.44531 4.75595 4.03278C4.80472 3.62024 5.0215 3.25104 5.36653 2.99278C5.66189 2.77091 6.01685 2.65304 6.3944 2.65304C6.90021 2.65304 7.37079 2.86624 7.68602 3.23891C7.75827 3.32384 7.8215 3.41831 7.87569 3.52231L14.9299 2.00738C14.9326 1.53504 15.1557 1.09911 15.5486 0.804443C15.844 0.582576 16.1989 0.465576 16.5765 0.465576C17.0823 0.465576 17.5538 0.678776 17.8681 1.05058C18.2601 1.51338 18.3369 2.14778 18.0695 2.68164L23.7282 6.93178C24.0218 6.71511 24.3731 6.60071 24.7452 6.60071C25.251 6.60071 25.7216 6.81391 26.0369 7.18571C26.6041 7.85564 26.4867 8.83584 25.7749 9.36971C25.5834 9.51358 25.3649 9.61324 25.1255 9.66611L25.1246 16.4755C25.4841 16.5552 25.8056 16.7468 26.036 17.0189C26.3105 17.343 26.4343 17.7495 26.3855 18.1612C26.3358 18.5737 26.119 18.9438 25.774 19.2029C25.4787 19.4239 25.1237 19.5409 24.7461 19.5409C24.3758 19.5409 24.0145 19.4239 23.7255 19.2098L18.0677 23.4565C18.3929 24.1039 18.2023 24.8865 17.6034 25.3346C17.3081 25.5564 16.9531 25.6734 16.5756 25.6734Z" fill="#888889"/>
</g>
</g>
<defs>
<clipPath id="clip0_2262_11019">
<rect width="105" height="26" fill="white"/>
</clipPath>
</defs>
</svg>