<svg xmlns:xlink="http://www.w3.org/1999/xlink" width="24" height="24" viewBox="0 0 24 24" fill="none" xmlns="http://www.w3.org/2000/svg">
<path class="icon-medium-dark" d="M21.957 6.72917C21.9666 6.71356 21.9699 6.69493 21.9664 6.67697C21.9629 6.659 21.9528 6.64301 21.938 6.63217C21.934 6.62817 21.93 6.62417 21.926 6.62217L21.92 6.62017L15.887 3.60217C15.7954 3.55986 15.6959 3.53705 15.595 3.53517C15.4785 3.53443 15.3638 3.56309 15.2613 3.6185C15.1589 3.67392 15.0721 3.75429 15.009 3.85217L11.535 9.49817L15.894 16.5812L21.957 6.72917ZM20.893 20.2722C21.504 20.5782 22 20.3642 22 19.7942V8.48217L16.191 17.9212L20.893 20.2722ZM9.622 8.21217V14.6382L15.333 17.4932L9.622 8.21217ZM2.554 17.7702L7.744 20.3652C7.85942 20.4263 7.98743 20.4598 8.118 20.4632C8.441 20.4632 8.667 20.2132 8.667 19.7942V6.70017C8.66702 6.68809 8.66379 6.67624 8.65762 6.66585C8.65146 6.65547 8.64261 6.64694 8.632 6.64117L2.739 3.69617C2.64657 3.64669 2.54381 3.61963 2.439 3.61717C2.181 3.61717 2 3.81617 2 4.15117V16.8742C2 17.2152 2.25 17.6182 2.554 17.7702Z" fill="#8B86AF"></path>
</svg>