<svg xmlns:xlink="http://www.w3.org/1999/xlink" width="24" height="25" viewBox="0 0 24 25" fill="#8B86AF" xmlns="http://www.w3.org/2000/svg">
<path d="M19.0948 7.23031C17.8649 6.65487 16.5498 6.23667 15.175 5.99854C15.0061 6.30381 14.8088 6.71441 14.6728 7.04104C13.2113 6.82125 11.7632 6.82125 10.3286 7.04104C10.1926 6.71441 9.99086 6.30381 9.82049 5.99854C8.44414 6.23667 7.12756 6.65641 5.89765 7.23336C3.41693 10.9821 2.74444 14.6377 3.08068 18.2413C4.72603 19.47 6.32057 20.2165 7.88821 20.7049C8.27526 20.1722 8.62046 19.6059 8.91785 19.0091C8.35147 18.7939 7.809 18.5283 7.29643 18.22C7.43242 18.1192 7.56543 18.0139 7.69393 17.9055C10.8202 19.3678 14.217 19.3678 17.306 17.9055C17.436 18.0139 17.569 18.1192 17.7035 18.22C17.1894 18.5298 16.6455 18.7954 16.0791 19.0106C16.3765 19.6059 16.7202 20.1737 17.1087 20.7064C18.6779 20.218 20.2739 19.4716 21.9192 18.2413C22.3138 14.0638 21.2453 10.4417 19.0948 7.23031ZM9.34376 16.0251C8.40528 16.0251 7.63565 15.149 7.63565 14.0821C7.63565 13.0152 8.38884 12.1375 9.34376 12.1375C10.2987 12.1375 11.0683 13.0136 11.0519 14.0821C11.0534 15.149 10.2987 16.0251 9.34376 16.0251ZM15.6562 16.0251C14.7177 16.0251 13.9481 15.149 13.9481 14.0821C13.9481 13.0152 14.7012 12.1375 15.6562 12.1375C16.6111 12.1375 17.3807 13.0136 17.3643 14.0821C17.3643 15.149 16.6111 16.0251 15.6562 16.0251Z" fill="#8B86AF"></path>
</svg>