<svg xmlns:xlink="http://www.w3.org/1999/xlink" xmlns="http://www.w3.org/2000/svg" width="103" height="26" viewBox="0 0 103 26" fill="none">
<g clip-path="url(#clip0_2262_10979)">
<path d="M9.07858 0C5.46538 0 2.54127 2.88649 2.54127 6.45321V8.87182C1.27246 9.09856 0 9.40089 0 9.79319V22.4153C0 22.4153 0 22.7644 0.397416 22.93C1.83759 23.5058 7.5035 25.4853 8.80513 25.9388C8.97285 26 9.02025 26 9.064 26C9.12598 26 9.15515 26 9.32287 25.9388C10.6245 25.4853 16.305 23.5058 17.7452 22.93C18.1134 22.7788 18.128 22.4297 18.128 22.4297V9.79319C18.128 9.40089 16.8738 9.08416 15.6013 8.87182V6.45321C15.6195 2.88649 12.6772 0 9.07858 0ZM9.07858 3.08444C11.2079 3.08444 12.4949 4.35493 12.4949 6.45681V8.55869C10.1068 8.39313 8.06864 8.39313 5.66591 8.55869V6.45681C5.66591 4.35133 6.95295 3.08444 9.07858 3.08444ZM9.064 11.6539C12.0355 11.6539 14.5294 11.8807 14.5294 12.2874V20.1622C14.5294 20.2846 14.5148 20.299 14.4054 20.3422C14.2997 20.389 9.33745 22.1561 9.33745 22.1561C9.33745 22.1561 9.13692 22.2173 9.07858 22.2173C9.0166 22.2173 8.81972 22.1418 8.81972 22.1418C8.81972 22.1418 3.85749 20.3746 3.75175 20.3278C3.64602 20.281 3.62779 20.2666 3.62779 20.1478V12.273C3.59862 11.8663 6.09249 11.6539 9.064 11.6539Z" fill="#888889"/>
<path d="M25.1295 20.0616V10.0954H21.4365V6.52148H32.951V10.0954H29.2942V20.0616H25.1295Z" fill="#888889"/>
<path d="M42.2813 20.0615L40.3864 15.8038H38.8786V20.0615H34.7139V6.5213H42.0434C45.2607 6.5213 46.9862 8.62428 46.9862 11.1606C46.9862 13.4981 45.6154 14.7344 44.5148 15.2671L47.0023 20.0575H42.2813V20.0615ZM42.7731 11.1606C42.7731 10.4251 42.1119 10.1071 41.4185 10.1071H38.8786V12.2459H41.4185C42.1119 12.23 42.7731 11.9119 42.7731 11.1606Z" fill="#888889"/>
<path d="M49.1689 20.0615V6.5213H59.5828V10.0952H53.3175V11.4309H59.4295V15.0048H53.3175V16.4916H59.5828V20.0615H49.1689Z" fill="#888889"/>
<path d="M61.748 20.0781V16.8222L66.9811 10.1118H61.748V6.5379H72.4641V9.76195L67.2149 16.5082H72.6173V20.0821L61.748 20.0781Z" fill="#888889"/>
<path d="M73.6348 13.3158C73.6348 9.15755 76.9045 6.30322 81.1539 6.30322C85.3871 6.30322 88.673 9.14165 88.673 13.3158C88.673 17.4741 85.4033 20.3125 81.1539 20.3125C76.9045 20.3125 73.6348 17.4741 73.6348 13.3158ZM84.4397 13.3158C84.4397 11.4275 83.1375 9.9248 81.1377 9.9248C79.138 9.9248 77.8358 11.4275 77.8358 13.3158C77.8358 15.2041 79.138 16.7068 81.1377 16.7068C83.1536 16.7068 84.4397 15.2041 84.4397 13.3158Z" fill="#888889"/>
<path d="M97.9816 20.0781L96.0867 15.8205H94.5788V20.0781H90.4141V6.5379H97.7437C100.961 6.5379 102.687 8.64089 102.687 11.1772C102.687 13.5147 101.316 14.7511 100.215 15.2838L102.703 20.0741H97.9816V20.0781ZM98.4896 11.1613C98.4896 10.4258 97.8284 10.1078 97.1349 10.1078H94.5949V12.2466H97.1349C97.8324 12.2307 98.4896 11.9126 98.4896 11.1613Z" fill="#888889"/>
</g>
<defs>
<clipPath id="clip0_2262_10979">
<rect width="103" height="26" fill="white"/>
</clipPath>
</defs>
</svg>