<svg xmlns:xlink="http://www.w3.org/1999/xlink" xmlns="http://www.w3.org/2000/svg" width="103" height="26" viewBox="0 0 103 26" fill="none">
<g clip-path="url(#clip0_2284_8359)">
<path d="M9.07883 0C8.21974 -4.30624e-07 7.36908 0.166955 6.57547 0.491322C5.78186 0.815689 5.06087 1.29111 4.45371 1.8904C3.84655 2.48969 3.36513 3.2011 3.03697 3.98396C2.70881 4.76682 2.54035 5.60578 2.54122 6.45288V8.87169C1.27226 9.1 0 9.40063 0 9.79306V22.4152C0 22.4152 0 22.7646 0.397168 22.9296C1.83752 23.5064 7.50334 25.4857 8.80526 25.9391C8.97254 26 9.0195 26 9.064 26C9.1258 26 9.15464 26 9.32274 25.9391C10.6247 25.4857 16.3053 23.5056 17.7448 22.9296C18.1132 22.7784 18.128 22.4299 18.128 22.4299V9.79306C18.128 9.40063 16.8739 9.08375 15.6016 8.87169V6.45288C15.6197 2.886 12.6772 0 9.07883 0ZM9.07883 3.08425C11.208 3.08425 12.4951 4.355 12.4951 6.45613V8.55888C10.2218 8.39327 7.93916 8.39327 5.66582 8.55888V6.45694C5.66582 4.35094 6.95291 3.08506 9.07883 3.08506V3.08425ZM9.064 11.6537C12.0353 11.6537 14.5296 11.8812 14.5296 12.2874V20.1622C14.5296 20.2841 14.5148 20.2987 14.406 20.3417C14.2997 20.3889 9.33757 22.1561 9.33757 22.1561C9.33757 22.1561 9.13651 22.217 9.07883 22.217C9.01703 22.217 8.81927 22.1414 8.81927 22.1414C8.81927 22.1414 3.85714 20.3742 3.75167 20.3279C3.6462 20.2808 3.62807 20.267 3.62807 20.1476V12.2728C3.59841 11.8666 6.09183 11.6537 9.064 11.6537ZM25.1279 20.0614V10.0953H21.4355V6.52112H32.9493V10.0961H29.2932V20.0606H25.1287L25.1279 20.0614ZM42.2786 20.0614L40.3834 15.8039H38.8755V20.0614H34.711V6.52112H42.0405C45.2574 6.52112 46.9837 8.62469 46.9837 11.1605C46.9837 13.4981 45.6125 14.7347 44.5117 15.2677L47.0001 20.0574H42.2786V20.0614ZM42.7705 11.1605C42.7705 10.4252 42.1089 10.1075 41.4159 10.1075H38.8755V12.246H41.4159C42.1089 12.2297 42.7705 11.9129 42.7705 11.1605ZM49.1697 20.0614V6.52112H59.5834V10.0961H53.3186V11.4311H59.4302V15.0052H53.3186V16.4921H59.5834V20.0614H49.1697ZM61.7489 20.0785V16.822L66.9813 10.1116H61.7489V6.53819H72.4642V9.76219L67.2153 16.5084H72.6175V20.0826L61.7489 20.0785ZM73.6335 13.3161C73.6335 9.15769 76.9031 6.30337 81.1525 6.30337C85.3862 6.30337 88.6723 9.14144 88.6723 13.3153C88.6723 17.4736 85.4018 20.3125 81.1525 20.3125C76.9031 20.3125 73.6335 17.4736 73.6335 13.3161ZM84.4386 13.3161C84.4386 11.4278 83.1367 9.92469 81.1368 9.92469C79.137 9.92469 77.835 11.4278 77.835 13.3161C77.835 15.2043 79.137 16.7066 81.1368 16.7066C83.1523 16.7066 84.4386 15.2035 84.4386 13.3161ZM97.9802 20.0785L96.0858 15.821H94.5779V20.0785H90.4134V6.53819H97.7429C100.96 6.53819 102.685 8.64094 102.685 11.1776C102.685 13.5151 101.315 14.7509 100.214 15.2839L102.702 20.0744H97.9802V20.0785ZM98.4886 11.1613C98.4886 10.426 97.8277 10.1083 97.1339 10.1083H94.5944V12.2468H97.1339C97.831 12.2306 98.4886 11.9129 98.4886 11.1613Z" fill="white"/>
</g>
<defs>
<clipPath id="clip0_2284_8359">
<rect width="103" height="26" fill="white"/>
</clipPath>
</defs>
</svg>