<svg xmlns:xlink="http://www.w3.org/1999/xlink" xmlns="http://www.w3.org/2000/svg" width="75" height="24" viewBox="0 0 75 24" fill="none">
<path fill-rule="evenodd" clip-rule="evenodd" d="M19.1581 3.68359C19.149 3.39081 18.932 3.14108 18.6247 3.10232C17.2007 2.91718 15.7949 2.58994 14.4162 2.11199C13.0466 1.62974 11.5277 0.962344 9.89133 0.0839631C9.6834 -0.0279877 9.48899 -0.0279877 9.28106 0.0839631C7.65375 0.962344 6.14847 1.62974 4.76522 2.11199C3.38652 2.58994 1.98069 2.91718 0.565816 3.10232C0.258432 3.14108 0.0459748 3.39081 0.00981211 3.68359C-0.125799 9.21224 1.14442 13.7376 3.81144 17.2555C5.26248 19.1715 7.08416 20.7259 9.27657 21.9144C9.44831 22.0349 9.71052 22.022 9.90942 21.9144C12.0882 20.7087 13.9054 19.163 15.3519 17.2555C18.028 13.7376 19.2892 9.21224 19.1581 3.68359ZM11.1569 6.91766H6.75961C6.60138 6.91766 6.44769 6.99088 6.35727 7.11576L4.89267 9.08351C4.86205 9.12361 4.84511 9.16166 4.84075 9.19562C4.76618 9.39285 4.8371 9.62161 5.03076 9.74223L8.22222 11.7873V16.8985C8.22222 17.3032 8.72397 17.5185 9.04038 17.2516L10.5999 15.9469C10.7084 15.8608 10.7672 15.7316 10.7672 15.5895L10.7491 10.6336L10.749 10.6315C10.7483 10.473 10.6626 10.3275 10.523 10.2417L9.06097 9.34184H12.2428C12.401 9.34184 12.5456 9.27295 12.6406 9.14807L14.3086 6.95642C14.3166 6.94661 14.3171 6.93928 14.3125 6.93381C14.3734 6.80697 14.3731 6.66001 14.3068 6.53018L13.466 5.58294C13.2807 5.37193 12.9462 5.35903 12.7428 5.5528L11.1569 6.91766Z" fill="#888889"/>
<path d="M23.5433 15.8396V10.8271H21.7354V9.2998H27.3688V10.8271H25.5607V15.8396H23.5433Z" fill="#888889"/>
<path d="M30.7576 15.8396H28.7402V9.2998H31.7901C32.6972 9.2998 33.3888 9.49466 33.8646 9.88446C34.3309 10.2682 34.564 10.8135 34.564 11.5205C34.564 11.9163 34.4689 12.279 34.2785 12.6083C34.0787 12.9497 33.8043 13.2005 33.4554 13.3606L34.7591 15.8397H32.5038L31.4189 13.6461H30.7576V15.8396ZM30.7576 12.3771H31.5903C31.8725 12.3771 32.0962 12.3016 32.2612 12.1505C32.4229 11.9994 32.5038 11.8 32.5038 11.5522C32.5038 11.3075 32.4197 11.1081 32.2516 10.954C32.0834 10.7969 31.8646 10.7183 31.595 10.7183H30.7575V12.3771H30.7576Z" fill="#888889"/>
<path d="M38.078 13.2971C38.078 13.6415 38.1652 13.9044 38.3397 14.0857C38.511 14.27 38.76 14.3621 39.0867 14.3621C39.4134 14.3621 39.6622 14.27 39.8336 14.0857C40.0079 13.9044 40.0953 13.6415 40.0953 13.2971V9.2998H42.1128V13.5101C42.1128 14.2534 41.835 14.8471 41.2802 15.2913C40.7283 15.7324 39.9972 15.9529 39.0867 15.9529C38.1762 15.9529 37.4452 15.7324 36.8932 15.2913C36.3381 14.8471 36.0605 14.2534 36.0605 13.5101V9.2998H38.0779L38.078 13.2971Z" fill="#888889"/>
<path d="M45.4635 13.9135C45.492 14.0948 45.6113 14.2444 45.8204 14.3622C46.0232 14.474 46.2629 14.5299 46.5391 14.5299C46.8372 14.5299 47.0748 14.4785 47.2525 14.3758C47.4272 14.2731 47.5141 14.1416 47.5141 13.9815C47.5141 13.8304 47.4413 13.7141 47.2955 13.6325C47.156 13.554 46.8989 13.4829 46.5246 13.4195L45.6158 13.2654C44.9878 13.1627 44.5054 12.9436 44.1697 12.6083C43.8364 12.2789 43.6699 11.8574 43.6699 11.3438C43.6699 10.6911 43.9361 10.1654 44.469 9.76663C44.9894 9.37992 45.6651 9.18652 46.496 9.18652C47.4003 9.18652 48.1041 9.37237 48.6088 9.74399C49.1002 10.1096 49.3491 10.6127 49.3557 11.2532H47.5141C47.5079 11.0538 47.411 10.8952 47.2239 10.7773C47.0434 10.6625 46.8132 10.6051 46.5341 10.6051C46.2708 10.6051 46.0613 10.6535 45.9061 10.7501C45.7508 10.8469 45.673 10.9768 45.673 11.1399C45.673 11.294 45.7475 11.4164 45.8965 11.507C46.0394 11.5976 46.2754 11.6701 46.6053 11.7245L47.5477 11.8786C48.2138 11.9904 48.7069 12.2004 49.0274 12.5086C49.3445 12.8138 49.5031 13.2322 49.5031 13.764C49.5031 14.4317 49.2319 14.9635 48.6895 15.3593C48.1438 15.7551 47.4143 15.953 46.501 15.953C45.5744 15.953 44.8544 15.7762 44.3406 15.4227C43.8206 15.0662 43.559 14.5632 43.5557 13.9135H45.4635Z" fill="#888889"/>
<path d="M52.4926 15.8396V10.8271H50.6846V9.2998H56.3182V10.8271H54.5101V15.8396H52.4926Z" fill="#888889"/>
<path d="M62.5321 15.8396H57.6885V9.2998H62.5321V10.8271H59.7056V11.8831H62.3561V13.2609H59.7056V14.3123H62.5321V15.8396Z" fill="#888889"/>
<path d="M68.9999 15.8396H64.1562V9.2998H68.9999V10.8271H66.1734V11.8831H68.8235V13.2609H66.1734V14.3123H68.9999V15.8396Z" fill="#888889"/>
</svg>