<svg xmlns:xlink="http://www.w3.org/1999/xlink" xmlns="http://www.w3.org/2000/svg" width="77" height="26" viewBox="0 0 77 26" fill="none">
<g clip-path="url(#clip0_2262_11072)">
<path d="M21.9437 4.35125C21.9333 4.00519 21.6848 3.71003 21.3327 3.66423C19.7017 3.4454 18.0914 3.05863 16.5121 2.49374C14.9432 1.92377 13.2035 1.13496 11.3291 0.0967952C11.0909 -0.0355203 10.8682 -0.0355203 10.6301 0.0967952C8.76603 1.13496 7.0418 1.92377 5.45738 2.49374C3.87813 3.05863 2.26781 3.4454 0.64714 3.66423C0.295045 3.71003 0.0516856 4.00519 0.0102627 4.35125C-0.145073 10.8856 1.30991 16.2342 4.36485 20.392C6.02694 22.6566 8.11362 24.4937 10.6249 25.8983C10.8216 26.0408 11.122 26.0255 11.3498 25.8983C13.8455 24.4734 15.927 22.6464 17.5839 20.392C20.6492 16.2342 22.0938 10.8856 21.9437 4.35125Z" fill="#403352"/>
<mask id="mask0_2262_11072" style="mask-type:alpha" maskUnits="userSpaceOnUse" x="-1" y="-1" width="23" height="27">
<path d="M21.9437 4.35113C21.9333 4.00507 21.6848 3.7099 21.3327 3.6641C19.7017 3.44527 18.0914 3.05851 16.5121 2.49362C14.9432 1.92365 13.2035 1.13484 11.3291 0.0966732C11.0909 -0.0356424 10.8682 -0.0356424 10.6301 0.0966732C8.76603 1.13484 7.0418 1.92365 5.45738 2.49362C3.87813 3.05851 2.26781 3.44527 0.64714 3.6641C0.295045 3.7099 0.0516856 4.00507 0.0102627 4.35113C-0.145073 10.8855 1.30991 16.2341 4.36485 20.3918C6.02694 22.6565 8.11362 24.4936 10.6249 25.8982C10.8216 26.0407 11.122 26.0254 11.3498 25.8982C13.8455 24.4733 15.927 22.6463 17.5839 20.3918C20.6492 16.2341 22.0938 10.8855 21.9437 4.35113Z" fill="#403352"/>
</mask>
<g mask="url(#mask0_2262_11072)">
<path opacity="0.2" d="M35.51 17.3181L21.0275 31.5522L9.76562 20.4835C10.0297 19.201 10.3197 10.9975 10.3197 10.9975C10.3197 10.9975 14.0477 7.40459 15.1195 6.38678C21.9181 10.0305 28.7166 13.6692 35.51 17.3181Z" fill="url(#paint0_linear_2262_11072)"/>
</g>
<path d="M12.4212 10.6667L10.0342 10.6107L14.5959 6.55979C14.8289 6.33078 15.212 6.34605 15.4243 6.59541L16.3874 7.71501C16.4806 7.9033 16.4599 8.12213 16.3356 8.29007L14.8392 10.285C14.2748 11.0382 13.3687 10.6819 12.4212 10.6667Z" fill="#C23A76"/>
<path d="M12.1415 18.8448L10.3552 20.3867C9.99271 20.7023 9.41797 20.4478 9.41797 19.9694V10.5038L12.0431 12.0967C12.2088 12.1984 12.3072 12.3766 12.3124 12.5649L12.3331 18.4224C12.3331 18.5903 12.2658 18.743 12.1415 18.8448Z" fill="#F24B93"/>
<path d="M12.3127 15.8423V12.5649C12.3127 12.3766 12.2143 12.2036 12.0538 12.1018L7.00535 8.89569L5.62286 10.7227C5.43128 10.9771 5.49342 11.3384 5.76267 11.5115L12.3127 15.8423Z" fill="#C23A76"/>
<path d="M14.021 11.0382H5.76232C5.55003 11.0382 5.47754 10.9008 5.60181 10.7328L7.27944 8.40713C7.38299 8.25955 7.55904 8.17303 7.74027 8.17303H16.2682C16.3252 8.17303 16.4235 8.17303 16.3873 8.21884L14.4767 10.8092C14.3679 10.9567 14.2022 11.0382 14.021 11.0382Z" fill="#F24B93"/>
<path d="M26.2735 18.7196V12.7957H24.2559V10.9907H30.5424V12.7957H28.5247V18.7196H26.2735Z" fill="#F24B93"/>
<path d="M34.3235 18.7196H32.0723V10.9907H35.4757C36.488 10.9907 37.2598 11.221 37.7907 11.6817C38.3111 12.1352 38.5712 12.7797 38.5712 13.6152C38.5712 14.083 38.4651 14.5115 38.2527 14.9007C38.0297 15.3042 37.7234 15.6006 37.3341 15.7899L38.7889 18.7197H36.2721L35.0615 16.1272H34.3235V18.7196ZM34.3235 14.6275H35.2527C35.5677 14.6275 35.8173 14.5383 36.0014 14.3597C36.1819 14.1812 36.2721 13.9455 36.2721 13.6527C36.2721 13.3635 36.1783 13.1278 35.9907 12.9457C35.803 12.76 35.5588 12.6671 35.258 12.6671H34.3235V14.6275H34.3235Z" fill="#F24B93"/>
<path d="M42.4936 15.7148C42.4936 16.1219 42.5909 16.4325 42.7856 16.6468C42.9767 16.8646 43.2546 16.9735 43.6192 16.9735C43.9838 16.9735 44.2614 16.8646 44.4527 16.6468C44.6472 16.4325 44.7447 16.1219 44.7447 15.7148V10.9907H46.9961V15.9665C46.9961 16.845 46.6861 17.5467 46.067 18.0715C45.4511 18.5929 44.6352 18.8535 43.6191 18.8535C42.6031 18.8535 41.7874 18.5929 41.1714 18.0715C40.5519 17.5467 40.2422 16.845 40.2422 15.9665V10.9907H42.4934L42.4936 15.7148Z" fill="#F24B93"/>
<path d="M50.7345 16.4433C50.7663 16.6575 50.8994 16.8342 51.1327 16.9735C51.3591 17.1056 51.6266 17.1717 51.9348 17.1717C52.2674 17.1717 52.5326 17.111 52.7309 16.9896C52.9258 16.8682 53.0229 16.7129 53.0229 16.5236C53.0229 16.345 52.9415 16.2076 52.7789 16.1112C52.6232 16.0184 52.3363 15.9344 51.9186 15.8594L50.9045 15.6773C50.2036 15.5559 49.6653 15.297 49.2906 14.9007C48.9187 14.5115 48.733 14.0134 48.733 13.4063C48.733 12.635 49.0301 12.0137 49.6247 11.5424C50.2054 11.0854 50.9595 10.8568 51.8867 10.8568C52.8958 10.8568 53.6812 11.0765 54.2444 11.5156C54.7929 11.9477 55.0705 12.5423 55.0779 13.2993H53.0229C53.0159 13.0636 52.9078 12.8761 52.699 12.7368C52.4975 12.6012 52.2407 12.5333 51.9292 12.5333C51.6354 12.5333 51.4016 12.5905 51.2284 12.7047C51.0551 12.819 50.9682 12.9726 50.9682 13.1653C50.9682 13.3474 51.0514 13.4921 51.2177 13.5992C51.3771 13.7063 51.6405 13.792 52.0087 13.8563L53.0603 14.0384C53.8037 14.1705 54.3539 14.4187 54.7115 14.7829C55.0654 15.1435 55.2424 15.6381 55.2424 16.2665C55.2424 17.0557 54.9398 17.6841 54.3345 18.1519C53.7256 18.6197 52.9115 18.8535 51.8923 18.8535C50.8583 18.8535 50.0548 18.6446 49.4815 18.2269C48.9012 17.8055 48.6092 17.211 48.6055 16.4433H50.7345Z" fill="#F24B93"/>
<path d="M58.5782 18.7196V12.7957H56.5605V10.9907H62.8473V12.7957H60.8296V18.7196H58.5782Z" fill="#F24B93"/>
<path d="M69.7821 18.7196H64.377V10.9907H69.7821V12.7957H66.6279V14.0437H69.5858V15.672H66.6279V16.9146H69.7821V18.7196Z" fill="#F24B93"/>
<path d="M76.9989 18.7196H71.5938V10.9907H76.9989V12.7957H73.8447V14.0437H76.8021V15.672H73.8447V16.9146H76.9989V18.7196Z" fill="#F24B93"/>
</g>
<defs>
<linearGradient id="paint0_linear_2262_11072" x1="7.07375" y1="22.0812" x2="31.9791" y2="29.3748" gradientUnits="userSpaceOnUse">
<stop/>
<stop offset="1" stop-opacity="0.7"/>
</linearGradient>
<clipPath id="clip0_2262_11072">
<rect width="77" height="26" fill="white"/>
</clipPath>
</defs>
</svg>