<svg xmlns:xlink="http://www.w3.org/1999/xlink" xmlns="http://www.w3.org/2000/svg" width="77" height="26" viewBox="1 1 77 26" fill="none">
<path fill-rule="evenodd" clip-rule="evenodd" d="M22.3323 5.25122C22.3222 4.90521 22.0801 4.61007 21.7371 4.56427C20.1481 4.34546 18.5792 3.95872 17.0407 3.39388C15.5123 2.82395 13.8173 2.0352 11.9912 0.997117C11.7592 0.864812 11.5422 0.864812 11.3102 0.997117C9.49422 2.0352 7.81443 2.82395 6.27081 3.39388C4.73227 3.95872 3.16345 4.34546 1.58454 4.56427C1.24152 4.61007 1.00443 4.90521 0.964075 5.25122C0.812741 11.7851 2.23023 17.1333 5.20645 21.2907C6.82572 23.5552 8.8586 25.3922 11.3052 26.7967C11.4968 26.9391 11.7895 26.9239 12.0114 26.7967C14.4428 25.3718 16.4707 23.545 18.0849 21.2907C21.0712 17.1333 22.4786 11.7851 22.3323 5.25122ZM13.4048 9.07331H8.49807C8.3215 9.07331 8.14999 9.15984 8.04909 9.30742L6.41468 11.6329C6.38066 11.6801 6.36178 11.7249 6.35681 11.7649C6.27333 11.9981 6.35244 12.2687 6.56869 12.4114L10.1309 14.8288V20.8688C10.1309 21.3471 10.6908 21.6015 11.0439 21.2861L12.7842 19.7442C12.9053 19.6424 12.9709 19.4898 12.9709 19.3218L12.9507 13.4648C12.9504 13.4548 12.9499 13.4449 12.9491 13.4351C12.9396 13.2584 12.8458 13.0981 12.6977 13.0017L11.0662 11.9382H14.617C14.7935 11.9382 14.9549 11.8568 15.0609 11.7093L16.9223 9.11911C16.9313 9.10737 16.9318 9.09864 16.9265 9.09215C16.9943 8.94229 16.9939 8.76869 16.92 8.61532L15.9817 7.49584C15.7749 7.24648 15.4016 7.23123 15.1746 7.46023L13.4048 9.07331Z" fill="#888889"/>
<path d="M27.2266 19.6175V13.6936H25.209V11.8886H31.4955V13.6936H29.4779V19.6175H27.2266Z" fill="#888889"/>
<path d="M35.2766 19.6175H33.0254V11.8886H36.4289C37.4412 11.8886 38.2129 12.1189 38.7438 12.5796C39.2642 13.0331 39.5244 13.6776 39.5244 14.5131C39.5244 14.9809 39.4182 15.4094 39.2058 15.7986C38.9828 16.2021 38.6766 16.4985 38.2872 16.6878L39.7421 19.6176H37.2253L36.0147 17.0251H35.2766V19.6175ZM35.2766 15.5254H36.2058C36.5209 15.5254 36.7704 15.4362 36.9545 15.2576C37.135 15.0791 37.2253 14.8434 37.2253 14.5506C37.2253 14.2614 37.1314 14.0257 36.9438 13.8436C36.7562 13.6579 36.5119 13.565 36.2111 13.565H35.2766V15.5254H35.2766Z" fill="#888889"/>
<path d="M43.4467 16.6127C43.4467 17.0198 43.544 17.3304 43.7387 17.5446C43.9299 17.7625 44.2077 17.8714 44.5723 17.8714C44.9369 17.8714 45.2146 17.7625 45.4058 17.5446C45.6004 17.3304 45.6978 17.0198 45.6978 16.6127V11.8886H47.9493V16.8644C47.9493 17.7429 47.6393 18.4445 47.0201 18.9694C46.4043 19.4908 45.5883 19.7514 44.5723 19.7514C43.5562 19.7514 42.7405 19.4908 42.1245 18.9694C41.505 18.4445 41.1953 17.7429 41.1953 16.8644V11.8886H43.4466L43.4467 16.6127Z" fill="#888889"/>
<path d="M51.6876 17.3411C51.7195 17.5553 51.8525 17.7321 52.0858 17.8713C52.3122 18.0035 52.5798 18.0695 52.8879 18.0695C53.2206 18.0695 53.4858 18.0088 53.684 17.8874C53.879 17.766 53.976 17.6107 53.976 17.4214C53.976 17.2429 53.8947 17.1054 53.732 17.009C53.5763 16.9162 53.2894 16.8322 52.8717 16.7572L51.8576 16.5751C51.1567 16.4537 50.6185 16.1948 50.2438 15.7985C49.8718 15.4093 49.6861 14.9112 49.6861 14.3041C49.6861 13.5328 49.9832 12.9115 50.5778 12.4402C51.1586 11.9832 51.9126 11.7546 52.8399 11.7546C53.8489 11.7546 54.6344 11.9743 55.1976 12.4135C55.746 12.8456 56.0237 13.4401 56.031 14.1971H53.976C53.969 13.9614 53.8609 13.7739 53.6521 13.6347C53.4507 13.499 53.1938 13.4311 52.8824 13.4311C52.5885 13.4311 52.3547 13.4883 52.1815 13.6025C52.0082 13.7169 51.9214 13.8704 51.9214 14.0632C51.9214 14.2453 52.0045 14.3899 52.1709 14.497C52.3303 14.6041 52.5936 14.6898 52.9618 14.7541L54.0134 14.9362C54.7568 15.0683 55.3071 15.3165 55.6647 15.6807C56.0186 16.0414 56.1955 16.5359 56.1955 17.1644C56.1955 17.9535 55.8929 18.582 55.2877 19.0497C54.6787 19.5175 53.8646 19.7514 52.8454 19.7514C51.8114 19.7514 51.008 19.5424 50.4346 19.1247C49.8543 18.7033 49.5623 18.1089 49.5586 17.3411H51.6876Z" fill="#888889"/>
<path d="M59.5313 19.6175V13.6936H57.5137V11.8886H63.8004V13.6936H61.7827V19.6175H59.5313Z" fill="#888889"/>
<path d="M70.7353 19.6175H65.3301V11.8886H70.7353V13.6936H67.581V14.9416H70.5389V16.5699H67.581V17.8125H70.7353V19.6175Z" fill="#888889"/>
<path d="M77.9521 19.6175H72.5469V11.8886H77.9521V13.6936H74.7978V14.9416H77.7552V16.5699H74.7978V17.8125H77.9521V19.6175Z" fill="#888889"/>
</svg>