<svg xmlns:xlink="http://www.w3.org/1999/xlink" xmlns="http://www.w3.org/2000/svg" width="59" height="24" viewBox="0 0 59 24" fill="none">
<g clip-path="url(#clip0)">
<path d="M30.0238 8.13244H27.3645L26.8588 9.64851H25.2461L27.9864 2.29052H29.3919L32.1474 9.64851H30.5345L30.0238 8.13244ZM27.774 6.90443H29.6145L28.6892 4.15022L27.774 6.90443ZM34.3972 2.83632V4.18056H35.3325V5.2519H34.3972V7.98083C34.3972 8.18299 34.436 8.32785 34.5137 8.41545C34.5911 8.50304 34.7392 8.54683 34.9584 8.54683C35.1202 8.54683 35.2635 8.53506 35.3882 8.51147V9.61819C35.1017 9.70579 34.8067 9.74959 34.5033 9.74959C33.4787 9.74959 32.9563 9.23245 32.936 8.19814V5.2519H32.1373V4.18056H32.936V2.83632H34.3972ZM35.7675 6.864C35.7675 6.32159 35.8717 5.83814 36.0808 5.41362C36.2898 4.98914 36.5898 4.66065 36.9808 4.42817C37.3751 4.19571 37.8318 4.0795 38.351 4.0795C39.0892 4.0795 39.6909 4.30521 40.1559 4.75667C40.6243 5.20812 40.8857 5.82128 40.9397 6.59616L40.9496 6.97013C40.9496 7.80902 40.7154 8.48282 40.2468 8.99157C39.7783 9.49692 39.1498 9.74959 38.361 9.74959C37.5723 9.74959 36.942 9.49692 36.4702 8.99157C36.0017 8.4862 35.7675 7.79892 35.7675 6.9297V6.864ZM37.2285 6.97013C37.2285 7.48896 37.3263 7.8865 37.5217 8.16276C37.7173 8.43565 37.997 8.57211 38.361 8.57211C38.715 8.57211 38.9913 8.43734 39.1903 8.16782C39.389 7.89494 39.4886 7.46033 39.4886 6.864C39.4886 6.35528 39.389 5.9611 39.1903 5.68146C38.9913 5.40184 38.7116 5.26202 38.351 5.26202C37.9937 5.26202 37.7173 5.40184 37.5217 5.68146C37.3263 5.95772 37.2285 6.38729 37.2285 6.97013ZM43.2199 4.18056L43.2654 4.79204C43.6528 4.317 44.177 4.0795 44.8376 4.0795C45.542 4.0795 46.0258 4.35743 46.2887 4.91331C46.6728 4.35743 47.2207 4.0795 47.9319 4.0795C48.5252 4.0795 48.9667 4.25299 49.2566 4.6C49.5463 4.94365 49.6914 5.46248 49.6914 6.15649V9.64851H48.2252V6.16155C48.2252 5.85162 48.1644 5.62587 48.0431 5.48438C47.9218 5.3395 47.7077 5.26707 47.4011 5.26707C46.9629 5.26707 46.6595 5.47596 46.491 5.89371L46.496 9.64851H45.0349V6.16662C45.0349 5.84991 44.9724 5.62082 44.8477 5.47932C44.723 5.33783 44.5108 5.26707 44.2108 5.26707C43.7962 5.26707 43.4962 5.43889 43.3108 5.78254V9.64851H41.8496V4.18056H43.2199ZM52.3609 9.64851H50.8946V4.18056H52.3609V9.64851ZM50.8087 2.76555C50.8087 2.54657 50.8811 2.36633 51.026 2.22482C51.1744 2.08332 51.375 2.01257 51.6277 2.01257C51.8773 2.01257 52.076 2.08332 52.2244 2.22482C52.3727 2.36633 52.4469 2.54657 52.4469 2.76555C52.4469 2.98791 52.371 3.16984 52.2193 3.31133C52.071 3.45284 51.8737 3.52358 51.6277 3.52358C51.3817 3.52358 51.1828 3.45284 51.0313 3.31133C50.8828 3.16984 50.8087 2.98791 50.8087 2.76555ZM55.8444 8.57211C56.114 8.57211 56.333 8.49799 56.5016 8.34975C56.6702 8.20152 56.7577 8.00442 56.7645 7.75847H58.1347C58.1314 8.12909 58.0301 8.46936 57.8314 8.7793C57.6326 9.0859 57.3594 9.32507 57.0122 9.49692C56.6685 9.66537 56.2875 9.74959 55.8697 9.74959C55.0877 9.74959 54.4708 9.50196 54.0193 9.00672C53.5674 8.5081 53.3417 7.82082 53.3417 6.94485V6.84884C53.3417 6.00659 53.5659 5.33445 54.014 4.83246C54.4624 4.33049 55.0775 4.0795 55.8596 4.0795C56.5438 4.0795 57.0915 4.27489 57.5027 4.6657C57.9174 5.05313 58.128 5.57029 58.1347 6.21715H56.7645C56.7577 5.93414 56.6702 5.70505 56.5016 5.52987C56.333 5.35131 56.1107 5.26202 55.8343 5.26202C55.4938 5.26202 55.236 5.38667 55.0607 5.63599C54.8889 5.88194 54.8029 6.28285 54.8029 6.83873V6.99034C54.8029 7.55297 54.8889 7.95724 55.0607 8.2032C55.2326 8.44913 55.4938 8.57211 55.8444 8.57211ZM33.6793 19.5317L34.6702 14.2962H36.1818L34.5489 21.6542H33.0219L31.8238 16.732L30.6255 21.6542H29.0987L27.4655 14.2962H28.9772L29.9733 19.5216L31.1867 14.2962H32.471L33.6793 19.5317ZM39.908 21.6542C39.8407 21.5228 39.7918 21.3595 39.7616 21.1641C39.4076 21.5582 38.9475 21.7553 38.3814 21.7553C37.8453 21.7553 37.4004 21.6002 37.0466 21.2903C36.696 20.9803 36.5207 20.5896 36.5207 20.1178C36.5207 19.5385 36.7346 19.0937 37.1628 18.7838C37.5943 18.4738 38.216 18.3172 39.0285 18.3137H39.7009V18.0005C39.7009 17.7478 39.6352 17.5456 39.5038 17.394C39.3755 17.2424 39.1717 17.1665 38.8918 17.1665C38.6458 17.1665 38.4521 17.2256 38.3105 17.3435C38.1723 17.4614 38.1032 17.6232 38.1032 17.8286H36.642C36.642 17.5119 36.7398 17.2188 36.9352 16.9493C37.1308 16.6798 37.4072 16.4693 37.7645 16.3176C38.1217 16.1626 38.5228 16.0852 38.9677 16.0852C39.642 16.0852 40.1762 16.2552 40.5705 16.5955C40.9682 16.9325 41.1671 17.4075 41.1671 18.0206V20.3908C41.1705 20.9095 41.2428 21.3021 41.3846 21.5681V21.6542H39.908ZM38.6998 20.6383C38.9154 20.6383 39.1143 20.5913 39.2964 20.497C39.4783 20.3993 39.6133 20.2695 39.7009 20.1077V19.1678H39.1548C38.4234 19.1678 38.0342 19.4205 37.9869 19.9258L37.9818 20.0117C37.9818 20.1938 38.0458 20.3436 38.174 20.4615C38.3021 20.5795 38.4772 20.6383 38.6998 20.6383ZM43.8315 21.6542H42.3652V13.8919H43.8315V21.6542ZM46.5819 21.6542H45.1157V13.8919H46.5819V21.6542ZM50.3081 21.7553C49.506 21.7553 48.852 21.5093 48.3465 21.0175C47.8442 20.5255 47.5931 19.8703 47.5931 19.0515V18.9101C47.5931 18.3609 47.6992 17.8707 47.9117 17.4395C48.1239 17.0049 48.4239 16.6714 48.8117 16.4389C49.2026 16.2031 49.6475 16.0852 50.1463 16.0852C50.8946 16.0852 51.4828 16.321 51.9109 16.7927C52.3423 17.2643 52.5579 17.9331 52.5579 18.799V19.3952H49.0745C49.1216 19.7524 49.2632 20.0387 49.4992 20.2543C49.7385 20.47 50.0402 20.5778 50.4043 20.5778C50.9672 20.5778 51.407 20.374 51.7239 19.9663L52.4417 20.7698C52.2227 21.0797 51.926 21.3223 51.552 21.4975C51.1777 21.6694 50.7632 21.7553 50.3081 21.7553ZM50.1412 17.2677C49.8515 17.2677 49.6155 17.3654 49.4334 17.5608C49.2547 17.7562 49.1402 18.0358 49.0897 18.3997H51.1222V18.2835C51.1155 17.96 51.0277 17.7107 50.8594 17.5355C50.6908 17.357 50.4513 17.2677 50.1412 17.2677ZM55.1417 14.842V16.1862H56.0769V17.2576H55.1417V19.9866C55.1417 20.1887 55.1803 20.3335 55.2579 20.421C55.3354 20.5086 55.4839 20.5525 55.7029 20.5525C55.8645 20.5525 56.0079 20.5406 56.1326 20.517V21.6238C55.8461 21.7114 55.5512 21.7553 55.2478 21.7553C54.2231 21.7553 53.7007 21.2381 53.6805 20.2039V17.2576H52.8815V16.1862H53.6805V14.842H55.1417Z" fill="#888889"/>
<path fill-rule="evenodd" clip-rule="evenodd" d="M0 24L7.39714 3.74332C8.33578 1.37824 10.0857 0.0394982 12.4122 0.00086031V0C12.4295 0 12.4468 7.15234e-05 12.4641 0.000214433C12.4814 7.15234e-05 12.4987 0 12.5161 0V0.00086031C14.8425 0.0394982 16.5924 1.37824 17.5311 3.74332L24.9281 24L20.3477 22.4077L14.0288 5.10364C13.6441 4.14652 13.2002 3.80199 12.4641 3.78679C11.7281 3.80199 11.2841 4.14652 10.8995 5.10364L4.58057 22.4077L0 24ZM15.6827 16.2867C15.6827 18.0561 14.2611 19.4904 12.5075 19.4904C10.7539 19.4904 9.33231 18.0561 9.33231 16.2867C9.33231 14.5173 10.7539 13.0829 12.5075 13.0829C14.2611 13.0829 15.6827 14.5173 15.6827 16.2867Z" fill="#888889"/>
<mask id="mask0" style="mask-type:alpha" maskUnits="userSpaceOnUse" x="0" y="0" width="25" height="24">
<path fill-rule="evenodd" clip-rule="evenodd" d="M0 24L7.39714 3.74332C8.33578 1.37824 10.0857 0.0394982 12.4122 0.00086031V0C12.4295 0 12.4468 7.15234e-05 12.4641 0.000214433C12.4814 7.15234e-05 12.4987 0 12.5161 0V0.00086031C14.8425 0.0394982 16.5924 1.37824 17.5311 3.74332L24.9281 24L20.3477 22.4077L14.0288 5.10364C13.6441 4.14652 13.2002 3.80199 12.4641 3.78679C11.7281 3.80199 11.2841 4.14652 10.8995 5.10364L4.58057 22.4077L0 24ZM15.6827 16.2867C15.6827 18.0561 14.2611 19.4904 12.5075 19.4904C10.7539 19.4904 9.33231 18.0561 9.33231 16.2867C9.33231 14.5173 10.7539 13.0829 12.5075 13.0829C14.2611 13.0829 15.6827 14.5173 15.6827 16.2867Z" fill="white"/>
</mask>
<g mask="url(#mask0)">
</g>
</g>
<defs>
<clipPath id="clip0">
<rect width="58.5" height="24" fill="white"/>
</clipPath>
</defs>
</svg>