<svg xmlns:xlink="http://www.w3.org/1999/xlink" xmlns="http://www.w3.org/2000/svg" width="65" height="26" viewBox="0 0 65 26" fill="none">
<g clip-path="url(#clip0_2262_11030)">
<path d="M33.3593 8.81016H30.4045L29.8427 10.4526H28.0508L31.0956 2.48141H32.6572L35.7189 10.4526H33.9268L33.3593 8.81016ZM30.8595 7.47981H32.9045L31.8764 4.49609L30.8595 7.47981ZM38.2187 3.07269V4.52895H39.2579V5.68957H38.2187V8.64591C38.2187 8.86492 38.2618 9.02185 38.3481 9.11675C38.4341 9.21163 38.5987 9.25908 38.8422 9.25908C39.022 9.25908 39.1812 9.24633 39.3197 9.22077V10.4197C39.0014 10.5146 38.6737 10.5621 38.3366 10.5621C37.1981 10.5621 36.6177 10.0018 36.5952 8.88133V5.68957H35.7077V4.52895H36.5952V3.07269H38.2187ZM39.7412 7.43602C39.7412 6.84839 39.857 6.32466 40.0893 5.86476C40.3216 5.40491 40.655 5.04905 41.0893 4.7972C41.5275 4.54536 42.035 4.41947 42.6118 4.41947C43.432 4.41947 44.1006 4.66399 44.6172 5.15307C45.1377 5.64214 45.4281 6.3064 45.4881 7.14585L45.4991 7.55098C45.4991 8.45979 45.2389 9.18974 44.7183 9.74087C44.1977 10.2883 43.4993 10.5621 42.6229 10.5621C41.7466 10.5621 41.0462 10.2883 40.522 9.74087C40.0014 9.19339 39.7412 8.44884 39.7412 7.50719V7.43602ZM41.3645 7.55098C41.3645 8.11305 41.4733 8.54372 41.6904 8.843C41.9077 9.13863 42.2185 9.28646 42.6229 9.28646C43.0162 9.28646 43.3233 9.14046 43.5443 8.84848C43.7652 8.55286 43.8758 8.08203 43.8758 7.43602C43.8758 6.8849 43.7652 6.45787 43.5443 6.15493C43.3233 5.85201 43.0125 5.70054 42.6118 5.70054C42.2147 5.70054 41.9077 5.85201 41.6904 6.15493C41.4733 6.45421 41.3645 6.91957 41.3645 7.55098ZM48.0216 4.52895L48.0722 5.19138C48.5027 4.67677 49.0852 4.41947 49.8191 4.41947C50.6018 4.41947 51.1393 4.72056 51.4314 5.32276C51.8583 4.72056 52.467 4.41947 53.2572 4.41947C53.9164 4.41947 54.407 4.60742 54.7291 4.98334C55.051 5.35563 55.2122 5.9177 55.2122 6.66954V10.4526H53.5831V6.67503C53.5831 6.33926 53.5156 6.0947 53.3808 5.94142C53.246 5.78447 53.0081 5.706 52.6675 5.706C52.1806 5.706 51.8435 5.9323 51.6562 6.38486L51.6618 10.4526H50.0383V6.68051C50.0383 6.33741 49.9689 6.08924 49.8304 5.93594C49.6918 5.78266 49.456 5.706 49.1227 5.706C48.662 5.706 48.3287 5.89214 48.1227 6.26443V10.4526H46.4991V4.52895H48.0216ZM58.1783 10.4526H56.5491V4.52895H58.1783V10.4526ZM56.4537 2.99603C56.4537 2.7588 56.5341 2.56353 56.6952 2.41024C56.86 2.25694 57.0829 2.1803 57.3637 2.1803C57.641 2.1803 57.8618 2.25694 58.0266 2.41024C58.1914 2.56353 58.2739 2.7588 58.2739 2.99603C58.2739 3.23691 58.1895 3.43401 58.021 3.58728C57.8562 3.74058 57.637 3.81722 57.3637 3.81722C57.0904 3.81722 56.8693 3.74058 56.701 3.58728C56.536 3.43401 56.4537 3.23691 56.4537 2.99603ZM62.0489 9.28646C62.3485 9.28646 62.5918 9.20617 62.7791 9.04558C62.9664 8.88499 63.0637 8.67146 63.0712 8.40502H64.5937C64.59 8.80652 64.4775 9.17515 64.2566 9.51092C64.0358 9.84307 63.7322 10.1022 63.3464 10.2883C62.9645 10.4708 62.5412 10.5621 62.077 10.5621C61.2081 10.5621 60.5227 10.2938 60.021 9.75729C59.5189 9.21712 59.2681 8.47256 59.2681 7.5236V7.41958C59.2681 6.50714 59.5172 5.779 60.0152 5.23518C60.5133 4.69137 61.1968 4.41947 62.0658 4.41947C62.826 4.41947 63.4345 4.63114 63.8914 5.05452C64.3522 5.47423 64.5862 6.03449 64.5937 6.73525H63.0712C63.0637 6.42866 62.9664 6.18048 62.7791 5.9907C62.5918 5.79726 62.3447 5.70054 62.0377 5.70054C61.6593 5.70054 61.3729 5.83557 61.1781 6.10567C60.9872 6.37211 60.8916 6.80643 60.8916 7.40863V7.57288C60.8916 8.1824 60.9872 8.62036 61.1781 8.88681C61.3691 9.15323 61.6593 9.28646 62.0489 9.28646ZM37.421 21.1594L38.522 15.4876H40.2016L38.3872 23.4587H36.6906L35.3593 18.1263L34.0279 23.4587H32.3314L30.5168 15.4876H32.1964L33.3033 21.1484L34.6514 15.4876H36.0785L37.421 21.1594ZM44.3418 23.4587C44.267 23.3163 44.2127 23.1394 44.1791 22.9278C43.7858 23.3547 43.2745 23.5682 42.6456 23.5682C42.05 23.5682 41.5556 23.4002 41.1625 23.0645C40.7729 22.7287 40.5781 22.3054 40.5781 21.7943C40.5781 21.1667 40.8158 20.6849 41.2916 20.3491C41.771 20.0133 42.4618 19.8436 43.3645 19.8399H44.1116V19.5005C44.1116 19.2268 44.0387 19.0078 43.8927 18.8435C43.7502 18.6793 43.5237 18.5971 43.2127 18.5971C42.9393 18.5971 42.7241 18.6611 42.5668 18.7888C42.4133 18.9166 42.3364 19.0918 42.3364 19.3144H40.7129C40.7129 18.9713 40.8216 18.6538 41.0387 18.3618C41.256 18.0698 41.5631 17.8417 41.9602 17.6774C42.357 17.5095 42.8027 17.4256 43.297 17.4256C44.0462 17.4256 44.6397 17.6098 45.0779 17.9785C45.5197 18.3436 45.7408 18.8581 45.7408 19.5223V22.0901C45.7445 22.6519 45.8249 23.0773 45.9824 23.3655V23.4587H44.3418ZM42.9993 22.3582C43.2389 22.3582 43.46 22.3072 43.6622 22.2051C43.8643 22.0992 44.0143 21.9587 44.1116 21.7834V20.7651H43.505C42.6922 20.7651 42.2597 21.0389 42.2072 21.5863L42.2016 21.6794C42.2016 21.8766 42.2727 22.0389 42.4152 22.1667C42.5575 22.2944 42.752 22.3582 42.9993 22.3582ZM48.7012 23.4587H47.072V15.0496H48.7012V23.4587ZM51.7572 23.4587H50.1281V15.0496H51.7572V23.4587ZM55.8975 23.5682C55.0062 23.5682 54.2795 23.3017 53.7179 22.7689C53.1597 22.2359 52.8808 21.5262 52.8808 20.6392V20.486C52.8808 19.891 52.9987 19.36 53.2347 18.8928C53.4706 18.422 53.8039 18.0607 54.2347 17.8088C54.6691 17.5533 55.1635 17.4256 55.7177 17.4256C56.5491 17.4256 57.2027 17.6811 57.6783 18.1921C58.1577 18.703 58.3972 19.4275 58.3972 20.3656V21.0115H54.5268C54.5791 21.3984 54.7364 21.7086 54.9987 21.9422C55.2645 22.1758 55.5997 22.2926 56.0043 22.2926C56.6297 22.2926 57.1185 22.0718 57.4706 21.6302L58.2681 22.5006C58.0247 22.8364 57.6952 23.0992 57.2795 23.2889C56.8637 23.4752 56.4031 23.5682 55.8975 23.5682ZM55.712 18.7067C55.3902 18.7067 55.1279 18.8125 54.9256 19.0242C54.727 19.2359 54.5997 19.5388 54.5437 19.933H56.802V19.8071C56.7945 19.4567 56.697 19.1866 56.51 18.9969C56.3227 18.8034 56.0566 18.7067 55.712 18.7067ZM61.2681 16.0788V17.5351H62.3072V18.6958H61.2681V21.6521C61.2681 21.8711 61.311 22.0279 61.3972 22.1228C61.4833 22.2176 61.6483 22.2652 61.8916 22.2652C62.0712 22.2652 62.2306 22.2524 62.3691 22.2268V23.4258C62.0508 23.5207 61.7231 23.5682 61.386 23.5682C60.2475 23.5682 59.667 23.008 59.6445 21.8876V18.6958H58.7568V17.5351H59.6445V16.0788H61.2681Z" fill="#888889"/>
<path fill-rule="evenodd" clip-rule="evenodd" d="M0 26L8.21904 4.05527C9.26198 1.4931 11.2064 0.0427897 13.7913 0.000932002V0C13.8106 0 13.8298 7.74837e-05 13.849 0.000232302C13.8682 7.74837e-05 13.8875 0 13.9068 0V0.000932002C16.4917 0.0427897 18.436 1.4931 19.479 4.05527L27.6979 26L22.6085 24.2751L15.5875 5.52894C15.1601 4.49207 14.6669 4.11883 13.849 4.10235C13.0312 4.11883 12.5379 4.49207 12.1106 5.52894L5.08952 24.2751L0 26ZM17.4253 17.6439C17.4253 19.5608 15.8457 21.1146 13.8972 21.1146C11.9488 21.1146 10.3692 19.5608 10.3692 17.6439C10.3692 15.7271 11.9488 14.1732 13.8972 14.1732C15.8457 14.1732 17.4253 15.7271 17.4253 17.6439Z" fill="#888889"/>
<mask id="mask0_2262_11030" style="mask-type:alpha" maskUnits="userSpaceOnUse" x="0" y="0" width="28" height="26">
<path fill-rule="evenodd" clip-rule="evenodd" d="M0 26L8.21904 4.05527C9.26198 1.4931 11.2064 0.0427897 13.7913 0.000932002V0C13.8106 0 13.8298 7.74837e-05 13.849 0.000232302C13.8682 7.74837e-05 13.8875 0 13.9068 0V0.000932002C16.4917 0.0427897 18.436 1.4931 19.479 4.05527L27.6979 26L22.6085 24.2751L15.5875 5.52894C15.1601 4.49207 14.6669 4.11883 13.849 4.10235C13.0312 4.11883 12.5379 4.49207 12.1106 5.52894L5.08952 24.2751L0 26ZM17.4253 17.6439C17.4253 19.5608 15.8457 21.1146 13.8972 21.1146C11.9488 21.1146 10.3692 19.5608 10.3692 17.6439C10.3692 15.7271 11.9488 14.1732 13.8972 14.1732C15.8457 14.1732 17.4253 15.7271 17.4253 17.6439Z" fill="white"/>
</mask>
<g mask="url(#mask0_2262_11030)">
</g>
</g>
<defs>
<clipPath id="clip0_2262_11030">
<rect width="65" height="26" fill="white"/>
</clipPath>
</defs>
</svg>