<svg xmlns:xlink="http://www.w3.org/1999/xlink" xmlns="http://www.w3.org/2000/svg" width="61" height="26" viewBox="0 0 61 26" fill="none">
<path fill-rule="evenodd" clip-rule="evenodd" d="M22.6402 22.0222C20.2733 24.4746 16.9506 26 13.2711 26C6.08408 26 0.257812 20.1797 0.257812 13C0.257812 5.82029 6.08408 0 13.2711 0C16.7891 0 19.981 1.39449 22.3231 3.66031L18.4916 7.48792C17.1305 6.20106 15.2931 5.41186 13.2711 5.41186C9.07594 5.41186 5.6751 8.80921 5.6751 13.0001C5.6751 17.191 9.07594 20.5883 13.2711 20.5883C15.4025 20.5883 17.3288 19.7114 18.7082 18.2991L22.5748 21.941L22.6402 22.0222Z" fill="#888889"/>
<path fill-rule="evenodd" clip-rule="evenodd" d="M13.33 19.0591C16.7121 19.0591 19.4539 16.32 19.4539 12.9414C19.4539 9.56272 16.7121 6.82373 13.33 6.82373C9.94779 6.82373 7.20605 9.56272 7.20605 12.9414C7.20605 16.32 9.94779 19.0591 13.33 19.0591ZM8.73707 10.412H10.1502L11.3868 14.3532L12.7412 10.4708H13.8599L15.2143 14.3532L16.4509 10.4708H17.8052L15.8031 16.3532H14.6254L13.2711 12.5885L11.9168 16.3532H10.8569L8.73707 10.412Z" fill="#888889"/>
<path d="M34.7838 7.92981C34.7023 8.79255 34.3835 9.46644 33.8275 9.9515C33.2715 10.4329 32.5321 10.6736 31.6091 10.6736C30.9641 10.6736 30.3952 10.5218 29.9023 10.2182C29.413 9.91079 29.0349 9.4757 28.768 8.91288C28.5011 8.35006 28.3621 7.69654 28.351 6.95227V6.1969C28.351 5.43412 28.4863 4.76206 28.7569 4.18073C29.0274 3.59938 29.4148 3.15135 29.9189 2.83661C30.4267 2.52187 31.0124 2.36451 31.6758 2.36451C32.5691 2.36451 33.2882 2.60704 33.8331 3.0921C34.3779 3.57717 34.6948 4.26219 34.7838 5.14716H33.3828C33.316 4.56582 33.1455 4.1474 32.8712 3.89191C32.6007 3.63271 32.2022 3.50311 31.6758 3.50311C31.0643 3.50311 30.5935 3.72713 30.2636 4.17517C29.9375 4.61951 29.7707 5.27305 29.7633 6.13581V6.85229C29.7633 7.72615 29.9189 8.39264 30.2303 8.85178C30.5454 9.31093 31.005 9.54054 31.6091 9.54054C32.1614 9.54054 32.5765 9.41647 32.8545 9.16841C33.1325 8.92027 33.3086 8.50744 33.3828 7.92981H34.7838ZM39.5098 10.5625C39.4504 10.4477 39.3985 10.2607 39.3541 10.0015C38.9241 10.4496 38.3978 10.6736 37.775 10.6736C37.1709 10.6736 36.6779 10.5014 36.2961 10.1571C35.9143 9.81264 35.7234 9.38689 35.7234 8.87957C35.7234 8.23899 35.9607 7.74837 36.4351 7.40772C36.9133 7.06336 37.5953 6.89118 38.4811 6.89118H39.3096V6.49682C39.3096 6.18579 39.2225 5.9377 39.0483 5.75256C38.8741 5.56372 38.609 5.4693 38.2532 5.4693C37.9456 5.4693 37.6935 5.54706 37.4971 5.70257C37.3006 5.85439 37.2023 6.04879 37.2023 6.28577H35.8513C35.8513 5.95622 35.9607 5.64888 36.1793 5.36377C36.398 5.07495 36.6946 4.84908 37.0689 4.68616C37.447 4.52324 37.8677 4.44178 38.331 4.44178C39.0353 4.44178 39.5969 4.61951 40.0156 4.97498C40.4345 5.32674 40.6495 5.82292 40.6606 6.4635V9.17394C40.6606 9.71458 40.7366 10.1459 40.8886 10.4681V10.5625H39.5098ZM38.0253 9.59051C38.2921 9.59051 38.5423 9.52575 38.7758 9.39616C39.0131 9.26648 39.1909 9.09253 39.3096 8.87404V7.74096H38.5813C38.0808 7.74096 37.7046 7.82798 37.4526 8.00201C37.2005 8.17602 37.0745 8.42229 37.0745 8.74071C37.0745 8.9999 37.1597 9.20725 37.3303 9.36276C37.5045 9.51462 37.7361 9.59051 38.0253 9.59051ZM44.0299 7.98535L43.4295 8.60186V10.5625H42.0784V2.03125H43.4295V6.95227L43.852 6.42462L45.5144 4.55286H47.1379L44.9028 7.0578L47.377 10.5625H45.8146L44.0299 7.98535ZM50.5628 10.6736C49.7066 10.6736 49.0116 10.4051 48.4778 9.86822C47.9478 9.32758 47.6828 8.60925 47.6828 7.71319V7.54657C47.6828 6.94671 47.7977 6.41166 48.0275 5.94141C48.261 5.46745 48.5872 5.09902 49.006 4.83612C49.4249 4.57322 49.8919 4.44178 50.4071 4.44178C51.2263 4.44178 51.8583 4.70282 52.3031 5.22491C52.7516 5.74701 52.9758 6.48572 52.9758 7.44104V7.98535H49.0449C49.0857 8.48152 49.2506 8.87404 49.5398 9.16281C49.8326 9.45165 50.1996 9.59603 50.6406 9.59603C51.2597 9.59603 51.7638 9.34611 52.1529 8.84626L52.8813 9.54054C52.6404 9.89966 52.3179 10.1792 51.9138 10.3792C51.5136 10.5755 51.0632 10.6736 50.5628 10.6736ZM50.4016 5.52484C50.0309 5.52484 49.7307 5.65444 49.5008 5.91363C49.2747 6.17283 49.1302 6.53386 49.0672 6.99671H51.6414V6.89673C51.6117 6.44499 51.4913 6.10433 51.28 5.87476C51.0688 5.64148 50.7759 5.52484 50.4016 5.52484ZM34.9561 21.563L36.2016 15.4756H37.5971L35.729 23.5625H34.3835L32.8434 17.6584L31.27 23.5625H29.9189L28.0508 15.4756H29.4463L30.7028 21.5519L32.2485 15.4756H33.4272L34.9561 21.563ZM41.9005 23.5625C41.8412 23.4477 41.7893 23.2607 41.7448 23.0016C41.3149 23.4496 40.7885 23.6736 40.1658 23.6736C39.5616 23.6736 39.0686 23.5014 38.6868 23.1571C38.305 22.8126 38.1142 22.3869 38.1142 21.8796C38.1142 21.239 38.3514 20.7484 38.8258 20.4077C39.304 20.0634 39.986 19.8911 40.8719 19.8911H41.7003V19.4968C41.7003 19.1858 41.6132 18.9377 41.439 18.7526C41.2648 18.5638 40.9998 18.4693 40.6439 18.4693C40.3363 18.4693 40.0842 18.547 39.8878 18.7026C39.6914 18.8544 39.5931 19.0488 39.5931 19.2857H38.2421C38.2421 18.9562 38.3514 18.6489 38.5701 18.3638C38.7888 18.075 39.0854 17.8491 39.4597 17.6862C39.8378 17.5233 40.2584 17.4418 40.7218 17.4418C41.426 17.4418 41.9876 17.6195 42.4064 17.9749C42.8253 18.3267 43.0403 18.8229 43.0514 19.4635V22.1739C43.0514 22.7146 43.1274 23.1459 43.2793 23.4681V23.5625H41.9005ZM40.416 22.5905C40.6828 22.5905 40.9331 22.5258 41.1666 22.3962C41.4038 22.2665 41.5817 22.0925 41.7003 21.874V20.7409H40.972C40.4716 20.7409 40.0954 20.8279 39.8433 21.002C39.5912 21.176 39.4653 21.4223 39.4653 21.7407C39.4653 21.9999 39.5505 22.2072 39.721 22.3628C39.8952 22.5146 40.1269 22.5905 40.416 22.5905ZM45.9036 23.5625H44.5526V15.0312H45.9036V23.5625ZM48.817 23.5625H47.4659V15.0312H48.817V23.5625ZM52.9424 23.6736C52.0862 23.6736 51.3913 23.4051 50.8575 22.8682C50.3274 22.3276 50.0624 21.6093 50.0624 20.7132V20.5466C50.0624 19.9467 50.1773 19.4117 50.4071 18.9414C50.6406 18.4675 50.9669 18.099 51.3856 17.8361C51.8045 17.5732 52.2715 17.4418 52.7868 17.4418C53.6059 17.4418 54.2379 17.7028 54.6826 18.2249C55.1312 18.747 55.3554 19.4857 55.3554 20.441V20.9853H51.4246C51.4653 21.4815 51.6303 21.874 51.9194 22.1628C52.2122 22.4517 52.5792 22.596 53.0203 22.596C53.6393 22.596 54.1433 22.3461 54.5326 21.8463L55.2609 22.5405C55.0199 22.8997 54.6975 23.1792 54.2935 23.3792C53.8931 23.5755 53.4428 23.6736 52.9424 23.6736ZM52.7812 18.5248C52.4105 18.5248 52.1103 18.6544 51.8805 18.9136C51.6544 19.1728 51.5098 19.5339 51.4468 19.9967H54.0211V19.8967C53.9914 19.445 53.8709 19.1043 53.6596 18.8748C53.4484 18.6415 53.1555 18.5248 52.7812 18.5248ZM58.102 16.0921V17.5528H59.164V18.5526H58.102V21.9074C58.102 22.1369 58.1465 22.3035 58.2355 22.4072C58.3281 22.5072 58.4912 22.5572 58.7248 22.5572C58.8804 22.5572 59.038 22.5387 59.1973 22.5016V23.5458C58.8897 23.631 58.5932 23.6736 58.3078 23.6736C57.2699 23.6736 56.751 23.1015 56.751 21.9573V18.5526H55.7613V17.5528H56.751V16.0921H58.102Z" fill="#888889"/>
</svg>