<svg xmlns:xlink="http://www.w3.org/1999/xlink" xmlns="http://www.w3.org/2000/svg" width="57" height="24" viewBox="0 0 57 24" fill="none">
<g clip-path="url(#clip0)">
<path fill-rule="evenodd" clip-rule="evenodd" d="M20.8778 20.3283C18.6952 22.5921 15.6312 24.0001 12.2383 24.0001C5.61086 24.0001 0.238281 18.6276 0.238281 12.0001C0.238281 5.3727 5.61086 0.00012207 12.2383 0.00012207C15.4823 0.00012207 18.4256 1.28734 20.5854 3.37887L17.0522 6.91205C15.7972 5.72417 14.1028 4.99568 12.2383 4.99568C8.36975 4.99568 5.23373 8.1317 5.23373 12.0002C5.23373 15.8687 8.36975 19.0047 12.2383 19.0047C14.2036 19.0047 15.9799 18.1953 17.252 16.8916L20.8175 20.2533L20.8778 20.3283Z" fill="#888889"/>
<path fill-rule="evenodd" clip-rule="evenodd" d="M12.2916 17.5931C15.4104 17.5931 17.9386 15.0648 17.9386 11.946C17.9386 8.82725 15.4104 6.29895 12.2916 6.29895C9.17277 6.29895 6.64453 8.82725 6.64453 11.946C6.64453 15.0648 9.17277 17.5931 12.2916 17.5931ZM8.05632 9.61122H9.35945L10.4997 13.2492L11.7486 9.66552H12.7803L14.0292 13.2492L15.1695 9.66552H16.4183L14.5722 15.0954H13.4862L12.2373 11.6202L10.9884 15.0954H10.011L8.05632 9.61122Z" fill="#888889"/>
<path d="M32.072 7.31995C31.9969 8.11632 31.7029 8.73837 31.1902 9.18612C30.6775 9.6305 29.9956 9.85265 29.1445 9.85265C28.5498 9.85265 28.0252 9.71255 27.5706 9.43227C27.1194 9.14855 26.7708 8.74692 26.5246 8.2274C26.2786 7.70787 26.1504 7.10462 26.1401 6.4176V5.72033C26.1401 5.01623 26.2649 4.39587 26.5144 3.85925C26.7639 3.32263 27.1211 2.90906 27.586 2.61853C28.0542 2.328 28.5943 2.18274 29.206 2.18274C30.0298 2.18274 30.6928 2.40662 31.1953 2.85437C31.6978 3.30212 31.99 3.93445 32.072 4.75134H30.7801C30.7185 4.21472 30.5613 3.82849 30.3084 3.59265C30.0589 3.35339 29.6914 3.23376 29.206 3.23376C28.6421 3.23376 28.208 3.44055 27.9038 3.85412C27.6031 4.26428 27.4492 4.86755 27.4424 5.66394V6.32531C27.4424 7.13195 27.586 7.74717 27.8731 8.171C28.1636 8.59482 28.5874 8.80677 29.1445 8.80677C29.6538 8.80677 30.0366 8.69225 30.2929 8.46327C30.5493 8.23422 30.7117 7.85315 30.7801 7.31995H32.072ZM36.43 9.75012C36.3752 9.64415 36.3274 9.47157 36.2864 9.23232C35.8899 9.64587 35.4046 9.85265 34.8303 9.85265C34.2732 9.85265 33.8186 9.69372 33.4666 9.37587C33.1145 9.05795 32.9385 8.66495 32.9385 8.19665C32.9385 7.60535 33.1573 7.15247 33.5947 6.83801C34.0357 6.52014 34.6645 6.36121 35.4814 6.36121H36.2454V5.99719C36.2454 5.71008 36.1651 5.48108 36.0044 5.31018C35.8438 5.13587 35.5993 5.04871 35.2712 5.04871C34.9876 5.04871 34.7551 5.12048 34.574 5.26403C34.3928 5.40417 34.3022 5.58362 34.3022 5.80237H33.0564C33.0564 5.49817 33.1573 5.21447 33.3589 4.95129C33.5605 4.68469 33.834 4.4762 34.1792 4.32581C34.5278 4.17542 34.9158 4.10022 35.343 4.10022C35.9924 4.10022 36.5103 4.26428 36.8965 4.59241C37.2827 4.91711 37.4809 5.37512 37.4912 5.96643V8.46837C37.4912 8.96742 37.5613 9.3656 37.7014 9.66297V9.75012H36.43ZM35.0611 8.8529C35.3071 8.8529 35.5378 8.79312 35.7532 8.6735C35.9719 8.5538 36.136 8.39322 36.2454 8.19155V7.14563H35.5738C35.1123 7.14563 34.7654 7.22595 34.533 7.38659C34.3006 7.54722 34.1843 7.77455 34.1843 8.06847C34.1843 8.30772 34.2629 8.49912 34.4202 8.64267C34.5808 8.78285 34.7944 8.8529 35.0611 8.8529ZM40.5982 7.37121L40.0444 7.9403V9.75012H38.7986V1.87512H40.0444V6.4176L40.4341 5.93054L41.9671 4.20276H43.4641L41.4031 6.51501L43.6846 9.75012H42.2439L40.5982 7.37121ZM46.6223 9.85265C45.8328 9.85265 45.1919 9.60485 44.6997 9.10925C44.2109 8.6102 43.9666 7.94712 43.9666 7.11999V6.96619C43.9666 6.41247 44.0725 5.91858 44.2844 5.4845C44.4997 5.047 44.8006 4.70691 45.1867 4.46423C45.573 4.22156 46.0036 4.10022 46.4788 4.10022C47.2342 4.10022 47.8169 4.34119 48.2271 4.82312C48.6406 5.30505 48.8474 5.98694 48.8474 6.86877V7.37121H45.2227C45.2602 7.82922 45.4123 8.19155 45.679 8.4581C45.949 8.72472 46.2874 8.858 46.6941 8.858C47.2649 8.858 47.7298 8.6273 48.0886 8.1659L48.7603 8.80677C48.5381 9.13827 48.2407 9.39635 47.8681 9.58092C47.4991 9.76212 47.0837 9.85265 46.6223 9.85265ZM46.4737 5.09997C46.1318 5.09997 45.855 5.2196 45.643 5.45886C45.4345 5.69812 45.3013 6.03137 45.2431 6.45862H47.617V6.36633C47.5896 5.94934 47.4785 5.63489 47.2837 5.42297C47.0889 5.20764 46.8188 5.09997 46.4737 5.09997ZM32.2309 19.9044L33.3794 14.2853H34.6663L32.9436 21.7501H31.7029L30.2827 16.3002L28.8318 21.7501H27.586L25.8633 14.2853H27.1501L28.3088 19.8942L29.7341 14.2853H30.821L32.2309 19.9044ZM38.6345 21.7501C38.5798 21.6441 38.532 21.4716 38.491 21.2323C38.0945 21.6459 37.6091 21.8526 37.0349 21.8526C36.4778 21.8526 36.0232 21.6937 35.6711 21.3759C35.3191 21.0579 35.143 20.6649 35.143 20.1966C35.143 19.6053 35.3618 19.1525 35.7993 18.838C36.2402 18.5202 36.8692 18.3612 37.6861 18.3612H38.4499V17.9972C38.4499 17.7101 38.3696 17.481 38.209 17.3102C38.0483 17.1359 37.804 17.0487 37.4758 17.0487C37.1921 17.0487 36.9597 17.1204 36.7786 17.2641C36.5974 17.4042 36.5068 17.5836 36.5068 17.8023H35.261C35.261 17.4981 35.3618 17.2145 35.5635 16.9513C35.7652 16.6847 36.0386 16.4762 36.3838 16.3258C36.7324 16.1754 37.1203 16.1002 37.5476 16.1002C38.197 16.1002 38.7148 16.2642 39.1011 16.5924C39.4873 16.9171 39.6856 17.3751 39.6958 17.9664V20.4684C39.6958 20.9674 39.7659 21.3656 39.906 21.663V21.7501H38.6345ZM37.2656 20.8529C37.5117 20.8529 37.7425 20.7931 37.9578 20.6735C38.1765 20.5538 38.3406 20.3932 38.4499 20.1915V19.1456H37.7783C37.3169 19.1456 36.97 19.2259 36.7375 19.3866C36.5051 19.5472 36.3889 19.7745 36.3889 20.0685C36.3889 20.3077 36.4675 20.4991 36.6247 20.6427C36.7854 20.7828 36.9991 20.8529 37.2656 20.8529ZM42.3259 21.7501H41.0801V13.8751H42.3259V21.7501ZM45.0124 21.7501H43.7666V13.8751H45.0124V21.7501ZM48.8167 21.8526C48.0271 21.8526 47.3863 21.6048 46.894 21.1092C46.4053 20.6102 46.1609 19.9471 46.1609 19.12V18.9662C46.1609 18.4125 46.2668 17.9186 46.4788 17.4845C46.6941 17.047 46.9949 16.7069 47.3811 16.4642C47.7673 16.2216 48.198 16.1002 48.6731 16.1002C49.4284 16.1002 50.0113 16.3412 50.4214 16.8231C50.835 17.305 51.0418 17.9869 51.0418 18.8688V19.3712H47.417C47.4546 19.8292 47.6067 20.1915 47.8733 20.4581C48.1433 20.7247 48.4817 20.858 48.8884 20.858C49.4593 20.858 49.924 20.6273 50.283 20.1659L50.9546 20.8068C50.7324 21.1383 50.4351 21.3963 50.0625 21.5809C49.6933 21.7621 49.2781 21.8526 48.8167 21.8526ZM48.6679 17.1C48.3262 17.1 48.0493 17.2196 47.8374 17.4588C47.6289 17.6981 47.4956 18.0314 47.4375 18.4586H49.8113V18.3663C49.7839 17.9493 49.6729 17.6349 49.478 17.423C49.2832 17.2077 49.0132 17.1 48.6679 17.1ZM53.5744 14.8544V16.2027H54.5537V17.1256H53.5744V20.2223C53.5744 20.4342 53.6155 20.588 53.6975 20.6837C53.7829 20.776 53.9334 20.8221 54.1487 20.8221C54.2923 20.8221 54.4375 20.805 54.5845 20.7708V21.7347C54.3008 21.8133 54.0274 21.8526 53.7642 21.8526C52.8071 21.8526 52.3286 21.3246 52.3286 20.2684V17.1256H51.416V16.2027H52.3286V14.8544H53.5744Z" fill="#888889"/>
</g>
<defs>
<clipPath id="clip0">
<rect width="56.25" height="24" fill="white" transform="translate(0 0.00012207)"/>
</clipPath>
</defs>
</svg>