<svg xmlns:xlink="http://www.w3.org/1999/xlink" xmlns="http://www.w3.org/2000/svg" width="87" height="24" viewBox="0 0 87 24" fill="none">
<g clip-path="url(#clip0)">
<path fill-rule="evenodd" clip-rule="evenodd" d="M38.7513 10.9939C38.4416 9.29069 36.8932 7.89715 35.0351 7.89715C33.2545 7.89715 31.6287 9.13586 31.319 10.9939H38.7513ZM31.2416 13.0068C31.7835 15.0971 33.4093 16.2584 35.2674 16.2584C36.8158 16.2584 38.2093 15.4068 39.0609 14.5552L40.6093 16.4132C38.9835 18.039 36.9706 18.7358 35.2674 18.7358C31.3965 18.7358 28.6094 15.5616 28.6094 12.0004C28.6094 8.36167 31.4739 5.57458 35.0351 5.57458C38.7513 5.57458 41.5383 8.51651 41.5383 12.9294H31.2416V13.0068Z" fill="#888889"/>
<path fill-rule="evenodd" clip-rule="evenodd" d="M53.7698 12.2323C53.7698 9.98715 51.9891 8.20651 49.744 8.20651C47.4988 8.20651 45.7182 9.98715 45.7182 12.2323C45.7182 14.4 47.4988 16.1807 49.744 16.1807C51.9891 16.1807 53.7698 14.4 53.7698 12.2323ZM53.6923 7.20006V0.774292H56.2472V18.5806H54.0794V16.9549C52.9956 18.0387 51.3698 18.7355 49.6665 18.7355C46.0279 18.7355 43.0859 15.7936 43.0859 12.1549C43.0859 8.51619 46.0279 5.57427 49.6665 5.57427C51.2149 5.65169 52.6859 6.19362 53.6923 7.20006Z" fill="#888889"/>
<path fill-rule="evenodd" clip-rule="evenodd" d="M68.4033 12.2325C68.4033 9.98732 66.6226 8.20668 64.3775 8.20668C62.2098 8.20668 60.3517 9.98732 60.3517 12.2325C60.3517 14.4002 62.1323 16.2583 64.3775 16.2583C66.6226 16.1808 68.4033 14.4002 68.4033 12.2325ZM70.9581 17.1099C70.9581 21.9873 68.0162 23.8453 65.0743 23.8453C63.9904 23.8453 62.6743 23.6131 61.4356 22.7614L62.442 20.6711C63.2936 21.1356 63.9904 21.4453 64.9194 21.4453C67.0097 21.4453 68.4807 19.9744 68.4807 17.1873C67.3968 18.1937 65.9259 18.8131 64.3775 18.8131C60.7388 18.8131 57.7969 15.8712 57.7969 12.2325C57.7969 8.59378 60.7388 5.65186 64.3775 5.65186C66.0807 5.65186 67.5517 6.34863 68.7129 7.43249V5.88411H70.9581V17.1099Z" fill="#888889"/>
<path fill-rule="evenodd" clip-rule="evenodd" d="M82.7239 10.9939C82.4142 9.29069 80.8659 7.89715 79.0078 7.89715C77.2272 7.89715 75.6014 9.13586 75.2917 10.9939H82.7239ZM75.2143 13.0068C75.7562 15.0971 77.382 16.2584 79.2401 16.2584C80.7884 16.2584 82.182 15.4068 83.0336 14.5552L84.582 16.4132C82.9562 18.039 80.9433 18.7358 79.2401 18.7358C75.3691 18.7358 72.582 15.5616 72.582 12.0004C72.582 8.36167 75.4465 5.57458 79.0078 5.57458C82.7239 5.57458 85.511 8.51651 85.511 12.9294H75.2143V13.0068Z" fill="#888889"/>
<path fill-rule="evenodd" clip-rule="evenodd" d="M25.7069 3.47241L18.2516 23.9999H0.992188L4.873 13.2766H11.7155L15.2899 3.47241H25.7069Z" fill="#888889"/>
<path fill-rule="evenodd" clip-rule="evenodd" d="M13.7564 0.00012207L9.87556 10.7234H0.582031L4.46285 0.00012207H13.7564Z" fill="#888889"/>
</g>
<defs>
<clipPath id="clip0">
<rect width="86.2495" height="24" fill="white" transform="translate(0 0.00012207)"/>
</clipPath>
</defs>
</svg>