<svg xmlns:xlink="http://www.w3.org/1999/xlink" xmlns="http://www.w3.org/2000/svg" width="93" height="26" viewBox="0 0 93 26" fill="none">
<g clip-path="url(#clip0_2262_10953)">
<path fill-rule="evenodd" clip-rule="evenodd" d="M41.7814 11.9099C41.4474 10.0648 39.7779 8.55512 37.7744 8.55512C35.8544 8.55512 34.1014 9.89705 33.7674 11.9099H41.7814ZM33.684 14.0906C34.2683 16.3551 36.0214 17.6131 38.0248 17.6131C39.6944 17.6131 41.197 16.6906 42.1153 15.768L43.7848 17.7809C42.0318 19.5422 39.8614 20.297 38.0248 20.297C33.8509 20.297 30.8457 16.8583 30.8457 13.0003C30.8457 9.05834 33.9344 6.039 37.7744 6.039C41.7814 6.039 44.7866 9.22608 44.7866 14.0067H33.684V14.0906Z" fill="#888889"/>
<path fill-rule="evenodd" clip-rule="evenodd" d="M57.977 13.2515C57.977 10.8193 56.057 8.89025 53.6362 8.89025C51.2153 8.89025 49.2953 10.8193 49.2953 13.2515C49.2953 15.5999 51.2153 17.5289 53.6362 17.5289C56.057 17.5289 57.977 15.5999 57.977 13.2515ZM57.8936 7.79994V0.838684H60.6483V20.1289H58.3109V18.3676C57.1423 19.5418 55.3892 20.2966 53.5527 20.2966C49.6292 20.2966 46.457 17.1096 46.457 13.1677C46.457 9.22574 49.6292 6.03866 53.5527 6.03866C55.2223 6.12253 56.8083 6.70962 57.8936 7.79994Z" fill="#888889"/>
<path fill-rule="evenodd" clip-rule="evenodd" d="M73.7549 13.2517C73.7549 10.8194 71.8349 8.89041 69.414 8.89041C67.0766 8.89041 65.0731 10.8194 65.0731 13.2517C65.0731 15.6 66.9931 17.6129 69.414 17.6129C71.8349 17.5291 73.7549 15.6 73.7549 13.2517ZM76.5097 18.5355C76.5097 23.8194 73.3375 25.8323 70.1653 25.8323C68.9966 25.8323 67.5775 25.5806 66.2418 24.6581L67.3271 22.3936C68.2453 22.8968 68.9966 23.2323 69.9984 23.2323C72.2523 23.2323 73.8384 21.6387 73.8384 18.6194C72.6697 19.7097 71.0836 20.3807 69.414 20.3807C65.4905 20.3807 62.3184 17.1936 62.3184 13.2517C62.3184 9.30976 65.4905 6.12268 69.414 6.12268C71.2505 6.12268 72.8366 6.87751 74.0888 8.0517V6.37429H76.5097V18.5355Z" fill="#888889"/>
<path fill-rule="evenodd" clip-rule="evenodd" d="M89.1974 11.9099C88.8635 10.0648 87.1939 8.55512 85.1904 8.55512C83.2704 8.55512 81.5174 9.89705 81.1835 11.9099H89.1974ZM81.1 14.0906C81.6843 16.3551 83.4374 17.6131 85.4408 17.6131C87.1104 17.6131 88.613 16.6906 89.5313 15.768L91.2009 17.7809C89.4478 19.5422 87.2774 20.297 85.4408 20.297C81.2669 20.297 78.2617 16.8583 78.2617 13.0003C78.2617 9.05834 81.3504 6.039 85.1904 6.039C89.1974 6.039 92.2026 9.22608 92.2026 14.0067H81.1V14.0906Z" fill="#888889"/>
<path fill-rule="evenodd" clip-rule="evenodd" d="M27.7144 3.7616L19.6757 25.9997H1.06543L5.24998 14.3828H12.628L16.4822 3.7616H27.7144Z" fill="#888889"/>
<path fill-rule="evenodd" clip-rule="evenodd" d="M14.8314 0L10.6469 11.6169H0.625977L4.81053 0H14.8314Z" fill="#888889"/>
</g>
<defs>
<clipPath id="clip0_2262_10953">
<rect width="93" height="26" fill="white"/>
</clipPath>
</defs>
</svg>