<svg xmlns:xlink="http://www.w3.org/1999/xlink" xmlns="http://www.w3.org/2000/svg" width="127" height="26" viewBox="0 0 127 26" fill="none">
<g clip-path="url(#clip0_2262_11073)">
<path d="M25.8946 7.25959L14.8008 0V4.05888L21.9176 8.67441L21.0803 11.3184H14.8008V14.6815H21.0803L21.9176 17.3256L14.8008 21.9412V26L25.8946 18.7636L24.0805 13.0116L25.8946 7.25959Z" fill="url(#paint0_linear_2262_11073)"/>
<path d="M5.14909 14.6815H11.4054V11.3184H5.12583L4.31182 8.67441L11.4054 4.05888V0L0.311523 7.25959L2.12561 13.0116L0.311523 18.7636L11.4287 26V21.9412L4.31182 17.3256L5.14909 14.6815Z" fill="url(#paint1_linear_2262_11073)"/>
<mask id="mask0_2262_11073" style="mask-type:alpha" maskUnits="userSpaceOnUse" x="0" y="0" width="26" height="26">
<path d="M25.8946 7.25959L14.8008 0V4.05888L21.9176 8.67441L21.0803 11.3184H14.8008V14.6815H21.0803L21.9176 17.3256L14.8008 21.9412V26L25.8946 18.7636L24.0805 13.0116L25.8946 7.25959Z" fill="url(#paint2_linear_2262_11073)"/>
<path d="M5.14909 14.6815H11.4054V11.3184H5.12583L4.31182 8.67441L11.4054 4.05888V0L0.311523 7.25959L2.12561 13.0116L0.311523 18.7636L11.4287 26V21.9412L4.31182 17.3256L5.14909 14.6815Z" fill="url(#paint3_linear_2262_11073)"/>
</mask>
<g mask="url(#mask0_2262_11073)">
<path d="M25.7262 0H0.326172V26H25.7262V0Z" fill="url(#paint4_linear_2262_11073)"/>
</g>
<path d="M47.9678 7.14984V9.42289H37.4719V11.7488H46.3899V14.0218H37.4719V16.5768H47.9678V18.8498H34.7793V7.14984H47.9678Z" fill="white"/>
<path d="M49.457 18.8498L55.4873 12.9294L49.6278 7.14984H53.3348L57.4689 11.3259L61.4321 7.14984H64.8999L59.0576 12.9294L65.0878 18.8498H61.3467L57.4689 14.5504L53.0445 18.8498H49.457Z" fill="white"/>
<path d="M72.3187 7.14984C77.2044 7.14984 80.1425 9.59157 80.1425 12.9998C80.1425 16.4081 77.2044 18.8498 72.3187 18.8498C67.433 18.8498 64.5117 16.4081 64.5117 12.9998C64.5117 9.59157 67.433 7.14984 72.3187 7.14984ZM72.3187 9.33725C69.3806 9.33725 67.2148 10.8124 67.2148 12.9998C67.2148 15.1873 69.3806 16.6624 72.3187 16.6624C75.2736 16.6624 77.4394 15.1873 77.4394 12.9998C77.4394 10.8124 75.2736 9.33725 72.3187 9.33725Z" fill="white"/>
<path d="M89.8797 7.14984C93.7931 7.14984 96.1507 9.31719 96.1507 12.9822C96.1507 16.6825 93.8102 18.8498 89.9139 18.8498H81.9854V7.14984H89.8797ZM93.3828 12.9822C93.3828 10.6915 92.0159 9.42289 89.5378 9.42289H84.6678V16.5768H89.5378C92.0159 16.5768 93.3828 15.2905 93.3828 12.9822Z" fill="white"/>
<path d="M105.023 18.8498C100.903 18.8498 97.7773 16.9834 97.7773 13.5442V7.14984H100.474V13.285C100.474 15.4107 102.688 16.3958 105.023 16.3958C107.376 16.3958 109.59 15.428 109.59 13.285V7.14984H112.268V13.5442C112.268 16.9834 109.161 18.8498 105.023 18.8498Z" fill="white"/>
<path d="M119.815 18.8498C117.601 18.8498 115.214 18.4429 113.52 17.6798L114.402 15.5094C115.924 16.2047 118.017 16.6455 119.901 16.6455C122.064 16.6455 124.087 16.1877 124.087 15.3737C124.087 14.7803 123.447 14.526 122.115 14.3224L118.345 13.9155C115.439 13.5255 114.021 12.5251 114.021 10.7616C114.021 8.48941 116.425 7.14984 119.953 7.14984C122.081 7.14984 125.003 7.53984 126.508 8.21812L125.626 10.2868C124.139 9.67639 121.613 9.37114 119.832 9.37114C117.999 9.37114 116.788 9.7951 116.788 10.5751C116.788 11.1177 117.394 11.389 118.95 11.6094L122.616 12.0164C125.418 12.4064 126.871 13.356 126.871 15.2042C126.871 17.5442 123.793 18.8498 119.815 18.8498Z" fill="white"/>
</g>
<defs>
<linearGradient id="paint0_linear_2262_11073" x1="22.3057" y1="27.7875" x2="14.9022" y2="-2.86198" gradientUnits="userSpaceOnUse">
<stop stop-color="#0B46F9"/>
<stop offset="1" stop-color="#BBFBE0"/>
</linearGradient>
<linearGradient id="paint1_linear_2262_11073" x1="22.306" y1="27.7875" x2="14.9024" y2="-2.86198" gradientUnits="userSpaceOnUse">
<stop stop-color="#0B46F9"/>
<stop offset="1" stop-color="#BBFBE0"/>
</linearGradient>
<linearGradient id="paint2_linear_2262_11073" x1="22.3057" y1="27.7875" x2="14.9022" y2="-2.86198" gradientUnits="userSpaceOnUse">
<stop stop-color="#0B46F9"/>
<stop offset="1" stop-color="#BBFBE0"/>
</linearGradient>
<linearGradient id="paint3_linear_2262_11073" x1="22.306" y1="27.7875" x2="14.9024" y2="-2.86198" gradientUnits="userSpaceOnUse">
<stop stop-color="#0B46F9"/>
<stop offset="1" stop-color="#BBFBE0"/>
</linearGradient>
<linearGradient id="paint4_linear_2262_11073" x1="1.95438" y1="5.85" x2="14.799" y2="15.4618" gradientUnits="userSpaceOnUse">
<stop offset="0.119792" stop-color="#8952FF" stop-opacity="0.87"/>
<stop offset="1" stop-color="#DABDFF" stop-opacity="0"/>
</linearGradient>
<clipPath id="clip0_2262_11073">
<rect width="127" height="26" fill="white"/>
</clipPath>
</defs>
</svg>