<svg xmlns:xlink="http://www.w3.org/1999/xlink" xmlns="http://www.w3.org/2000/svg" width="120" height="24" viewBox="0 0 120 24" fill="none">
<g clip-path="url(#clip0_2284_6664)">
<path d="M24.446 6.14273L14.4004 0V3.43443L20.8447 7.33989L20.0866 9.57715H14.4004V12.4228H20.0866L20.8447 14.6601L14.4004 18.5656V22L24.446 15.8769L22.8033 11.0098L24.446 6.14273Z" fill="#888889"/>
<path d="M5.66075 12.4228H11.3259V9.57715H5.63969L4.90259 7.33989L11.3259 3.43443V0L1.28027 6.14273L2.92295 11.0098L1.28027 15.8769L11.347 22V18.5656L4.90259 14.6601L5.66075 12.4228Z" fill="#888889"/>
<path d="M44.4335 6.04987V7.97322H34.9294V9.94125H43.0048V11.8646H34.9294V14.0265H44.4335V15.9499H32.4912V6.04987H44.4335Z" fill="#888889"/>
<path d="M45.7812 15.9499L51.2417 10.9403L45.9359 6.04987H49.2927L53.0361 9.58348L56.6248 6.04987H59.765L54.4747 10.9403L59.9351 15.9499H56.5475L53.0361 12.3119L49.0297 15.9499H45.7812Z" fill="#888889"/>
<path d="M66.4834 6.04987C70.9074 6.04987 73.5679 8.11594 73.5679 10.9999C73.5679 13.8838 70.9074 15.9499 66.4834 15.9499C62.0594 15.9499 59.4141 13.8838 59.4141 10.9999C59.4141 8.11594 62.0594 6.04987 66.4834 6.04987ZM66.4834 7.90075C63.8229 7.90075 61.8617 9.14898 61.8617 10.9999C61.8617 12.8508 63.8229 14.099 66.4834 14.099C69.1591 14.099 71.1203 12.8508 71.1203 10.9999C71.1203 9.14898 69.1591 7.90075 66.4834 7.90075Z" fill="#888889"/>
<path d="M82.3857 6.04987C85.9294 6.04987 88.0642 7.88377 88.0642 10.9849C88.0642 14.116 85.9448 15.9499 82.4167 15.9499H75.2373V6.04987H82.3857ZM85.5578 10.9849C85.5578 9.04668 84.3201 7.97322 82.0761 7.97322H77.6663V14.0265H82.0761C84.3201 14.0265 85.5578 12.9381 85.5578 10.9849Z" fill="#888889"/>
<path d="M96.098 15.9499C92.3671 15.9499 89.5371 14.3705 89.5371 11.4605V6.04987H91.9786V11.2412C91.9786 13.0398 93.9838 13.8733 96.098 13.8733C98.2285 13.8733 100.234 13.0545 100.234 11.2412V6.04987H102.659V11.4605C102.659 14.3705 99.8451 15.9499 96.098 15.9499Z" fill="#888889"/>
<path d="M109.492 15.9499C107.487 15.9499 105.326 15.6055 103.791 14.9599L104.59 13.1233C105.968 13.7116 107.863 14.0847 109.57 14.0847C111.528 14.0847 113.36 13.6973 113.36 13.0085C113.36 12.5064 112.78 12.2912 111.574 12.119L108.16 11.7747C105.529 11.4447 104.245 10.5982 104.245 9.10594C104.245 7.18335 106.422 6.04987 109.617 6.04987C111.543 6.04987 114.19 6.37987 115.552 6.95379L114.754 8.70423C113.407 8.18772 111.12 7.92942 109.507 7.92942C107.847 7.92942 106.751 8.28816 106.751 8.94816C106.751 9.40727 107.299 9.63683 108.709 9.82335L112.028 10.1677C114.566 10.4977 115.881 11.3012 115.881 12.8651C115.881 14.8451 113.093 15.9499 109.492 15.9499Z" fill="#888889"/>
</g>
<defs>
<clipPath id="clip0_2284_6664">
<rect width="115" height="22" fill="white" transform="translate(0.998047)"/>
</clipPath>
</defs>
</svg>