<svg xmlns:xlink="http://www.w3.org/1999/xlink" xmlns="http://www.w3.org/2000/svg" width="76" height="26" viewBox="0 0 76 26" fill="none">
<g clip-path="url(#clip0_2262_11046)">
<path fill-rule="evenodd" clip-rule="evenodd" d="M23.8281 2.89282C23.8538 2.9217 23.8694 2.95766 23.8724 2.99547C23.8884 3.18093 25.3025 21.579 12.0893 25.8639C12.0496 25.8768 12.0065 25.8768 11.9668 25.8639C-1.24599 21.579 0.16813 3.18093 0.183698 2.99547C0.186872 2.95777 0.202414 2.92197 0.228104 2.89311C0.253793 2.86426 0.288343 2.84385 0.326878 2.83472L11.9833 0.131293C12.0128 0.124693 12.0433 0.124693 12.0728 0.131293L23.7287 2.83472C23.7675 2.84359 23.8021 2.86394 23.8281 2.89282ZM21.6827 4.85722C21.7037 4.88061 21.7165 4.9097 21.7192 4.94038H21.7205C21.7336 5.09166 22.8903 20.112 12.0782 23.6097C12.0465 23.6212 12.0114 23.6212 11.9797 23.6097C1.16722 20.112 2.32437 5.09166 2.33735 4.94038C2.33986 4.9097 2.35252 4.88053 2.3735 4.85713C2.39449 4.83375 2.42273 4.81728 2.45415 4.81013L11.9908 2.60173C12.015 2.59596 12.0403 2.59596 12.0644 2.60173L21.602 4.81013C21.6334 4.81737 21.6616 4.83386 21.6827 4.85722Z" fill="#888889"/>
<path d="M11.8932 5.8982L5.5342 7.36966C5.51324 7.37474 5.49448 7.38595 5.4805 7.40167C5.46655 7.4174 5.45809 7.43692 5.45633 7.45744C5.44813 7.55841 4.67684 17.5721 11.8841 19.9042C11.9057 19.9107 11.9291 19.9107 11.9507 19.9042C19.158 17.5717 18.3871 7.55841 18.3785 7.45704C18.3768 7.43644 18.3684 7.41686 18.3543 7.40115C18.3402 7.38545 18.3212 7.37442 18.3001 7.36966L11.9416 5.8978C11.9258 5.89377 11.909 5.89377 11.8932 5.8978" fill="#888889"/>
<path d="M33.5341 14.3976V12.9348H36.0204V17.237C34.8233 17.4239 33.8522 17.5175 33.1071 17.5175C31.7761 17.5175 30.8594 17.172 30.3571 16.4815C29.8632 15.7909 29.6162 14.6938 29.6162 13.1908C29.6162 11.6879 29.8757 10.6034 30.3948 9.93668C30.9138 9.27076 31.797 8.9375 33.0443 8.9375C33.8229 8.9375 34.6642 9.023 35.5684 9.1934L36.0204 9.27891L35.9702 10.5829C34.9656 10.4774 34.141 10.4243 33.4964 10.4243C32.8602 10.4243 32.4123 10.4974 32.1528 10.6435C31.8933 10.7899 31.7007 11.0621 31.5752 11.4601C31.4579 11.8504 31.3993 12.5248 31.3993 13.4833C31.3993 14.4342 31.5207 15.1002 31.7635 15.4821C32.0063 15.864 32.5086 16.0552 33.2704 16.0552L34.3127 16.0061V14.3976H33.5341Z" fill="#888889"/>
<path d="M39.313 14.6044C39.313 15.5714 39.8194 16.0551 40.8324 16.0551C41.8454 16.0551 42.3518 15.5714 42.3518 14.6044V9.08362H44.0847V14.5679C44.0847 15.5834 43.8127 16.331 43.2685 16.8106C42.7327 17.2817 41.9207 17.5174 40.8324 17.5174C39.7441 17.5174 38.9279 17.2817 38.3837 16.8106C37.8479 16.331 37.5801 15.5834 37.5801 14.5679V9.08362H39.313V14.6044Z" fill="#888889"/>
<path d="M45.0967 17.3711L47.0179 9.08362H50.3079L52.2292 17.3711H50.4963L50.1573 15.8723H47.1686L46.8296 17.3711H45.0967ZM48.3615 10.4733L47.4951 14.4096H49.8307L48.9643 10.4733H48.3615Z" fill="#888889"/>
<path d="M55.0962 14.5924V17.3711H53.3633V9.08362H56.6784C58.6876 9.08362 59.6921 9.99363 59.6921 11.8137C59.6921 12.8945 59.2736 13.6907 58.4364 14.2027L59.6545 17.3711H57.7583L56.7664 14.5924H55.0962ZM56.7035 13.1543C57.1136 13.1543 57.4192 13.0325 57.6203 12.7886C57.8212 12.5451 57.9216 12.2239 57.9216 11.8257C57.9216 11.4277 57.8127 11.1111 57.5951 10.8754C57.3858 10.6398 57.0803 10.5217 56.6784 10.5217H55.0962V13.1543H56.7035Z" fill="#888889"/>
<path d="M64.0298 17.3711H61.1543V9.08362H64.0298C64.7667 9.08362 65.3735 9.16098 65.8506 9.3155C66.328 9.46127 66.6962 9.70943 66.9557 10.059C67.2236 10.4 67.4079 10.8059 67.5082 11.2776C67.6088 11.7406 67.6588 12.346 67.6588 13.0936C67.6588 13.8407 67.6128 14.4623 67.5208 14.958C67.4288 15.4456 67.2529 15.8843 66.9934 16.274C66.7422 16.6559 66.374 16.9364 65.8883 17.1152C65.4028 17.286 64.7834 17.3711 64.0298 17.3711ZM65.8506 14.0804C65.8675 13.8208 65.8759 13.4629 65.8759 13.0079C65.8759 12.5451 65.859 12.1752 65.8256 11.899C65.792 11.6229 65.7126 11.3707 65.587 11.1435C65.4614 10.9157 65.2731 10.7616 65.0219 10.6801C64.7791 10.5907 64.4485 10.5464 64.0298 10.5464H62.8872V15.9089H64.0298C64.6578 15.9089 65.1139 15.7542 65.3987 15.4456C65.6414 15.1938 65.792 14.7387 65.8506 14.0804Z" fill="#888889"/>
<path d="M68.3232 17.3711L70.2444 9.08362H73.5344L75.4558 17.3711H73.7229L73.3837 15.8723H70.3951L70.0561 17.3711H68.3232ZM71.5881 10.4733L70.7216 14.4096H73.0572L72.1909 10.4733H71.5881Z" fill="#888889"/>
</g>
<defs>
<clipPath id="clip0_2262_11046">
<rect width="76" height="26" fill="white"/>
</clipPath>
</defs>
</svg>