<svg xmlns:xlink="http://www.w3.org/1999/xlink" xmlns="http://www.w3.org/2000/svg" width="89" height="26" viewBox="0 0 89 26" fill="none">
<g clip-path="url(#clip0_2284_8367)">
<path d="M33.0485 6.48072V13.817H25.5614V7.42805C25.5614 6.90298 25.1238 6.47705 24.5845 6.47705H22.0498V24.0393C22.0498 24.5643 22.4873 24.9902 23.0267 24.9902H25.5614V16.7985H33.0522V24.0356C33.0447 24.5606 33.4747 24.9939 34.014 25.0013H34.0291H36.5638V7.42805C36.5638 6.90298 36.1263 6.47705 35.5869 6.47705H33.0485V6.48072ZM47.917 11.0705V19.8718C47.9245 20.6722 47.4945 21.4176 46.7854 21.8288C44.8015 22.9451 42.7458 21.5461 42.7458 19.7102V12.0215C42.7458 11.4964 42.3083 11.0705 41.7689 11.0705H39.2342V20.026C39.2418 22.912 41.6407 25.2473 44.6053 25.262H46.0462C49.0146 25.2546 51.421 22.912 51.4286 20.0223V12.0215C51.4286 11.4964 50.991 11.0705 50.4517 11.0705H47.917Z" fill="#FFFFFF"/>
<path d="M86.265 25.0013H88.7997V12.5319C88.7997 12.0068 88.3621 11.5809 87.8228 11.5809H85.2881V24.043C85.2843 24.568 85.7181 24.9976 86.2575 25.0013H86.265Z" fill="#2CA6E0"/>
<path d="M88.8537 9.08681C89.2674 8.11444 88.7931 6.99965 87.7942 6.59687C86.7954 6.19409 85.6502 6.65584 85.2365 7.62822C84.8227 8.60059 85.297 9.71537 86.2959 10.1182C87.2948 10.5209 88.4399 10.0592 88.8537 9.08681Z" fill="#2CA6E0"/>
<path d="M60.4892 11.0631C56.8117 11.0631 53.8018 13.6224 53.8018 17.2024V19.1374C53.8018 22.7174 56.8117 25.262 60.4892 25.262C64.1667 25.262 67.1766 22.7174 67.1766 19.1374V17.2024C67.1804 13.6224 64.1705 11.0631 60.4892 11.0631ZM63.65 19.3687C63.65 21.0614 62.228 22.1887 60.4854 22.1887C58.7428 22.1887 57.3246 21.0614 57.3246 19.3687V16.9527C57.3246 15.26 58.7466 14.1327 60.4854 14.1327C62.2242 14.1327 63.65 15.26 63.65 16.9527V19.3687Z" fill="#FFFFFF"/>
<path d="M76.2361 11.0631C75.1348 11.0558 74.0485 11.2981 73.0565 11.7645V7.44642C73.0565 6.92135 72.619 6.49542 72.0796 6.49542H69.5449V19.1374C69.5449 22.7174 72.5548 25.262 76.2324 25.262C79.9099 25.262 82.9198 22.7174 82.9198 19.1374V17.2024C82.9236 13.6224 79.9212 11.0631 76.2361 11.0631ZM79.4007 19.3687C79.4007 21.0614 77.9787 22.1887 76.2361 22.1887C74.4973 22.1887 73.0754 21.0614 73.0754 19.3687V16.9527C73.0754 15.26 74.4973 14.1328 76.2361 14.1328C77.9749 14.1328 79.4007 15.26 79.4007 16.9527V19.3687Z" fill="#2CA6E0"/>
<path d="M11.4362 7.99714C11.4362 4.2666 9.56917 1.05377 8.14719 0.0109838C8.14719 0.0109838 8.0378 -0.047765 8.04912 0.102779C7.93219 7.31052 4.14905 9.26391 2.07078 11.8929C-2.72699 17.9661 1.73131 24.623 6.28013 25.8531C8.8148 26.5434 5.69173 24.6341 5.28814 20.6061C4.79403 15.7446 11.4362 12.0288 11.4362 7.99714Z" fill="#FFFFFF"/>
<path d="M13.616 10.4536C13.5858 10.4352 13.5443 10.4206 13.5179 10.4683C13.4387 11.3752 12.4882 13.3139 11.2812 15.0984C7.18878 21.1422 9.51977 24.0576 10.8324 25.6255C11.5943 26.5324 10.8324 25.6255 12.7334 24.6965C15.0832 23.3086 16.607 20.9072 16.8333 18.2415C17.2068 13.9455 14.5589 11.2394 13.616 10.4536Z" fill="#2CA6E0"/>
</g>
<defs>
<clipPath id="clip0_2284_8367">
<rect width="89" height="26" fill="white"/>
</clipPath>
</defs>
<script xmlns=""/></svg>