<svg xmlns:xlink="http://www.w3.org/1999/xlink" xmlns="http://www.w3.org/2000/svg" width="97" height="26" viewBox="0 0 97 26" fill="none">
<g clip-path="url(#clip0_2262_10989)">
<path d="M29.1992 19.7566V1.22252H30.4913V18.5341H39.3392V19.7566H29.1992ZM45.729 20.0132C43.7251 20.0132 42.1756 19.3692 41.0149 18.1467C39.9193 16.9241 39.3342 15.1885 39.3342 12.9346C39.3342 10.7461 39.8489 8.94504 40.9491 7.65711C42.0444 6.3038 43.4678 5.65982 45.3401 5.65982C46.9554 5.65982 48.2473 6.23838 49.2163 7.33512C50.1854 8.49228 50.6347 10.0368 50.6347 11.9686V13H40.626C40.626 14.8665 41.0803 16.3456 41.984 17.3115C42.8219 18.3429 44.1137 18.7906 45.729 18.7906C46.5011 18.7906 47.2128 18.7252 47.7933 18.5994C48.3734 18.4686 49.1509 18.2775 50.0542 17.8901V19.1126C49.2821 19.4346 48.5704 19.6912 47.9245 19.822C47.2027 19.9528 46.4659 20.0182 45.729 20.0132ZM45.3401 6.82199C43.9825 6.82199 42.9531 7.27475 42.1102 8.10992C41.3377 9.01046 40.818 10.233 40.6918 11.9083H49.2163C49.2163 10.2984 48.8936 9.07585 48.1819 8.1753C47.5359 7.26974 46.5669 6.82199 45.3401 6.82199ZM57.3527 5.72525C58.3217 5.72525 59.225 5.91643 59.9367 6.23838C60.6484 6.62576 61.2943 7.20435 61.8748 8.10486H61.9406C61.8748 7.01317 61.8748 5.98181 61.8748 4.95045V0H63.1012V19.7566H62.2638L61.9406 17.6335C60.9058 19.178 59.3562 20.0132 57.4181 20.0132C55.48 20.0132 54.062 19.4346 53.0271 18.2121C51.9923 17.055 51.5434 15.3142 51.5434 13.0654C51.5434 10.6858 52.0581 8.87965 53.0271 7.59674C53.9962 6.30882 55.48 5.72525 57.3527 5.72525ZM57.3527 6.82199C55.8689 6.82199 54.7079 7.33512 53.9304 8.43191C53.1583 9.46323 52.7698 11.0077 52.7698 13.0654C52.7698 16.9895 54.3193 18.9214 57.3527 18.9214C58.9022 18.9214 60.0629 18.4686 60.7746 17.5681C61.4863 16.6676 61.8698 15.1885 61.8698 13.0604V12.8692C61.8698 10.7461 61.4812 9.20161 60.7746 8.3011C60.1287 7.26974 58.9676 6.82199 57.3527 6.82199ZM76.5272 5.98683V6.88738L73.6854 7.07856C74.4575 8.04449 74.8464 9.07585 74.8464 10.1676C74.8464 11.5209 74.3921 12.5472 73.4884 13.3874C72.5851 14.2225 71.4241 14.6099 69.9353 14.6099C69.2894 14.6099 68.8401 14.6099 68.6431 14.5445C68.1284 14.8011 67.7398 15.123 67.4825 15.445C67.2251 15.8324 67.0939 16.1544 67.0939 16.6022C67.0939 17.0499 67.2855 17.3719 67.6087 17.5681C67.9314 17.7593 68.5119 17.8901 69.2894 17.8901H71.6765C73.1606 17.8901 74.3212 18.2121 75.0987 18.7906C75.8758 19.3692 76.3251 20.2697 76.3251 21.4923C76.3251 22.9713 75.7446 24.0681 74.584 24.8378C73.423 25.6076 71.7422 25.995 69.5468 25.995C67.8053 25.995 66.4477 25.673 65.4786 24.9636C64.5095 24.3196 64.0602 23.3537 64.0602 22.1966C64.0602 21.2307 64.3834 20.4609 64.9639 19.8169C65.5444 19.173 66.3822 18.7856 67.3513 18.529C66.9624 18.3378 66.5788 18.0762 66.3822 17.7593C66.1299 17.4473 65.9933 17.065 65.9933 16.6676C65.9933 15.767 66.5738 14.9319 67.7348 14.2225C66.9624 13.9005 66.3165 13.3874 65.8621 12.678C65.4082 11.9686 65.2162 11.1335 65.2162 10.233C65.2162 8.87965 65.6705 7.72254 66.5084 6.88738C67.4117 6.05225 68.5727 5.66487 70.0615 5.66487C70.9651 5.66487 71.6765 5.73026 72.1916 5.92144H76.5171V5.98683H76.5272ZM65.2921 22.0758C65.2921 23.9423 66.71 24.9083 69.5518 24.9083C73.1656 24.9083 74.9776 23.7512 74.9776 21.4319C74.9776 20.5967 74.7202 20.0182 74.1397 19.6308C73.5592 19.2434 72.656 19.0522 71.3638 19.0522H69.1025C66.5839 19.1126 65.2921 20.0786 65.2921 22.0758ZM66.3923 10.233C66.3923 11.3247 66.7151 12.0995 67.3614 12.7434C68.0073 13.322 68.8451 13.644 69.9454 13.644C71.1064 13.644 72.0097 13.322 72.5902 12.7434C73.2361 12.1649 73.4938 11.3297 73.4938 10.233C73.4938 9.07585 73.1707 8.1753 72.5244 7.59674C71.8785 7.01819 71.0406 6.6962 69.88 6.6962C68.7844 6.6962 67.8761 7.01819 67.2956 7.66217C66.6497 8.23567 66.3923 9.13622 66.3923 10.233Z" fill="#888889"/>
<path d="M82.7898 20.0132C80.7863 20.0132 79.2368 19.3692 78.0758 18.1467C76.9805 16.9242 76.3954 15.1885 76.3954 12.9346C76.3954 10.7462 76.9101 8.94506 78.0104 7.65713C79.1056 6.30382 80.529 5.65984 82.4013 5.65984C84.0166 5.65984 85.3085 6.2384 86.2775 7.33514C87.2466 8.49229 87.6959 10.0368 87.6959 11.9687V13H77.753C77.753 14.8665 78.2073 16.3456 79.1106 17.3115C79.9485 18.3429 81.2407 18.7906 82.8556 18.7906C83.6277 18.7906 84.3394 18.7253 84.9199 18.5995C85.5004 18.4687 86.2775 18.2775 87.1812 17.8901V19.1126C86.4087 19.4346 85.6974 19.6912 85.0511 19.822C84.3394 19.9528 83.6277 20.0132 82.7898 20.0132ZM82.4671 6.82201C81.1095 6.82201 80.0797 7.27477 79.2368 8.10993C78.4647 9.01048 77.9446 10.233 77.8184 11.9083H86.3433C86.3433 10.2984 86.0202 9.07587 85.3085 8.17532C84.6626 7.26975 83.6935 6.82201 82.4671 6.82201ZM94.8628 5.72526C95.4433 5.72526 96.0896 5.79065 96.7355 5.91644L96.4782 7.13894C95.8826 7.00813 95.2769 6.94275 94.6712 6.94776C93.5102 6.94776 92.5412 7.46093 91.7641 8.42687C90.9916 9.45823 90.6031 10.6807 90.6031 12.2253V19.7566H89.3109V5.98684H90.4065L90.5377 8.49731H90.6031C91.1836 7.46595 91.7641 6.76164 92.41 6.37426C93.1875 5.92146 93.9595 5.72526 94.8628 5.72526ZM16.8683 0.643982H7.63188V13H20.0279V3.85878C20.0329 2.12309 18.6096 0.643982 16.8683 0.643982ZM4.79533 0.643982H3.24585C1.50456 0.643982 0.015625 2.05768 0.015625 3.86379V5.40829H4.79533V0.643982ZM0.015625 8.30111H4.79533V13.0654H0.015625V8.30111ZM15.2532 20.6571H16.8027C18.544 20.6571 20.0329 19.2434 20.0329 17.4373V15.8979H15.2532V20.6571ZM7.63188 15.8979H12.4116V20.6622H7.63188V15.8979ZM0.015625 15.8979V17.4424C0.015625 19.178 1.43389 20.6622 3.24585 20.6622H4.79533V15.8979H0.015625Z" fill="#888889"/>
</g>
<defs>
<clipPath id="clip0_2262_10989">
<rect width="97" height="26" fill="white"/>
</clipPath>
</defs>
</svg>