<svg xmlns:xlink="http://www.w3.org/1999/xlink" xmlns="http://www.w3.org/2000/svg" width="94" height="24" viewBox="0 0 94 24" fill="none">
<g clip-path="url(#clip0)">
<path d="M8.26327 0.00012207C4.97456 0.00012207 2.31305 2.66457 2.31305 5.95693V8.18949C1.15819 8.39879 0 8.67786 0 9.03999V20.6912C0 20.6912 0 21.0134 0.361726 21.1662C1.67257 21.6978 6.82965 23.525 8.01438 23.9436C8.16704 24.0001 8.21018 24.0001 8.25 24.0001C8.30642 24.0001 8.33296 24.0001 8.48562 23.9436C9.67035 23.525 14.8407 21.6978 16.1515 21.1662C16.4867 21.0267 16.5 20.7044 16.5 20.7044V9.03999C16.5 8.67786 15.3584 8.3855 14.2002 8.18949V5.95693C14.2168 2.66457 11.5387 0.00012207 8.26327 0.00012207ZM8.26327 2.8473C10.2013 2.8473 11.3728 4.02006 11.3728 5.96025V7.90045C9.19911 7.74763 7.34403 7.74763 5.15708 7.90045V5.96025C5.15708 4.01673 6.32854 2.8473 8.26327 2.8473ZM8.25 10.7576C10.9546 10.7576 13.2246 10.9669 13.2246 11.3423V18.6114C13.2246 18.7244 13.2113 18.7377 13.1117 18.7775C13.0155 18.8207 8.49889 20.4519 8.49889 20.4519C8.49889 20.4519 8.31637 20.5084 8.26327 20.5084C8.20686 20.5084 8.02765 20.4387 8.02765 20.4387C8.02765 20.4387 3.51106 18.8074 3.41482 18.7642C3.31858 18.7211 3.30199 18.7078 3.30199 18.5981V11.329C3.27544 10.9536 5.54535 10.7576 8.25 10.7576Z" fill="#888889"/>
<path d="M22.8731 18.5185V9.31885H19.5117V6.0199H29.9921V9.31885H26.6638V18.5185H22.8731Z" fill="#888889"/>
<path d="M38.4855 18.5185L36.7608 14.5884H35.3883V18.5185H31.5977V6.0199H38.269C41.1973 6.0199 42.7679 7.96111 42.7679 10.3023C42.7679 12.46 41.5202 13.6013 40.5184 14.093L42.7825 18.5148H38.4855V18.5185ZM38.9331 10.3023C38.9331 9.62343 38.3313 9.32986 37.7002 9.32986H35.3883V11.3041H37.7002C38.3313 11.2894 38.9331 10.9959 38.9331 10.3023Z" fill="#888889"/>
<path d="M44.7539 18.5185V6.0199H54.2325V9.31885H48.5299V10.5518H54.0931V13.8508H48.5299V15.2232H54.2325V18.5185H44.7539Z" fill="#888889"/>
<path d="M56.2031 18.5339V15.5285L60.9662 9.33424H56.2031V6.03528H65.9568V9.01132L61.179 15.2386H66.0963V18.5376L56.2031 18.5339Z" fill="#888889"/>
<path d="M67.0234 12.2916C67.0234 8.45325 69.9995 5.81848 73.8673 5.81848C77.7204 5.81848 80.7111 8.43857 80.7111 12.2916C80.7111 16.13 77.7351 18.7501 73.8673 18.7501C69.9995 18.7501 67.0234 16.13 67.0234 12.2916ZM76.858 12.2916C76.858 10.5486 75.6727 9.16148 73.8526 9.16148C72.0325 9.16148 70.8472 10.5486 70.8472 12.2916C70.8472 14.0347 72.0325 15.4218 73.8526 15.4218C75.6874 15.4218 76.858 14.0347 76.858 12.2916Z" fill="#888889"/>
<path d="M89.1809 18.5339L87.4562 14.6038H86.0837V18.5339H82.293V6.03528H88.9644C91.8927 6.03528 93.4633 7.9765 93.4633 10.3177C93.4633 12.4754 92.2157 13.6167 91.2139 14.1084L93.478 18.5303H89.1809V18.5339ZM89.6433 10.303C89.6433 9.62415 89.0414 9.33058 88.4103 9.33058H86.0984V11.3048H88.4103C89.0451 11.2901 89.6433 10.9966 89.6433 10.303Z" fill="#888889"/>
</g>
<defs>
<clipPath id="clip0">
<rect width="93.75" height="24" fill="white" transform="translate(0 0.00012207)"/>
</clipPath>
</defs>
</svg>