<svg xmlns:xlink="http://www.w3.org/1999/xlink" xmlns="http://www.w3.org/2000/svg" width="21" height="20" viewBox="0 0 21 20" fill="none">
<g clip-path="url(#clip0)">
<circle cx="10.7301" cy="10" r="10" fill="#EB322A"/>
<path fill-rule="evenodd" clip-rule="evenodd" d="M12.0555 10.9036C11.9815 10.9092 11.599 10.932 10.7459 10.932C10.0673 10.932 9.58555 10.9116 9.41653 10.9036C6.79421 10.7883 4.83688 10.3318 4.83688 9.78524C4.83688 9.23869 6.79421 8.78282 9.41653 8.66562V10.449C9.58802 10.4613 10.079 10.4903 10.7576 10.4903C11.5719 10.4903 11.9796 10.4564 12.053 10.4496V8.66685C14.6698 8.78344 16.6228 9.23993 16.6228 9.78524C16.6228 10.3306 14.6704 10.787 12.053 10.903L12.0555 10.9036ZM12.0555 8.48241V6.88656H15.7074V4.453H5.76465V6.88656H9.41591V8.48179C6.44815 8.61812 4.21631 9.206 4.21631 9.91046C4.21631 10.6149 6.44815 11.2022 9.41591 11.3391V16.453H12.0549V11.3373C15.0159 11.201 17.244 10.6137 17.244 9.90985C17.244 9.206 15.0177 8.61874 12.0549 8.48179L12.0555 8.48241Z" fill="white"/>
</g>
<defs>
<clipPath id="clip0">
<rect width="20" height="20" fill="white" transform="translate(0.730103)"/>
</clipPath>
</defs>
</svg>